<svg id="Group_15432" data-name="Group 15432" xmlns="http://www.w3.org/2000/svg" xmlns:xlink="http://www.w3.org/1999/xlink" width="12.53" height="15" viewBox="0 0 12.53 15">
  <defs>
    <clipPath id="clip-path">
      <rect id="Rectangle_5992" data-name="Rectangle 5992" width="12.53" height="15" fill="#e1003e"/>
    </clipPath>
  </defs>
  <g id="Group_15431" data-name="Group 15431" clip-path="url(#clip-path)">
    <path id="Path_79073" data-name="Path 79073" d="M12.53,7.713v4.579c-.031,0-.027.018-.026.036a1.859,1.859,0,0,1-.027.378,2.8,2.8,0,0,1-.7,1.4,2.743,2.743,0,0,1-1.161.753,2.153,2.153,0,0,1-.68.137q-3.6,0-7.2,0a2.141,2.141,0,0,1-.358-.023,2.918,2.918,0,0,1-.689-.2,2.779,2.779,0,0,1-.9-.624,2.749,2.749,0,0,1-.652-1.1,1.783,1.783,0,0,1-.107-.628.461.461,0,0,0,0-.051c0-.025-.013-.025-.031-.013V7.756c.031,0,.031-.027.031-.051,0-.1,0-.2.006-.295a2.33,2.33,0,0,1,.113-.486,2.795,2.795,0,0,1,1.6-1.718,2.848,2.848,0,0,1,.717-.188,4.026,4.026,0,0,1,.61-.025c.044,0,.054-.011.054-.054q0-.841,0-1.682a4.07,4.07,0,0,1,.031-.544c.013-.091.025-.183.045-.273a3.2,3.2,0,0,1,.224-.674,3.091,3.091,0,0,1,.7-.957A3.916,3.916,0,0,1,4.5.518C4.525.5,4.558.5,4.572.484A.654.654,0,0,1,4.76.363,2.984,2.984,0,0,1,5.4.106,2.6,2.6,0,0,1,6.1,0C6.256,0,6.41,0,6.563.007c.1.007.189.02.283.036.063.011.125.027.187.041a2.264,2.264,0,0,1,.3.09A3.442,3.442,0,0,1,7.818.4a3.277,3.277,0,0,1,.606.443,2.688,2.688,0,0,1,.312.347,3.164,3.164,0,0,1,.307.477A3.23,3.23,0,0,1,9.2,2a2.072,2.072,0,0,1,.093.3c.013.059.038.118.045.176.013.1.03.209.041.314a4.657,4.657,0,0,1,.022.49q0,.835,0,1.669c0,.037.006.051.049.05a3.77,3.77,0,0,1,.771.044,2.822,2.822,0,0,1,1.03.408,2.781,2.781,0,0,1,.949,1.036,2.984,2.984,0,0,1,.158.355,2.786,2.786,0,0,1,.141.577,1.771,1.771,0,0,1,.005.235.132.132,0,0,0,.013.058c.008.016.013,0,.019,0M1.258,9.989h0q0,1.106,0,2.212a1.475,1.475,0,0,0,.161.7c.033.064.069.126.1.188A1.194,1.194,0,0,0,1.7,13.3a1.5,1.5,0,0,0,.543.357,1.623,1.623,0,0,0,.6.1h6.74c.089,0,.178,0,.267,0a1.367,1.367,0,0,0,.376-.08,1.549,1.549,0,0,0,.708-.5,1.525,1.525,0,0,0,.321-.748,2.139,2.139,0,0,0,.017-.305q0-2.008,0-4.016c0-.137,0-.274-.007-.411a1.4,1.4,0,0,0-.037-.274A1.537,1.537,0,0,0,10.123,6.3a1.587,1.587,0,0,0-.209-.04,4.325,4.325,0,0,0-.534-.015c-2.243.009-4.486-.02-6.729.016a1.033,1.033,0,0,0-.388.084,2.241,2.241,0,0,0-.322.164,1.777,1.777,0,0,0-.326.289,1.067,1.067,0,0,0-.171.257,1.517,1.517,0,0,0-.185.692q0,1.121,0,2.242M6.264,4.994h1.66q.094,0,.188,0c.026,0,.036-.007.034-.034,0-.045,0-.09,0-.134q0-.83,0-1.66a2.316,2.316,0,0,0-.014-.277A1.922,1.922,0,0,0,7.9,2.165a1.784,1.784,0,0,0-.911-.793,1.978,1.978,0,0,0-1.6.072,1.812,1.812,0,0,0-.588.48,1.759,1.759,0,0,0-.4,1.081c-.016.649,0,1.3-.009,1.947,0,.037.014.042.045.042H6.264" transform="translate(0 0)" fill="#e1003e"/>
    <path id="Path_79074" data-name="Path 79074" d="M164.694,256.959c0-.222,0-.445,0-.667a.611.611,0,0,1,.139-.386.537.537,0,0,1,.359-.192.718.718,0,0,1,.445.06.566.566,0,0,1,.221.218.612.612,0,0,1,.081.319q.006.624,0,1.249a.659.659,0,0,1-.109.391.6.6,0,0,1-.414.246.67.67,0,0,1-.426-.075.523.523,0,0,1-.255-.3.719.719,0,0,1-.044-.255c0-.2,0-.4,0-.607Z" transform="translate(-159.053 -246.947)" fill="#e1003e"/>
  </g>
</svg>
