<svg id="Group_15444" data-name="Group 15444" xmlns="http://www.w3.org/2000/svg" xmlns:xlink="http://www.w3.org/1999/xlink" width="25.007" height="25.019" viewBox="0 0 25.007 25.019">
  <defs>
    <clipPath id="clip-path">
      <rect id="Rectangle_6003" data-name="Rectangle 6003" width="25.007" height="25.019" fill="#e1003e"/>
    </clipPath>
  </defs>
  <g id="Group_15443" data-name="Group 15443" clip-path="url(#clip-path)">
    <path id="Path_79081" data-name="Path 79081" d="M0,13.385V11.627c.016-.079.037-.157.049-.236.059-.418.094-.84.175-1.253A12.275,12.275,0,0,1,3.591,3.746,12.265,12.265,0,0,1,10.306.2c.438-.078.88-.131,1.321-.2h1.759c.393.053.789.093,1.179.161a12.068,12.068,0,0,1,6.092,2.876,12.185,12.185,0,0,1,4.181,11.5,11.9,11.9,0,0,1-4.629,7.8,12.174,12.174,0,0,1-10.294,2.4A12.027,12.027,0,0,1,3.7,21.376,12.277,12.277,0,0,1,.2,14.708c-.079-.439-.131-.882-.2-1.323M12.506,6.83c-2.125,0-4.249.02-6.374-.009A1.632,1.632,0,0,0,4.443,8.5c.01,2.67,0,5.34,0,8.01a1.568,1.568,0,0,0,1.661,1.671q6.4,0,12.8,0a1.905,1.905,0,0,0,.412-.03,1.579,1.579,0,0,0,1.249-1.639c0-2.654-.012-5.307.007-7.961a1.651,1.651,0,0,0-1.717-1.73c-2.116.033-4.233.01-6.349.01" fill="#e1003e"/>
    <path id="Path_79082" data-name="Path 79082" d="M117.07,178.864l1.961,1.556q2.17,1.723,4.34,3.447a.671.671,0,0,0,.967-.013l5.984-4.753c.082-.065.165-.129.3-.234v.279q0,3.7,0,7.4c0,.391-.075.463-.474.463h-12.6c-.4,0-.473-.071-.474-.463q0-3.7,0-7.4Z" transform="translate(-111.34 -170.109)" fill="#e1003e"/>
    <path id="Path_79083" data-name="Path 79083" d="M143.364,165.81h10.979c-.088.08-.139.132-.2.177q-2.56,2.032-5.118,4.066a.229.229,0,0,1-.349,0q-2.564-2.047-5.136-4.083c-.049-.039-.093-.083-.18-.162" transform="translate(-136.347 -157.694)" fill="#e1003e"/>
  </g>
</svg>
