<svg xmlns="http://www.w3.org/2000/svg" xmlns:xlink="http://www.w3.org/1999/xlink" width="13.407" height="16" viewBox="0 0 13.407 16">
  <defs>
    <clipPath id="clip-path">
      <rect id="Rectangle_5988" data-name="Rectangle 5988" width="13.407" height="16" fill="#e1003e"/>
    </clipPath>
  </defs>
  <g id="Group_15422" data-name="Group 15422" clip-path="url(#clip-path)">
    <path id="Path_79055" data-name="Path 79055" d="M6.839,16h-.25a.746.746,0,0,0-.069-.033,11.8,11.8,0,0,1-2.536-1.22A8.135,8.135,0,0,1,.56,10.193,13.715,13.715,0,0,1,.006,6.377c-.021-1.129.022-2.26.014-3.39A.634.634,0,0,1,.694,2.31a14.627,14.627,0,0,0,1.768-.16A7.009,7.009,0,0,0,5.834.593c.246-.2.5-.4.756-.593h.25c.169.126.349.24.506.381a7.355,7.355,0,0,0,4.3,1.871c.388.039.779.046,1.168.066a.565.565,0,0,1,.589.592c0,1.328.015,2.655-.006,3.982a12.31,12.31,0,0,1-.373,2.746A8.276,8.276,0,0,1,8.47,15.3c-.528.263-1.086.467-1.63.7M1.155,3.43c0,.071-.009.122-.009.173,0,1.1-.013,2.2.008,3.295A11.1,11.1,0,0,0,1.56,9.652a6.987,6.987,0,0,0,2.007,3.354A9.15,9.15,0,0,0,6.64,14.812a.25.25,0,0,0,.161,0,10.192,10.192,0,0,0,2.153-1.083,6.949,6.949,0,0,0,2.766-3.594A12.449,12.449,0,0,0,12.3,6.277c.016-.906-.012-1.812-.021-2.718,0-.04-.008-.079-.014-.13A8.611,8.611,0,0,1,6.714,1.321,8.616,8.616,0,0,1,1.155,3.43" transform="translate(0)" fill="#e1003e"/>
  </g>
</svg>
