<svg id="Group_15434" data-name="Group 15434" xmlns="http://www.w3.org/2000/svg" xmlns:xlink="http://www.w3.org/1999/xlink" width="11.573" height="15" viewBox="0 0 11.573 15">
  <defs>
    <clipPath id="clip-path">
      <rect id="Rectangle_5993" data-name="Rectangle 5993" width="11.573" height="15" fill="#e1003e"/>
    </clipPath>
  </defs>
  <g id="Group_15433" data-name="Group 15433" clip-path="url(#clip-path)">
    <path id="Path_79075" data-name="Path 79075" d="M4.285,15H4.109l.05-.013a.876.876,0,0,1-.108-.025.47.47,0,0,1-.257-.257c-.082-.165-.165-.329-.246-.494q-.29-.592-.579-1.186c-.028-.058-.028-.059-.1-.043l-1.2.271c-.228.051-.456.106-.685.151a.431.431,0,0,1-.5-.3.471.471,0,0,1,.042-.354q.377-.794.755-1.588c.1-.218.21-.434.315-.652.063-.131.125-.261.186-.393a.053.053,0,0,0,0-.045A1.686,1.686,0,0,1,1.5,9.5a.077.077,0,0,0-.046-.055A1.69,1.69,0,0,1,1,9.126,1.634,1.634,0,0,1,.513,7.807a.071.071,0,0,0-.021-.062,1.658,1.658,0,0,1-.369-.561,1.062,1.062,0,0,1-.093-.425c0-.027,0-.054,0-.081H.019L0,6.812V6.379l.018.132a.2.2,0,0,0,.006-.042A1.594,1.594,0,0,1,.033,6.3a1.739,1.739,0,0,1,.131-.417.1.1,0,0,0,0-.065C.151,5.78.133,5.741.116,5.7a1.028,1.028,0,0,1-.088-.418c0-.028,0-.056,0-.084H.02L0,5.354V4.922l.016.111H.029a1.113,1.113,0,0,1,0-.188,1.62,1.62,0,0,1,.2-.543,1.938,1.938,0,0,1,.255-.333.1.1,0,0,0,.028-.083,1.737,1.737,0,0,1,.007-.332,1.629,1.629,0,0,1,.25-.691,1.433,1.433,0,0,1,.414-.433c.089-.058.181-.109.273-.162A.085.085,0,0,0,1.5,2.213a1.826,1.826,0,0,1,.153-.379A1.6,1.6,0,0,1,2.877,1.01a.229.229,0,0,0,.178-.1,1.516,1.516,0,0,1,.561-.47,1.587,1.587,0,0,1,.839-.17A2.26,2.26,0,0,1,4.75.313.15.15,0,0,0,4.879.29,1.573,1.573,0,0,1,5.531.028a.962.962,0,0,1,.157,0V.017L5.589,0h.432L5.91.015V.027a.836.836,0,0,1,.138,0A1.574,1.574,0,0,1,6.7.288a.148.148,0,0,0,.14.023A1.449,1.449,0,0,1,7.5.284,1.6,1.6,0,0,1,8.213.59,1.767,1.767,0,0,1,8.57.96.1.1,0,0,0,8.628,1c.073.014.148.019.22.035A1.636,1.636,0,0,1,10.075,2.2a.091.091,0,0,0,.053.064,1.681,1.681,0,0,1,.4.26,1.617,1.617,0,0,1,.512.883,1.514,1.514,0,0,1,.031.466.118.118,0,0,0,.031.1,2.969,2.969,0,0,1,.208.264,1.574,1.574,0,0,1,.253,1.091,1.392,1.392,0,0,1-.135.468.121.121,0,0,0,0,.114,1.594,1.594,0,0,1,.147.592,1.632,1.632,0,0,1-.034.429,1.489,1.489,0,0,1-.227.539c-.062.087-.13.17-.2.252a.164.164,0,0,0-.042.118,2.691,2.691,0,0,1-.009.31,1.613,1.613,0,0,1-.924,1.287.1.1,0,0,0-.061.075,1.543,1.543,0,0,1-.26.54.081.081,0,0,0-.007.1q.182.371.36.744.382.8.763,1.6a3.524,3.524,0,0,1,.16.364.426.426,0,0,1-.423.559,1.349,1.349,0,0,1-.23-.038c-.365-.082-.729-.165-1.094-.248l-.67-.153A.034.034,0,0,0,8.625,13c-.017.042-.037.082-.057.123q-.3.617-.606,1.233c-.072.146-.145.293-.225.435a.388.388,0,0,1-.307.2L7.442,15H7.281l.038-.013a.919.919,0,0,1-.1-.023.414.414,0,0,1-.228-.2c-.038-.068-.074-.137-.108-.207q-.291-.606-.58-1.213-.224-.47-.446-.941l-.064-.133c-.014.026-.025.045-.034.065-.031.066-.06.133-.091.2q-.432.905-.865,1.81c-.072.15-.144.3-.226.446a.382.382,0,0,1-.312.2L4.285,15M8.442,9.845a2,2,0,0,0,.221-.022.743.743,0,0,0,.589-.655.825.825,0,0,1,.053-.219.416.416,0,0,1,.267-.233,1.46,1.46,0,0,0,.234-.091.72.72,0,0,0,.39-.632,1.063,1.063,0,0,0-.034-.279.434.434,0,0,1,.163-.465l.094-.076a.75.75,0,0,0,.169-.982c-.028-.044-.055-.089-.08-.135a.409.409,0,0,1,0-.405c.025-.047.054-.093.082-.139a.739.739,0,0,0,.084-.591.761.761,0,0,0-.294-.42.793.793,0,0,1-.152-.146.417.417,0,0,1-.064-.366.907.907,0,0,0,.026-.359.731.731,0,0,0-.493-.6c-.056-.022-.113-.038-.169-.06a.4.4,0,0,1-.249-.286A1.8,1.8,0,0,1,9.245,2.5a.737.737,0,0,0-.641-.62c-.087-.008-.175,0-.263,0a.424.424,0,0,1-.368-.209c-.029-.047-.054-.1-.08-.144a.741.741,0,0,0-.8-.373,1.434,1.434,0,0,0-.253.083.426.426,0,0,1-.463-.081l-.111-.1A.759.759,0,0,0,5.438.965a1.781,1.781,0,0,0-.254.2.418.418,0,0,1-.441.072,1.429,1.429,0,0,0-.227-.078.727.727,0,0,0-.766.276,2.332,2.332,0,0,0-.139.231.43.43,0,0,1-.377.212c-.09,0-.182-.007-.27,0a.733.733,0,0,0-.628.62c-.01.064-.021.128-.033.191a.389.389,0,0,1-.112.193.659.659,0,0,1-.292.145.752.752,0,0,0-.512.8c.007.057.021.113.033.169a.433.433,0,0,1-.17.465l-.089.071a.74.74,0,0,0-.237.83,2.734,2.734,0,0,0,.15.288.4.4,0,0,1,0,.4c-.027.049-.057.1-.086.145a.712.712,0,0,0-.105.368.735.735,0,0,0,.3.615c.037.029.075.059.11.091a.412.412,0,0,1,.138.4,1.935,1.935,0,0,0-.043.274.747.747,0,0,0,.527.737c.045.014.09.031.134.047a.423.423,0,0,1,.218.186.642.642,0,0,1,.069.263.752.752,0,0,0,.56.639,1.284,1.284,0,0,0,.335.019.419.419,0,0,1,.387.212c.029.048.055.1.082.147a.739.739,0,0,0,.768.367,1.477,1.477,0,0,0,.266-.087.411.411,0,0,1,.361.006.919.919,0,0,1,.182.139.748.748,0,0,0,.922.089,2.412,2.412,0,0,0,.219-.176.376.376,0,0,1,.3-.089,1.026,1.026,0,0,1,.233.071.745.745,0,0,0,.886-.237,2.71,2.71,0,0,0,.147-.244.415.415,0,0,1,.194-.165.5.5,0,0,1,.27-.025m1.452,2.511c-.009-.022-.015-.037-.022-.052-.029-.059-.061-.117-.089-.176q-.352-.739-.7-1.479c-.012-.025-.023-.03-.05-.022a1.451,1.451,0,0,1-.349.077.166.166,0,0,0-.141.082c-.012.018-.027.034-.041.052a1.488,1.488,0,0,1-.3.291,1.571,1.571,0,0,1-.572.269,1.638,1.638,0,0,1-.43.052,2.183,2.183,0,0,1-.4-.06.1.1,0,0,0-.064.011c-.091.05-.179.1-.269.155l-.036.021.946,1.978.008-.013c.2-.4.392-.8.59-1.2a.759.759,0,0,1,.111-.171.427.427,0,0,1,.434-.129c.346.076.692.155,1.037.234l.339.078M4.2,13.55l.945-1.976-.032-.017a1.231,1.231,0,0,1-.188-.1.251.251,0,0,0-.245-.046,1.433,1.433,0,0,1-.734-.01,1.581,1.581,0,0,1-.75-.426c-.07-.071-.129-.153-.195-.228a.1.1,0,0,0-.06-.033,1.457,1.457,0,0,1-.388-.083c-.033-.011-.046,0-.06.027q-.4.832-.792,1.663c0,.009-.007.019-.012.033a.222.222,0,0,0,.029,0l1.329-.3a.5.5,0,0,1,.21-.007.432.432,0,0,1,.313.241q.149.293.294.588c.1.211.205.423.308.634.008.016.018.031.029.048" fill="#e1003e"/>
    <path id="Path_79076" data-name="Path 79076" d="M66.231,72.43A3.847,3.847,0,1,1,70.1,76.276a3.847,3.847,0,0,1-3.866-3.846m.878,0a2.972,2.972,0,1,0,2.978-2.974,2.97,2.97,0,0,0-2.978,2.974" transform="translate(-64.291 -66.576)" fill="#e1003e"/>
  </g>
</svg>
