<svg id="Group_15451" data-name="Group 15451" xmlns="http://www.w3.org/2000/svg" xmlns:xlink="http://www.w3.org/1999/xlink" width="16" height="19.094" viewBox="0 0 16 19.094">
  <defs>
    <clipPath id="clip-path">
      <rect id="Rectangle_5988" data-name="Rectangle 5988" width="16" height="19.094"/>
    </clipPath>
  </defs>
  <g id="Group_15422" data-name="Group 15422" clip-path="url(#clip-path)">
    <path id="Path_79055" data-name="Path 79055" d="M8.162,19.094h-.3a.89.89,0,0,0-.083-.039A14.078,14.078,0,0,1,4.754,17.6,9.709,9.709,0,0,1,.669,12.164,16.368,16.368,0,0,1,.007,7.611c-.025-1.348.026-2.7.017-4.045a.756.756,0,0,1,.8-.809,17.455,17.455,0,0,0,2.11-.191A8.364,8.364,0,0,0,6.962.708c.294-.244.6-.472.9-.708h.3c.2.151.417.287.6.455A8.777,8.777,0,0,0,13.9,2.688c.463.046.929.055,1.394.078a.674.674,0,0,1,.7.706c0,1.584.018,3.169-.007,4.753a14.691,14.691,0,0,1-.445,3.276,9.876,9.876,0,0,1-5.434,6.761c-.63.314-1.3.557-1.945.833m-6.784-15c0,.084-.011.145-.011.206,0,1.311-.015,2.622.01,3.932a13.246,13.246,0,0,0,.484,3.287,8.338,8.338,0,0,0,2.4,4,10.919,10.919,0,0,0,3.667,2.154.3.3,0,0,0,.192,0,12.163,12.163,0,0,0,2.57-1.293,8.293,8.293,0,0,0,3.3-4.289,14.856,14.856,0,0,0,.7-4.6c.019-1.081-.015-2.162-.026-3.243,0-.047-.01-.095-.017-.155A10.276,10.276,0,0,1,8.012,1.576,10.283,10.283,0,0,1,1.378,4.093" transform="translate(0)"/>
  </g>
</svg>
