<svg id="Group_15560" data-name="Group 15560" xmlns="http://www.w3.org/2000/svg" xmlns:xlink="http://www.w3.org/1999/xlink" width="18" height="18.656" viewBox="0 0 18 18.656">
  <defs>
    <clipPath id="clip-path">
      <rect id="Rectangle_5990" data-name="Rectangle 5990" width="18" height="18.656"/>
    </clipPath>
  </defs>
  <g id="Group_15427" data-name="Group 15427" clip-path="url(#clip-path)">
    <path id="Path_79059" data-name="Path 79059" d="M0,16.324V3.68a.506.506,0,0,0,.033-.1A2.381,2.381,0,0,1,.72,2.13a2.462,2.462,0,0,1,1.94-.748c.264.01.529,0,.8,0C3.483.851,3.33.274,3.972,0h.364a.783.783,0,0,1,.521.876c-.014.161,0,.324,0,.5h8.291c0-.173.012-.336,0-.5A.782.782,0,0,1,13.664,0h.364a.846.846,0,0,1,.508.943c-.013.142,0,.286,0,.441.347,0,.668,0,.989,0A2.463,2.463,0,0,1,17.907,3.24c.041.156.062.318.093.477V16.324a1.4,1.4,0,0,0-.035.156,2.478,2.478,0,0,1-1.84,2.1c-.092.023-.183.05-.274.075H2.15a.411.411,0,0,0-.08-.035A2.439,2.439,0,0,1,.1,16.815c-.048-.159-.068-.327-.1-.491M3.466,2.77c-.377,0-.729-.013-1.079.006a1.022,1.022,0,0,0-.427.137A1.1,1.1,0,0,0,1.4,3.962q.006,6.056,0,12.113c0,.036,0,.073,0,.109a1.084,1.084,0,0,0,1.125,1.087q6.466,0,12.932,0a1.287,1.287,0,0,0,.392-.063,1.084,1.084,0,0,0,.737-1.148q0-6.038,0-12.076c0-.061,0-.121,0-.182a1.015,1.015,0,0,0-.851-.994,9.111,9.111,0,0,0-1.2-.011c0,.218.007.442,0,.665a.7.7,0,0,1-.918.651.679.679,0,0,1-.463-.614c-.009-.24,0-.48,0-.719H4.854c0,.222,0,.433,0,.644a.7.7,0,0,1-.7.728.707.707,0,0,1-.689-.742c0-.206,0-.411,0-.638"/>
    <path id="Path_79060" data-name="Path 79060" d="M115.858,361a.869.869,0,1,1-.876-.863.882.882,0,0,1,.876.863" transform="translate(-109.961 -347.02)"/>
    <path id="Path_79061" data-name="Path 79061" d="M220.15,266.178a.863.863,0,0,1-.874.855.868.868,0,1,1,.874-.855" transform="translate(-210.459 -255.63)"/>
    <path id="Path_79062" data-name="Path 79062" d="M114.994,267.041a.868.868,0,1,1-.013-1.736.868.868,0,1,1,.013,1.736" transform="translate(-109.96 -255.638)"/>
    <path id="Path_79063" data-name="Path 79063" d="M220.152,361.016a.87.87,0,0,1-.867.866.869.869,0,0,1,.006-1.738.87.87,0,0,1,.861.872" transform="translate(-210.461 -347.021)"/>
    <path id="Path_79064" data-name="Path 79064" d="M114.982,172.379a.863.863,0,1,1,.875-.857.866.866,0,0,1-.875.857" transform="translate(-109.96 -164.435)"/>
    <path id="Path_79065" data-name="Path 79065" d="M322.911,361.012a.862.862,0,1,1,.862.869.864.864,0,0,1-.862-.869" transform="translate(-311.145 -347.02)"/>
    <path id="Path_79066" data-name="Path 79066" d="M219.265,172.369a.863.863,0,1,1,.884-.842.854.854,0,0,1-.884.842" transform="translate(-210.457 -164.425)"/>
    <path id="Path_79067" data-name="Path 79067" d="M322.905,171.505a.862.862,0,1,1,.865.863.856.856,0,0,1-.865-.863" transform="translate(-311.139 -164.424)"/>
    <path id="Path_79068" data-name="Path 79068" d="M324.634,266.168a.862.862,0,1,1-1.724-.007.862.862,0,1,1,1.724.007" transform="translate(-311.144 -255.628)"/>
  </g>
</svg>
