<svg id="Group_15466" data-name="Group 15466" xmlns="http://www.w3.org/2000/svg" xmlns:xlink="http://www.w3.org/1999/xlink" width="21.098" height="17.5" viewBox="0 0 21.098 17.5">
  <defs>
    <clipPath id="clip-path">
      <rect id="Rectangle_5991" data-name="Rectangle 5991" width="21.098" height="17.5"/>
    </clipPath>
  </defs>
  <g id="Group_15429" data-name="Group 15429" clip-path="url(#clip-path)">
    <path id="Path_79069" data-name="Path 79069" d="M0,190.127a6.348,6.348,0,0,1,.307-.95,2.992,2.992,0,0,1,2.758-1.762c.829-.021,1.662-.017,2.489.042a.583.583,0,0,0,.642-.294,2.975,2.975,0,0,1,2.572-1.336c1.27,0,2.541-.019,3.809.022a2.877,2.877,0,0,1,2.407,1.433c.114.178.2.243.418.186a2.6,2.6,0,0,1,.633-.057c.625-.007,1.249,0,1.874,0a3.085,3.085,0,0,1,3.153,2.645.3.3,0,0,0,.035.072v3.956a1,1,0,0,0-.041.112,1.882,1.882,0,0,1-.584.993,2,2,0,0,1-1.405.476q-6.664,0-13.329,0c-1.25,0-2.5,0-3.749,0a1.83,1.83,0,0,1-1.608-.752A4.815,4.815,0,0,1,0,194.084v-3.956M6.877,194.4h7.344v-.217q0-2.574,0-5.148a1.852,1.852,0,0,0-1.975-1.966q-1.688,0-3.377,0a1.855,1.855,0,0,0-1.992,1.99q0,2.553,0,5.107Zm-1.245.014v-.276c0-1.729,0-3.458.007-5.188,0-.214-.065-.279-.258-.28-.768,0-1.536-.017-2.3-.018a1.575,1.575,0,0,0-.425.061,1.848,1.848,0,0,0-1.416,1.88c0,1.036,0,2.072,0,3.108a.632.632,0,0,0,.707.712h3.69m9.844,0h3.632c.525,0,.754-.226.755-.747,0-.878,0-1.757,0-2.635,0-.274-.012-.548-.037-.821a1.8,1.8,0,0,0-1.572-1.529c-.767-.033-1.535-.027-2.3-.034a3.229,3.229,0,0,0-.328.032c-.111.01-.162.051-.162.181.006,1.777.005,3.554.007,5.332,0,.067.006.134.01.221" transform="translate(0 -178.165)"/>
    <path id="Path_79070" data-name="Path 79070" d="M170.7,0a3.672,3.672,0,1,1-3.676,3.613A3.664,3.664,0,0,1,170.7,0m-.006,1.243a2.429,2.429,0,1,0,2.428,2.419,2.435,2.435,0,0,0-2.428-2.419" transform="translate(-160.137)"/>
    <path id="Path_79071" data-name="Path 79071" d="M36.235,82.75a2.749,2.749,0,1,1-2.876,2.592,2.741,2.741,0,0,1,2.876-2.592M34.6,85.491A1.5,1.5,0,1,0,36.112,84a1.5,1.5,0,0,0-1.507,1.5" transform="translate(-31.98 -79.337)"/>
    <path id="Path_79072" data-name="Path 79072" d="M347.889,88.108a2.752,2.752,0,1,1,2.749-2.757,2.768,2.768,0,0,1-2.749,2.757m1.493-2.751a1.5,1.5,0,1,0-3,.01,1.5,1.5,0,0,0,3-.01" transform="translate(-330.909 -79.2)"/>
  </g>
</svg>
