<svg xmlns="http://www.w3.org/2000/svg" xmlns:xlink="http://www.w3.org/1999/xlink" width="15" height="15" viewBox="0 0 15 15">
  <defs>
    <clipPath id="clip-path">
      <rect id="Rectangle_5989" data-name="Rectangle 5989" width="15" height="15" fill="#e1003e"/>
    </clipPath>
  </defs>
  <g id="Group_15425" data-name="Group 15425" clip-path="url(#clip-path)">
    <path id="Path_79057" data-name="Path 79057" d="M8.174,15H6.826a.836.836,0,0,0-.081-.029,1.346,1.346,0,0,1-1.065-1.079,4.31,4.31,0,0,1-.034-.495.164.164,0,0,0-.073-.118c-.286-.121-.577-.232-.9-.362a3.05,3.05,0,0,1-.235.265,1.36,1.36,0,0,1-1.805.038,8.838,8.838,0,0,1-.848-.848,1.358,1.358,0,0,1,.047-1.816,3.414,3.414,0,0,1,.259-.231c-.118-.286-.235-.533-.321-.79-.048-.145-.11-.2-.265-.188A1.373,1.373,0,0,1,.328,8.866,1.659,1.659,0,0,1,0,8.174V6.826c.011-.037.023-.073.033-.11a1.389,1.389,0,0,1,.809-.96,1.763,1.763,0,0,1,.732-.111.187.187,0,0,0,.145-.073c.123-.285.234-.576.358-.889-.068-.064-.153-.136-.23-.217a1.364,1.364,0,0,1-.039-1.872,10.329,10.329,0,0,1,.8-.8,1.363,1.363,0,0,1,1.839.03,3.425,3.425,0,0,1,.231.259c.285-.118.532-.237.79-.321A.221.221,0,0,0,5.652,1.5,1.373,1.373,0,0,1,6.134.328,1.672,1.672,0,0,1,6.826,0H8.174a.279.279,0,0,0,.053.024,1.345,1.345,0,0,1,1.1,1.1,4.152,4.152,0,0,1,.03.48.163.163,0,0,0,.073.117c.286.121.576.233.9.361.059-.066.127-.156.208-.233a1.363,1.363,0,0,1,1.871-.04,10.023,10.023,0,0,1,.8.8,1.364,1.364,0,0,1-.03,1.839,3.272,3.272,0,0,1-.259.23c.118.286.236.533.321.791.048.146.111.2.265.188a1.37,1.37,0,0,1,1.182.493A1.684,1.684,0,0,1,15,6.826V8.174c-.011.037-.023.074-.033.111A1.343,1.343,0,0,1,13.991,9.3a3.957,3.957,0,0,1-.579.058.184.184,0,0,0-.132.074c-.122.286-.233.576-.362.9a3.253,3.253,0,0,1,.255.227,1.359,1.359,0,0,1,.047,1.816,8.693,8.693,0,0,1-.848.848,1.357,1.357,0,0,1-1.816-.048,3.26,3.26,0,0,1-.23-.259c-.269.112-.5.213-.735.305s-.242.088-.239.34a1.335,1.335,0,0,1-.619,1.205,3.282,3.282,0,0,1-.56.236m-.679-.879c.156,0,.313,0,.469,0a.5.5,0,0,0,.5-.516c0-.2,0-.391,0-.586a.443.443,0,0,1,.36-.481A5.681,5.681,0,0,0,10.121,12a.437.437,0,0,1,.585.077c.144.139.282.285.426.424a.49.49,0,0,0,.719.007q.332-.32.653-.652a.49.49,0,0,0,0-.719c-.138-.145-.283-.283-.423-.426A.436.436,0,0,1,12,10.126a5.7,5.7,0,0,0,.543-1.3.442.442,0,0,1,.473-.352c.2,0,.4,0,.6,0a.493.493,0,0,0,.505-.484q.015-.483,0-.967a.5.5,0,0,0-.517-.486c-.19,0-.381,0-.571,0a.451.451,0,0,1-.5-.378,5.622,5.622,0,0,0-.527-1.264.444.444,0,0,1,.086-.607c.137-.139.278-.274.413-.415a.49.49,0,0,0,0-.719q-.321-.331-.653-.652a.489.489,0,0,0-.719,0c-.144.139-.282.284-.426.424a.437.437,0,0,1-.585.08A5.625,5.625,0,0,0,8.818,2.46.439.439,0,0,1,8.469,2c0-.2,0-.4,0-.6a.5.5,0,0,0-.5-.517c-.307-.007-.615-.006-.923,0a.5.5,0,0,0-.512.523c0,.2,0,.391,0,.586a.442.442,0,0,1-.353.473A5.7,5.7,0,0,0,4.873,3,.433.433,0,0,1,4.3,2.927c-.144-.139-.282-.284-.426-.423a.494.494,0,0,0-.74,0q-.314.308-.621.621a.494.494,0,0,0,0,.751c.14.143.285.281.423.426a.425.425,0,0,1,.08.548A5.821,5.821,0,0,0,2.455,6.2a.432.432,0,0,1-.446.331c-.205,0-.41,0-.615,0a.5.5,0,0,0-.513.49c-.009.317-.008.635,0,.952a.5.5,0,0,0,.51.494c.205,0,.41,0,.615,0a.436.436,0,0,1,.452.342,5.663,5.663,0,0,0,.547,1.319.434.434,0,0,1-.08.573c-.139.144-.284.282-.423.426a.491.491,0,0,0,0,.73q.316.326.642.642a.492.492,0,0,0,.73,0c.144-.139.282-.284.426-.423a.436.436,0,0,1,.573-.08,5.719,5.719,0,0,0,1.318.547.436.436,0,0,1,.342.452c0,.2,0,.4,0,.6a.5.5,0,0,0,.524.527c.146,0,.293,0,.439,0" fill="#e1003e"/>
    <path id="Path_79058" data-name="Path 79058" d="M147.733,144.461a3.268,3.268,0,1,1-3.261,3.277,3.277,3.277,0,0,1,3.261-3.277m0,.889a2.378,2.378,0,1,0,2.379,2.38,2.37,2.37,0,0,0-2.379-2.38" transform="translate(-140.239 -140.228)" fill="#e1003e"/>
  </g>
</svg>
