<svg id="Group_15472" data-name="Group 15472" xmlns="http://www.w3.org/2000/svg" xmlns:xlink="http://www.w3.org/1999/xlink" width="18" height="18" viewBox="0 0 18 18">
  <defs>
    <clipPath id="clip-path">
      <rect id="Rectangle_5989" data-name="Rectangle 5989" width="18" height="18"/>
    </clipPath>
  </defs>
  <g id="Group_15425" data-name="Group 15425" clip-path="url(#clip-path)">
    <path id="Path_79057" data-name="Path 79057" d="M10,18.349H8.35a1.022,1.022,0,0,0-.1-.036,1.646,1.646,0,0,1-1.3-1.32,5.272,5.272,0,0,1-.041-.6.2.2,0,0,0-.089-.145c-.35-.148-.705-.284-1.106-.443a3.732,3.732,0,0,1-.288.324,1.663,1.663,0,0,1-2.208.047,10.811,10.811,0,0,1-1.038-1.038,1.661,1.661,0,0,1,.058-2.221,4.176,4.176,0,0,1,.317-.282c-.145-.35-.288-.652-.393-.967-.059-.178-.135-.242-.324-.23A1.679,1.679,0,0,1,.4,10.845,2.029,2.029,0,0,1,0,10V8.35c.014-.045.029-.09.04-.135A1.7,1.7,0,0,1,1.03,7.041a2.157,2.157,0,0,1,.9-.135.229.229,0,0,0,.178-.09c.151-.349.286-.7.438-1.088-.083-.078-.188-.167-.282-.266a1.668,1.668,0,0,1-.048-2.29A12.635,12.635,0,0,1,3.187,2.2a1.667,1.667,0,0,1,2.25.036,4.19,4.19,0,0,1,.283.317c.349-.144.65-.29.966-.392a.27.27,0,0,0,.228-.325A1.679,1.679,0,0,1,7.5.4,2.046,2.046,0,0,1,8.35,0H10a.341.341,0,0,0,.064.029,1.646,1.646,0,0,1,1.343,1.343,5.079,5.079,0,0,1,.037.588.2.2,0,0,0,.09.143c.35.148.705.285,1.1.441.072-.081.155-.191.254-.285a1.667,1.667,0,0,1,2.289-.049,12.261,12.261,0,0,1,.974.975,1.669,1.669,0,0,1-.036,2.25,4,4,0,0,1-.317.282c.145.35.288.652.393.967.059.178.135.242.324.23a1.676,1.676,0,0,1,1.446.6,2.06,2.06,0,0,1,.389.833V10c-.014.045-.029.09-.041.135a1.643,1.643,0,0,1-1.194,1.237,4.841,4.841,0,0,1-.708.071.225.225,0,0,0-.161.09c-.149.35-.285.7-.443,1.1a3.979,3.979,0,0,1,.312.278,1.662,1.662,0,0,1,.058,2.221,10.634,10.634,0,0,1-1.038,1.037,1.66,1.66,0,0,1-2.221-.059,3.988,3.988,0,0,1-.281-.317c-.328.137-.612.261-.9.373s-.3.108-.293.416a1.633,1.633,0,0,1-.757,1.475,4.015,4.015,0,0,1-.685.289m-.831-1.075c.191,0,.382.005.573,0a.613.613,0,0,0,.618-.631c0-.239,0-.478,0-.717a.542.542,0,0,1,.441-.589,6.95,6.95,0,0,0,1.58-.658.534.534,0,0,1,.715.095c.176.17.345.348.521.518a.6.6,0,0,0,.88.008q.407-.391.8-.8a.6.6,0,0,0,0-.88c-.169-.177-.347-.346-.518-.521a.533.533,0,0,1-.1-.714,6.976,6.976,0,0,0,.664-1.6.54.54,0,0,1,.579-.431c.245,0,.49,0,.735,0a.6.6,0,0,0,.618-.592q.019-.591,0-1.182a.606.606,0,0,0-.633-.595c-.233,0-.466,0-.7,0a.552.552,0,0,1-.609-.463,6.877,6.877,0,0,0-.644-1.546.543.543,0,0,1,.1-.743c.167-.17.34-.335.505-.508a.6.6,0,0,0,0-.88q-.393-.405-.8-.8a.6.6,0,0,0-.879,0c-.176.17-.345.348-.521.518a.535.535,0,0,1-.715.1,6.88,6.88,0,0,0-1.6-.662.536.536,0,0,1-.426-.565c0-.245,0-.49,0-.735a.609.609,0,0,0-.615-.633c-.376-.008-.753-.007-1.129,0a.611.611,0,0,0-.626.639c0,.239,0,.478,0,.717a.54.54,0,0,1-.432.578,6.979,6.979,0,0,0-1.6.664.53.53,0,0,1-.7-.093c-.176-.17-.345-.347-.521-.518a.6.6,0,0,0-.906,0q-.384.376-.76.76a.6.6,0,0,0,0,.919c.171.175.349.344.518.521a.52.52,0,0,1,.1.671A7.121,7.121,0,0,0,3,7.583a.529.529,0,0,1-.545.4c-.251,0-.5,0-.753,0a.605.605,0,0,0-.628.6c-.011.388-.01.777,0,1.165a.607.607,0,0,0,.624.6c.251,0,.5,0,.753,0a.533.533,0,0,1,.553.418,6.928,6.928,0,0,0,.669,1.613.531.531,0,0,1-.1.7c-.17.176-.347.345-.518.521a.6.6,0,0,0,0,.893q.387.4.785.786a.6.6,0,0,0,.893,0c.176-.17.345-.348.521-.518a.533.533,0,0,1,.7-.1,7,7,0,0,0,1.613.669.534.534,0,0,1,.418.553c0,.245,0,.49,0,.735a.616.616,0,0,0,.641.644c.179,0,.358,0,.538,0"/>
    <path id="Path_79058" data-name="Path 79058" d="M148.462,144.461a4,4,0,1,1-3.99,4.009,4.008,4.008,0,0,1,3.99-4.009m.006,1.088a2.909,2.909,0,1,0,2.91,2.912,2.9,2.9,0,0,0-2.91-2.912" transform="translate(-139.294 -139.283)"/>
  </g>
</svg>
