<svg xmlns="http://www.w3.org/2000/svg" width="23.307" height="19.433" viewBox="0 0 23.307 19.433">
  <g id="Icon_feather-camera" data-name="Icon feather-camera" transform="translate(-0.5 -3.5)">
    <path id="Path_79077" data-name="Path 79077" d="M22.807,20a1.937,1.937,0,0,1-1.937,1.937H3.437A1.937,1.937,0,0,1,1.5,20V9.343A1.937,1.937,0,0,1,3.437,7.406H7.311L9.248,4.5h5.811L17,7.406H20.87a1.937,1.937,0,0,1,1.937,1.937Z" fill="none" stroke="#fff" stroke-linecap="round" stroke-linejoin="round" stroke-width="2"/>
    <path id="Path_79078" data-name="Path 79078" d="M19.748,17.374A3.874,3.874,0,1,1,15.874,13.5a3.874,3.874,0,0,1,3.874,3.874Z" transform="translate(-3.72 -3.189)" fill="none" stroke="#fff" stroke-linecap="round" stroke-linejoin="round" stroke-width="2"/>
  </g>
</svg>
