<svg id="Group_15430" data-name="Group 15430" xmlns="http://www.w3.org/2000/svg" xmlns:xlink="http://www.w3.org/1999/xlink" width="15" height="12.442" viewBox="0 0 15 12.442">
  <defs>
    <clipPath id="clip-path">
      <rect id="Rectangle_5991" data-name="Rectangle 5991" width="15" height="12.442" fill="#e1003e"/>
    </clipPath>
  </defs>
  <g id="Group_15429" data-name="Group 15429" clip-path="url(#clip-path)">
    <path id="Path_79069" data-name="Path 79069" d="M0,188.883a4.513,4.513,0,0,1,.218-.675,2.127,2.127,0,0,1,1.961-1.252c.59-.015,1.182-.012,1.77.03a.414.414,0,0,0,.456-.209,2.115,2.115,0,0,1,1.829-.95c.9,0,1.806-.014,2.708.016a2.046,2.046,0,0,1,1.712,1.019c.081.127.146.173.3.132a1.846,1.846,0,0,1,.45-.041c.444,0,.888,0,1.332,0a2.193,2.193,0,0,1,2.242,1.881.211.211,0,0,0,.025.051V191.7a.711.711,0,0,0-.029.08,1.338,1.338,0,0,1-.415.706,1.422,1.422,0,0,1-1,.338q-4.738,0-9.476,0c-.889,0-1.777,0-2.666,0a1.3,1.3,0,0,1-1.143-.535A3.424,3.424,0,0,1,0,191.7v-2.813m4.889,3.04h5.221v-.154q0-1.83,0-3.66a1.317,1.317,0,0,0-1.4-1.4h-2.4a1.319,1.319,0,0,0-1.416,1.415q0,1.815,0,3.631Zm-.885.01v-.2c0-1.229,0-2.459,0-3.688,0-.152-.046-.2-.184-.2-.546,0-1.092-.012-1.638-.013a1.12,1.12,0,0,0-.3.044,1.314,1.314,0,0,0-1.007,1.337c0,.737,0,1.473,0,2.21a.449.449,0,0,0,.5.507H4m7,0h2.582c.374,0,.536-.161.537-.531,0-.624,0-1.249,0-1.873,0-.195-.009-.39-.026-.584a1.282,1.282,0,0,0-1.118-1.087c-.545-.023-1.092-.019-1.637-.024a2.3,2.3,0,0,0-.233.023c-.079.007-.115.037-.115.129,0,1.264,0,2.527,0,3.791,0,.048,0,.1.007.157" transform="translate(0 -180.378)" fill="#e1003e"/>
    <path id="Path_79070" data-name="Path 79070" d="M169.633,0a2.61,2.61,0,1,1-2.613,2.569A2.605,2.605,0,0,1,169.633,0m0,.884a1.727,1.727,0,1,0,1.726,1.72,1.731,1.731,0,0,0-1.726-1.72" transform="translate(-162.127)" fill="#e1003e"/>
    <path id="Path_79071" data-name="Path 79071" d="M35.4,82.749a1.955,1.955,0,1,1-2.045,1.843A1.949,1.949,0,0,1,35.4,82.749M34.243,84.7a1.067,1.067,0,1,0,1.072-1.063A1.069,1.069,0,0,0,34.243,84.7" transform="translate(-32.377 -80.322)" fill="#e1003e"/>
    <path id="Path_79072" data-name="Path 79072" d="M347.092,86.517a1.957,1.957,0,1,1,1.954-1.96,1.968,1.968,0,0,1-1.954,1.96m1.062-1.956a1.067,1.067,0,1,0-2.134.007,1.067,1.067,0,0,0,2.134-.007" transform="translate(-335.019 -80.184)" fill="#e1003e"/>
  </g>
</svg>
