<svg xmlns="http://www.w3.org/2000/svg" xmlns:xlink="http://www.w3.org/1999/xlink" width="21" height="21" viewBox="0 0 21 21">
  <defs>
    <clipPath id="clip-path">
      <rect id="Rectangle_6004" data-name="Rectangle 6004" width="13.3" height="9.345" fill="#6e0d88"/>
    </clipPath>
  </defs>
  <g id="Group_15447" data-name="Group 15447" transform="translate(-796 -753)">
    <rect id="Rectangle_6005" data-name="Rectangle 6005" width="21" height="21" rx="4" transform="translate(796 753)" fill="#e0e3f3"/>
    <g id="Group_15446" data-name="Group 15446" transform="translate(800.198 759.053)">
      <g id="Group_15445" data-name="Group 15445" clip-path="url(#clip-path)">
        <path id="Path_79084" data-name="Path 79084" d="M13.3,2.257v.13c-.008.028-.015.056-.023.084q-.114.378-.228.756l-.72,2.367-.758,2.491c-.09.3-.178.591-.271.885a.5.5,0,0,1-.415.364l.017.011H2.387l.03-.013a.743.743,0,0,1-.087-.018.522.522,0,0,1-.343-.362c-.063-.2-.121-.4-.182-.6L1.33,6.786.921,5.442.485,4.011Q.263,3.281.041,2.551a.62.62,0,0,1-.026-.344A.525.525,0,0,1,.569,1.82.7.7,0,0,1,.8,1.9c.236.116.471.232.707.347l1.013.489q.518.251,1.034.5a.035.035,0,0,0,.05-.008q.3-.352.611-.7t.616-.707c.21-.242.418-.485.627-.727l.783-.9A.519.519,0,0,1,7.034.174c.056.06.11.122.164.184l.881,1.015L9.085,2.531q.3.348.6.7a.037.037,0,0,0,.054.01c.059-.031.12-.059.18-.089l1.8-.873.852-.413a.5.5,0,0,1,.583.113.467.467,0,0,1,.133.265c0,.006,0,.026.015.014M6.645,1.307c-.008.012-.014.021-.021.029l-.429.5-.275.316-.834.961-.714.82c-.091.1-.179.211-.274.312a.5.5,0,0,1-.454.162.8.8,0,0,1-.218-.08q-1.017-.492-2.032-.988L1.357,3.32c.007.026.012.046.018.065l.9,2.949q.3.97.589,1.94c.009.029.023.032.049.032h7.477c.021,0,.037,0,.045-.027q.142-.478.287-.955c.113-.373.229-.745.342-1.118.129-.423.255-.848.384-1.271q.237-.779.475-1.558c0-.015.007-.031.012-.052l-.1.045-1.28.621-.738.358a.51.51,0,0,1-.224.06.516.516,0,0,1-.4-.176q-.257-.288-.51-.58c-.181-.208-.361-.417-.542-.626l-.5-.574L6.906,1.6c-.084-.1-.169-.191-.26-.294" transform="translate(0 0)" fill="#6e0d88"/>
      </g>
    </g>
  </g>
</svg>
