<svg id="Group_15551" data-name="Group 15551" xmlns="http://www.w3.org/2000/svg" xmlns:xlink="http://www.w3.org/1999/xlink" width="15.633" height="20.263" viewBox="0 0 15.633 20.263">
  <defs>
    <clipPath id="clip-path">
      <rect id="Rectangle_5993" data-name="Rectangle 5993" width="15.633" height="20.263"/>
    </clipPath>
  </defs>
  <g id="Group_15433" data-name="Group 15433" clip-path="url(#clip-path)">
    <path id="Path_79075" data-name="Path 79075" d="M5.788,20.263H5.551l.068-.018a1.184,1.184,0,0,1-.146-.033.635.635,0,0,1-.347-.348c-.11-.223-.223-.444-.333-.667q-.392-.8-.782-1.6c-.038-.079-.037-.08-.135-.058L2.254,17.9c-.308.069-.616.143-.925.2a.582.582,0,0,1-.67-.407.636.636,0,0,1,.056-.478q.509-1.073,1.02-2.145c.14-.294.284-.587.425-.88.085-.176.169-.353.251-.531a.071.071,0,0,0-.007-.06,2.277,2.277,0,0,1-.375-.778.1.1,0,0,0-.062-.074,2.283,2.283,0,0,1-.619-.427,2.208,2.208,0,0,1-.655-1.781.1.1,0,0,0-.029-.084,2.239,2.239,0,0,1-.5-.758,1.435,1.435,0,0,1-.126-.574c0-.036,0-.073,0-.109H.026L0,9.2V8.618L.024,8.8a.276.276,0,0,0,.008-.057,2.153,2.153,0,0,1,.013-.226A2.35,2.35,0,0,1,.222,7.95a.138.138,0,0,0,0-.088C.2,7.808.179,7.756.157,7.7a1.389,1.389,0,0,1-.119-.565c0-.038,0-.076,0-.113H.027L0,7.232V6.649L.022,6.8H.04a1.5,1.5,0,0,1,0-.254A2.189,2.189,0,0,1,.309,5.81a2.618,2.618,0,0,1,.345-.45.139.139,0,0,0,.038-.112A2.347,2.347,0,0,1,.7,4.8a2.2,2.2,0,0,1,.338-.934,1.935,1.935,0,0,1,.56-.585c.12-.078.245-.147.369-.218a.115.115,0,0,0,.061-.072,2.466,2.466,0,0,1,.206-.512A2.166,2.166,0,0,1,3.887,1.365a.309.309,0,0,0,.241-.142A2.048,2.048,0,0,1,4.885.588,2.144,2.144,0,0,1,6.018.358a3.053,3.053,0,0,1,.4.065A.2.2,0,0,0,6.591.391,2.125,2.125,0,0,1,7.472.037a1.3,1.3,0,0,1,.212,0V.022L7.549,0h.584L7.984.02V.036a1.129,1.129,0,0,1,.187,0,2.126,2.126,0,0,1,.877.351A.2.2,0,0,0,9.237.42a1.957,1.957,0,0,1,.9-.037A2.161,2.161,0,0,1,11.095.8a2.386,2.386,0,0,1,.482.5.139.139,0,0,0,.079.049c.1.019.2.025.3.047A2.211,2.211,0,0,1,13.61,2.976a.123.123,0,0,0,.071.087,2.271,2.271,0,0,1,.536.351,2.185,2.185,0,0,1,.692,1.193,2.046,2.046,0,0,1,.042.629.16.16,0,0,0,.042.129,4.01,4.01,0,0,1,.281.357A2.126,2.126,0,0,1,15.616,7.2a1.88,1.88,0,0,1-.182.633.164.164,0,0,0,0,.154,2.153,2.153,0,0,1,.2.8,2.205,2.205,0,0,1-.045.579,2.011,2.011,0,0,1-.306.728c-.083.118-.176.23-.27.34a.221.221,0,0,0-.057.159,3.635,3.635,0,0,1-.012.419,2.179,2.179,0,0,1-1.248,1.738.14.14,0,0,0-.083.1,2.085,2.085,0,0,1-.351.73.109.109,0,0,0-.01.132q.246.5.486,1,.516,1.078,1.03,2.156a4.761,4.761,0,0,1,.216.492.576.576,0,0,1-.571.755,1.823,1.823,0,0,1-.311-.051c-.493-.11-.985-.223-1.478-.335l-.9-.207a.046.046,0,0,0-.063.032c-.023.056-.05.111-.077.166q-.409.833-.819,1.666c-.1.2-.2.4-.3.587a.525.525,0,0,1-.414.271l.016.018H9.835l.051-.018a1.242,1.242,0,0,1-.139-.031.559.559,0,0,1-.308-.272c-.051-.092-.1-.185-.146-.28q-.393-.819-.783-1.638-.3-.635-.6-1.271l-.086-.18c-.019.035-.033.061-.045.087-.041.09-.081.18-.123.269q-.583,1.223-1.168,2.445c-.1.2-.2.407-.306.6a.516.516,0,0,1-.421.268l.029.018M11.4,13.3a2.7,2.7,0,0,0,.3-.03,1,1,0,0,0,.8-.885,1.115,1.115,0,0,1,.072-.3.562.562,0,0,1,.361-.315,1.973,1.973,0,0,0,.316-.123.972.972,0,0,0,.527-.853,1.436,1.436,0,0,0-.046-.376.586.586,0,0,1,.22-.628l.127-.1A1.013,1.013,0,0,0,14.3,8.364c-.038-.06-.075-.12-.108-.183a.553.553,0,0,1,0-.548c.034-.064.073-.125.111-.187a1,1,0,0,0,.113-.8,1.028,1.028,0,0,0-.4-.567,1.071,1.071,0,0,1-.206-.2.563.563,0,0,1-.087-.494,1.225,1.225,0,0,0,.036-.484A.988.988,0,0,0,13.1,4.1c-.075-.029-.153-.051-.228-.081a.54.54,0,0,1-.336-.387,2.432,2.432,0,0,1-.046-.257,1,1,0,0,0-.865-.838c-.117-.011-.237,0-.355,0a.573.573,0,0,1-.5-.282c-.039-.063-.073-.129-.108-.194a1,1,0,0,0-1.075-.5,1.937,1.937,0,0,0-.341.111.576.576,0,0,1-.625-.11l-.149-.13A1.026,1.026,0,0,0,7.346,1.3,2.4,2.4,0,0,0,7,1.569a.565.565,0,0,1-.6.1A1.93,1.93,0,0,0,6.1,1.56a.982.982,0,0,0-1.035.373,3.151,3.151,0,0,0-.188.313.581.581,0,0,1-.51.287c-.122,0-.245-.01-.365.006a.991.991,0,0,0-.848.838c-.013.086-.028.172-.045.258a.526.526,0,0,1-.151.261.89.89,0,0,1-.394.2,1.015,1.015,0,0,0-.692,1.084c.009.077.029.152.045.228a.584.584,0,0,1-.23.629l-.12.1a1,1,0,0,0-.32,1.121,3.693,3.693,0,0,0,.2.389.543.543,0,0,1,0,.547c-.036.066-.076.131-.116.2a.962.962,0,0,0-.142.5.993.993,0,0,0,.4.831c.051.04.1.08.149.123a.556.556,0,0,1,.186.534,2.614,2.614,0,0,0-.059.37,1.009,1.009,0,0,0,.712,1c.061.018.121.041.181.064a.571.571,0,0,1,.294.252.867.867,0,0,1,.093.355,1.016,1.016,0,0,0,.757.863,1.734,1.734,0,0,0,.453.026.566.566,0,0,1,.523.286c.039.065.074.132.11.2a1,1,0,0,0,1.037.5,2,2,0,0,0,.36-.117.556.556,0,0,1,.487.009,1.241,1.241,0,0,1,.246.188,1.01,1.01,0,0,0,1.245.12,3.259,3.259,0,0,0,.3-.238.508.508,0,0,1,.405-.12,1.386,1.386,0,0,1,.314.1,1.007,1.007,0,0,0,1.2-.32,3.661,3.661,0,0,0,.2-.329.561.561,0,0,1,.263-.223A.677.677,0,0,1,11.4,13.3m1.961,3.392c-.013-.03-.02-.051-.03-.07-.04-.079-.082-.158-.12-.238q-.475-1-.948-2c-.016-.034-.031-.041-.068-.03a1.96,1.96,0,0,1-.471.1.224.224,0,0,0-.19.111c-.016.025-.037.046-.055.07a2.01,2.01,0,0,1-.408.394,2.122,2.122,0,0,1-.772.363,2.213,2.213,0,0,1-.581.07,2.948,2.948,0,0,1-.536-.08A.137.137,0,0,0,9.1,15.4c-.122.068-.242.14-.363.21l-.049.028,1.277,2.672.01-.018c.265-.539.529-1.079.8-1.617a1.026,1.026,0,0,1,.15-.231.577.577,0,0,1,.586-.174c.468.1.934.21,1.4.316l.458.106M5.68,18.3l1.277-2.669-.043-.023a1.664,1.664,0,0,1-.254-.141.34.34,0,0,0-.331-.062,1.936,1.936,0,0,1-.992-.014,2.135,2.135,0,0,1-1.014-.575c-.095-.1-.174-.207-.263-.308a.133.133,0,0,0-.081-.044,1.968,1.968,0,0,1-.525-.113c-.044-.015-.062-.005-.082.036q-.534,1.124-1.07,2.246c-.006.013-.01.026-.016.045a.3.3,0,0,0,.039,0l1.8-.408a.676.676,0,0,1,.284-.01.584.584,0,0,1,.422.326q.2.4.4.795c.14.285.278.571.417.857.011.022.025.042.039.065"/>
    <path id="Path_79076" data-name="Path 79076" d="M66.231,73.779a5.2,5.2,0,1,1,5.222,5.195,5.2,5.2,0,0,1-5.222-5.195m1.186,0a4.014,4.014,0,1,0,4.023-4.017,4.012,4.012,0,0,0-4.023,4.017" transform="translate(-63.61 -65.872)"/>
  </g>
</svg>
