<svg xmlns="http://www.w3.org/2000/svg" xmlns:xlink="http://www.w3.org/1999/xlink" width="25.021" height="25.02" viewBox="0 0 25.021 25.02">
  <defs>
    <clipPath id="clip-path">
      <rect id="Rectangle_6006" data-name="Rectangle 6006" width="25.021" height="25.02" fill="#e1003e"/>
    </clipPath>
  </defs>
  <g id="Group_15450" data-name="Group 15450" clip-path="url(#clip-path)">
    <path id="Path_79085" data-name="Path 79085" d="M0,13.334V11.674c.016-.071.036-.141.046-.212C.1,11.035.13,10.6.214,10.183A12.377,12.377,0,0,1,4.881,2.593a12.058,12.058,0,0,1,5.471-2.4c.438-.074.881-.128,1.321-.191h1.661a1.223,1.223,0,0,0,.187.044A11.3,11.3,0,0,1,17.56,1.072a12.3,12.3,0,0,1,7.428,10.8A11.776,11.776,0,0,1,23.93,17.59a12.516,12.516,0,0,1-13.756,7.2,12.328,12.328,0,0,1-7.545-4.622A12.072,12.072,0,0,1,.191,14.657C.116,14.218.063,13.775,0,13.334m15.624,5.68a3.569,3.569,0,0,0,1.738-.311,5.351,5.351,0,0,0,1.469-1.192.563.563,0,0,0,0-.941q-1.067-1.074-2.139-2.143a.571.571,0,0,0-.96,0c-.4.4-.783.806-1.183,1.2A1.125,1.125,0,0,1,13,15.752a16.444,16.444,0,0,1-3.668-3.587,1.137,1.137,0,0,1,.116-1.659c.407-.41.82-.815,1.225-1.227a.536.536,0,0,0,.019-.854Q9.57,7.286,8.432,6.163a.521.521,0,0,0-.8-.006,12.043,12.043,0,0,0-.95.982,3.058,3.058,0,0,0-.665,2.807,9.032,9.032,0,0,0,.746,1.923,14.564,14.564,0,0,0,6.63,6.424,6.472,6.472,0,0,0,2.231.721" fill="#e1003e"/>
  </g>
</svg>
