<svg xmlns="http://www.w3.org/2000/svg" xmlns:xlink="http://www.w3.org/1999/xlink" width="16.249" height="16.254" viewBox="0 0 16.249 16.254">
  <defs>
    <clipPath id="clip-path">
      <rect id="Rectangle_1253" data-name="Rectangle 1253" width="16.249" height="16.254" transform="translate(0 0)" fill="#6e0d88"/>
    </clipPath>
  </defs>
  <g id="Group_8040" data-name="Group 8040" transform="translate(0 0)">
    <g id="Group_8039" data-name="Group 8039" transform="translate(0 0)" clip-path="url(#clip-path)">
      <path id="Path_73728" data-name="Path 73728" d="M16.249,7.649V8.6c-.01.056-.021.112-.029.169-.051.35-.08.7-.155,1.049a7.894,7.894,0,0,1-3.016,4.754,7.882,7.882,0,0,1-6.632,1.488,7.844,7.844,0,0,1-4.732-3A7.9,7.9,0,0,1,.042,7.312,7.852,7.852,0,0,1,2.024,2.77,7.977,7.977,0,0,1,6.723.127C7.029.072,7.339.041,7.647,0H8.6a.851.851,0,0,0,.122.026,7.734,7.734,0,0,1,3.545,1.118,8.02,8.02,0,0,1,3.855,5.583c.057.3.085.615.127.922m-1.185.473a6.941,6.941,0,1,0-6.946,6.944,6.956,6.956,0,0,0,6.946-6.944" transform="translate(0 0)" fill="#6e0d88"/>
      <path id="Path_73729" data-name="Path 73729" d="M26.658,18.336h.2c.788,0,1.576,0,2.364,0a.593.593,0,0,1,.605.586.583.583,0,0,1-.595.592q-1.578.01-3.157,0a.572.572,0,0,1-.595-.606q0-2.054,0-4.108a.591.591,0,1,1,1.179.01q0,1.658,0,3.315v.208" transform="translate(-18.34 -10.21)" fill="#6e0d88"/>
    </g>
  </g>
</svg>
