<svg xmlns="http://www.w3.org/2000/svg" width="12.912" height="12.912" viewBox="0 0 12.912 12.912">
  <g id="Icon_feather-copy" data-name="Icon feather-copy" transform="translate(-2.5 -2.5)">
    <path id="Path_78992" data-name="Path 78992" d="M14.691,13.5h5.36a1.191,1.191,0,0,1,1.191,1.191v5.36a1.191,1.191,0,0,1-1.191,1.191h-5.36A1.191,1.191,0,0,1,13.5,20.052v-5.36A1.191,1.191,0,0,1,14.691,13.5Z" transform="translate(-6.331 -6.331)" fill="none" stroke="#000" stroke-linecap="round" stroke-linejoin="round" stroke-width="1"/>
    <path id="Path_78993" data-name="Path 78993" d="M4.787,10.743h-.6A1.191,1.191,0,0,1,3,9.552V4.191A1.191,1.191,0,0,1,4.191,3h5.36a1.191,1.191,0,0,1,1.191,1.191v.6" transform="translate(0 0)" fill="none" stroke="#000" stroke-linecap="round" stroke-linejoin="round" stroke-width="1"/>
  </g>
</svg>
