<svg xmlns="http://www.w3.org/2000/svg" xmlns:xlink="http://www.w3.org/1999/xlink" width="92" height="92" viewBox="0 0 92 92">
  <defs>
    <clipPath id="clip-path">
      <rect id="Rectangle_6044" data-name="Rectangle 6044" width="47.404" height="47.352" fill="#6e0d88"/>
    </clipPath>
  </defs>
  <g id="Group_15493" data-name="Group 15493" transform="translate(-496 -170)">
    <g id="Ellipse_1709" data-name="Ellipse 1709" transform="translate(496 170)" fill="#e9ecfd" stroke="#fff" stroke-width="2">
      <circle cx="46" cy="46" r="46" stroke="none"/>
      <circle cx="46" cy="46" r="45" fill="none"/>
    </g>
    <g id="Group_15504" data-name="Group 15504" transform="translate(518.747 192.57)">
      <g id="Group_15504-2" data-name="Group 15504" clip-path="url(#clip-path)">
        <path id="Path_79130" data-name="Path 79130" d="M0,126.349c.9-2.9,3-4.624,5.734-5.815A5.307,5.307,0,0,1,3.846,115.4a5.021,5.021,0,0,1,1.879-3.2,5.508,5.508,0,0,1,7.269.537c2.025,2.165,1.821,5.073-.586,7.836a10.008,10.008,0,0,1,4.887,3.917l2.755-1.353a6.086,6.086,0,0,1-2.458-5.5,5.907,5.907,0,0,1,2.088-4.134,6.347,6.347,0,0,1,8.613.558,6.237,6.237,0,0,1-.933,9.088l2.634,1.288a26.4,26.4,0,0,1,2.239-2.265,25.889,25.889,0,0,1,2.688-1.695,5.269,5.269,0,0,1-1.871-4.656,5.134,5.134,0,0,1,1.822-3.523,5.517,5.517,0,0,1,7.282.334,5.373,5.373,0,0,1-.527,7.92l.482.2a9.813,9.813,0,0,1,4.639,4.012,3.762,3.762,0,0,1-3.277,5.856c-2.839-.007-5.677,0-8.516,0h-.617c-.078.431-.117.816-.22,1.184a4.2,4.2,0,0,1-4.018,3.1c-4.267.025-8.534.033-12.8,0a4.293,4.293,0,0,1-4.213-4.28h-8.9a3.754,3.754,0,0,1-4.111-3.032c-.008-.027-.049-.045-.075-.067v-1.164m23.661,6.833c.916,0,1.833,0,2.749,0,1.321-.009,2.646.035,3.962-.056a2.45,2.45,0,0,0,2.15-2.862,5.542,5.542,0,0,0-1.562-2.708,9.406,9.406,0,0,0-8.364-3.12,9.12,9.12,0,0,0-7.43,4.986,2.8,2.8,0,0,0-.292,1.566,2.455,2.455,0,0,0,2.655,2.19c2.044.016,4.088,0,6.132,0m7.848-7.739c.783,1.1,1.511,2.086,2.195,3.1a.641.641,0,0,0,.61.359c3.1-.01,6.2,0,9.3-.01a1.991,1.991,0,0,0,1.79-3.012,7.734,7.734,0,0,0-6.667-4.174,7.848,7.848,0,0,0-7.228,3.734m-15.741.146.159.034a.452.452,0,0,0-.036-.141,7.806,7.806,0,0,0-7.323-3.769,7.689,7.689,0,0,0-6.64,4.3,1.976,1.976,0,0,0,1.791,2.879q4.7.025,9.406-.007a.763.763,0,0,0,.52-.3c.723-.99,1.418-2,2.123-3m7.908-3.039a4.321,4.321,0,0,0,4.464-4.373,4.44,4.44,0,0,0-8.881.006,4.321,4.321,0,0,0,4.416,4.367m14.672-2.633a3.563,3.563,0,1,0-.06-7.126,3.563,3.563,0,1,0,.06,7.126m-29.3,0a3.564,3.564,0,1,0,.073-7.126,3.564,3.564,0,1,0-.073,7.126" transform="translate(0 -99.299)" fill="#6e0d88"/>
        <path id="Path_79131" data-name="Path 79131" d="M47.891,332.7c-9.012-.36-16.038-4.093-20.636-12.012a1.106,1.106,0,0,1-.187-.781,1.253,1.253,0,0,1,.642-.664c.413-.164.719.123.951.475.638.97,1.222,1.985,1.943,2.89a21.593,21.593,0,0,0,13.777,8.109,21.956,21.956,0,0,0,22.635-10.864c.2-.355.429-.659.875-.667.694-.012,1.054.71.683,1.389a22.359,22.359,0,0,1-3.395,4.7A23,23,0,0,1,51.261,332.4c-1.114.154-2.243.206-3.371.306" transform="translate(-24.178 -285.35)" fill="#e1003e"/>
        <path id="Path_79132" data-name="Path 79132" d="M88.947,8.842c-.234.259-.4.569-.666.707a.806.806,0,0,1-1-.254c-.573-.622-1.128-1.266-1.746-1.841a20.909,20.909,0,0,0-11.759-5.5A22.1,22.1,0,0,0,59.113,4.9a19.826,19.826,0,0,0-5.036,4.315c-.26.311-.589.526-.964.358-.254-.114-.574-.4-.6-.635a1.427,1.427,0,0,1,.352-.928A21.707,21.707,0,0,1,59.1,2.923,24.083,24.083,0,0,1,85.22,4.945a38.542,38.542,0,0,1,3.239,3.1,4.282,4.282,0,0,1,.488.8" transform="translate(-46.947 0)" fill="#e1003e"/>
        <path id="Path_79133" data-name="Path 79133" d="M99.436,327.7c-6.252-.169-11.082-2.415-14.832-6.923-.425-.511-.427-1-.013-1.348s.9-.277,1.321.252a15.86,15.86,0,0,0,7.533,5.308,16.931,16.931,0,0,0,18.666-5.221c.557-.7,1.306-.724,1.616-.056a.907.907,0,0,1-.2,1.023,18.238,18.238,0,0,1-11.044,6.6c-1.137.211-2.3.281-3.051.369" transform="translate(-75.347 -285.373)" fill="#e1003e"/>
        <path id="Path_79134" data-name="Path 79134" d="M127.737,47.569a18.14,18.14,0,0,1,10.507,3.57,1.2,1.2,0,0,1,.431.871.886.886,0,0,1-.559.655,1.514,1.514,0,0,1-1-.27,17.025,17.025,0,0,0-19.474-.076c-.117.079-.228.166-.348.24a.853.853,0,1,1-.959-1.406,18.19,18.19,0,0,1,4.5-2.416,19.337,19.337,0,0,1,6.906-1.168" transform="translate(-103.614 -42.526)" fill="#e1003e"/>
      </g>
    </g>
  </g>
</svg>
