<svg xmlns="http://www.w3.org/2000/svg" xmlns:xlink="http://www.w3.org/1999/xlink" width="92" height="92" viewBox="0 0 92 92">
  <defs>
    <clipPath id="clip-path">
      <rect id="Rectangle_6042" data-name="Rectangle 6042" width="42.875" height="42.84" fill="#6e0d88"/>
    </clipPath>
  </defs>
  <g id="Group_15501" data-name="Group 15501" transform="translate(-496 -170)">
    <g id="Ellipse_1709" data-name="Ellipse 1709" transform="translate(496 170)" fill="#e9ecfd" stroke="#fff" stroke-width="2">
      <circle cx="46" cy="46" r="46" stroke="none"/>
      <circle cx="46" cy="46" r="45" fill="none"/>
    </g>
    <g id="Group_15502" data-name="Group 15502" transform="translate(521 194.381)">
      <g id="Group_15502-2" data-name="Group 15502" clip-path="url(#clip-path)">
        <path id="Path_79115" data-name="Path 79115" d="M0,70.5a9.186,9.186,0,0,1,.728-1.338,2.624,2.624,0,0,1,2.1-.98v1.389a.4.4,0,0,1-.106.058,1.431,1.431,0,0,0-1.3,1.571c-.006,1.856,0,3.712,0,5.568v15.65H41.45v-.443q0-10.32,0-20.64a1.508,1.508,0,0,0-1.4-1.741V68.21a2.819,2.819,0,0,1,2.812,2.558c.008.1.01.2.01.293q0,12.12,0,24.241a2.8,2.8,0,0,1-2.107,2.78,4.2,4.2,0,0,1-1.074.125q-6.573.012-13.146.005h-.532c.035.154.054.261.085.365.5,1.666,1.006,3.329,1.491,5,.077.266.19.359.461.345.4-.021.8-.006,1.231-.006v1.391H13.6v-1.391c.425,0,.866.018,1.3-.011a.463.463,0,0,0,.342-.243c.541-1.74,1.061-3.487,1.585-5.233a1.192,1.192,0,0,0,.014-.216h-.5c-4.34,0-8.681-.024-13.021.012A3.04,3.04,0,0,1,.055,95.939C.05,95.916.019,95.9,0,95.879V70.5M1.432,93.947c0,.513-.022.973.006,1.43a1.267,1.267,0,0,0,.737,1.18,2.781,2.781,0,0,0,1.051.187q18.212.014,36.425.007c.167,0,.335,0,.5-.017a1.283,1.283,0,0,0,1.224-1.071,16.73,16.73,0,0,0,.1-1.716Zm24.7,9.949a1.3,1.3,0,0,0-.023-.253c-.516-1.717-1.042-3.432-1.545-5.153-.074-.254-.206-.281-.421-.28-1.8,0-3.6.009-5.4,0a.4.4,0,0,0-.456.352c-.368,1.283-.759,2.559-1.142,3.837l-.449,1.5Z" transform="translate(0 -62.466)" fill="#6e0d88"/>
        <path id="Path_79116" data-name="Path 79116" d="M82.836,0a7.811,7.811,0,0,1,1.15.562,2.758,2.758,0,0,1,1.186,2.373q.008,12.665,0,25.33c0,.094-.018.188-.029.3H83.731V28q0-12.351,0-24.7a4.775,4.775,0,0,0-.034-.626A1.326,1.326,0,0,0,82.62,1.488,2.928,2.928,0,0,0,82,1.429q-13.984,0-27.968.005a2.383,2.383,0,0,0-.97.187A1.434,1.434,0,0,0,52.3,3.086q0,3.287,0,6.573v18.9H50.852v-.506c0-8.29.012-16.58-.011-24.87A3,3,0,0,1,53.092.07c.037-.008.067-.046.1-.07Z" transform="translate(-46.576)" fill="#6e0d88"/>
        <rect id="Rectangle_6038" data-name="Rectangle 6038" width="28.57" height="1.376" transform="translate(7.153 5.739)" fill="#6e0d88"/>
        <path id="Path_79117" data-name="Path 79117" d="M89.21,109.111c-.892,0-1.784,0-2.676,0a1.47,1.47,0,0,1-1.6-1.583q-.013-2.007,0-4.014a1.466,1.466,0,0,1,1.568-1.575q2.739-.017,5.478,0a1.461,1.461,0,0,1,1.554,1.585q.01,2.007,0,4.014a1.461,1.461,0,0,1-1.565,1.571c-.92.008-1.84,0-2.76,0m-2.792-1.485h5.636v-4.2H86.418Z" transform="translate(-77.802 -93.377)" fill="#e1003e"/>
        <path id="Path_79118" data-name="Path 79118" d="M327.706,109.1c-.892,0-1.784,0-2.676,0a1.466,1.466,0,0,1-1.587-1.592q-.009-2.007,0-4.014a1.453,1.453,0,0,1,1.532-1.564q2.76-.023,5.52,0a1.457,1.457,0,0,1,1.547,1.552q.017,2.028,0,4.056a1.463,1.463,0,0,1-1.577,1.562c-.92.007-1.84,0-2.76,0m2.857-5.676h-5.636v4.2h5.636Z" transform="translate(-296.299 -93.368)" fill="#e1003e"/>
        <path id="Path_79119" data-name="Path 79119" d="M208.615,109.11c-.879,0-1.758,0-2.637,0a1.44,1.44,0,0,1-1.6-1.565q-.016-2.03,0-4.06a1.433,1.433,0,0,1,1.541-1.546q2.742-.019,5.484,0a1.433,1.433,0,0,1,1.54,1.547q.017,2.03,0,4.06a1.44,1.44,0,0,1-1.6,1.565c-.907,0-1.814,0-2.721,0m-2.795-1.484h5.66v-4.2h-5.66Z" transform="translate(-187.219 -93.375)" fill="#e1003e"/>
        <path id="Path_79120" data-name="Path 79120" d="M89.281,211.521c-.921,0-1.842.006-2.763,0a1.448,1.448,0,0,1-1.578-1.593q-.01-1.988,0-3.977a1.441,1.441,0,0,1,1.563-1.566q2.742-.014,5.484,0a1.435,1.435,0,0,1,1.554,1.572q.009,2.009,0,4.019A1.439,1.439,0,0,1,92,211.521H89.281m-2.848-1.456h5.624v-4.236H86.433Z" transform="translate(-77.808 -187.227)" fill="#e1003e"/>
        <path id="Path_79121" data-name="Path 79121" d="M327.781,204.4c.893,0,1.786-.006,2.679,0a1.453,1.453,0,0,1,1.595,1.62q.007,1.947,0,3.893a1.46,1.46,0,0,1-1.632,1.624q-2.679.007-5.358,0a1.45,1.45,0,0,1-1.612-1.6q-.007-1.968,0-3.935a1.45,1.45,0,0,1,1.607-1.6c.907-.007,1.814,0,2.721,0m2.781,1.461h-5.625V210.1h5.625Z" transform="translate(-296.31 -187.25)" fill="#e1003e"/>
        <path id="Path_79122" data-name="Path 79122" d="M208.625,211.516c-.893,0-1.786.005-2.679,0a1.41,1.41,0,0,1-1.573-1.538q-.017-2.03,0-4.06a1.4,1.4,0,0,1,1.53-1.538q2.762-.016,5.524,0a1.39,1.39,0,0,1,1.509,1.516q.019,2.051,0,4.1a1.4,1.4,0,0,1-1.55,1.518c-.921.008-1.841,0-2.762,0m2.854-5.679h-5.645v4.236h5.645Z" transform="translate(-187.218 -187.223)" fill="#e1003e"/>
        <path id="Path_79123" data-name="Path 79123" d="M86.745,307.909v1.367H85.337a12.7,12.7,0,0,1,.016-1.71,1.329,1.329,0,0,1,1.358-1.132q2.887-.02,5.774,0a1.42,1.42,0,0,1,1.389,1.266,2.721,2.721,0,0,1,.016.376c0,.388,0,.776,0,1.2H92.452v-1.363Z" transform="translate(-78.155 -280.713)" fill="#e1003e"/>
        <path id="Path_79124" data-name="Path 79124" d="M325.069,307.9v1.375h-1.424a13.26,13.26,0,0,1,.014-1.666,1.354,1.354,0,0,1,1.371-1.174q2.887-.021,5.774,0a1.392,1.392,0,0,1,1.39,1.306c.046.495.009,1,.009,1.56-.436,0-.849.014-1.258-.014-.069,0-.173-.189-.179-.3-.023-.357-.009-.715-.009-1.094Z" transform="translate(-296.47 -280.709)" fill="#e1003e"/>
        <path id="Path_79125" data-name="Path 79125" d="M206.087,307.9v1.362H204.7a12.974,12.974,0,0,1,.017-1.774,1.326,1.326,0,0,1,1.336-1.059c1.925-.013,3.851-.016,5.777,0a1.386,1.386,0,0,1,1.387,1.388c.019.471,0,.944,0,1.449H211.8V307.9Z" transform="translate(-187.5 -280.711)" fill="#e1003e"/>
        <rect id="Rectangle_6039" data-name="Rectangle 6039" width="1.413" height="1.381" transform="translate(10.008 2.877)" fill="#6e0d88"/>
        <rect id="Rectangle_6040" data-name="Rectangle 6040" width="1.408" height="1.376" transform="translate(12.882 2.879)" fill="#6e0d88"/>
        <rect id="Rectangle_6041" data-name="Rectangle 6041" width="1.376" height="1.391" transform="translate(7.162 2.879)" fill="#6e0d88"/>
      </g>
    </g>
  </g>
</svg>
