<svg xmlns="http://www.w3.org/2000/svg" xmlns:xlink="http://www.w3.org/1999/xlink" width="92" height="92" viewBox="0 0 92 92">
  <defs>
    <clipPath id="clip-path">
      <rect id="Rectangle_6024" data-name="Rectangle 6024" width="39.832" height="39.822" fill="#6e0d88"/>
    </clipPath>
  </defs>
  <g id="Group_15484" data-name="Group 15484" transform="translate(-496 -170)">
    <g id="Ellipse_1709" data-name="Ellipse 1709" transform="translate(496 170)" fill="#e9ecfd" stroke="#fff" stroke-width="2">
      <circle cx="46" cy="46" r="46" stroke="none"/>
      <circle cx="46" cy="46" r="45" fill="none"/>
    </g>
    <g id="Group_15488" data-name="Group 15488" transform="translate(522.193 194.96)">
      <g id="Group_15488-2" data-name="Group 15488" clip-path="url(#clip-path)">
        <path id="Path_79105" data-name="Path 79105" d="M0,29.634V28.623a1.031,1.031,0,0,0,.076-.176,3.405,3.405,0,0,1,2.035-2.479c.217-.095.226-.237.226-.426,0-1.49-.012-2.981,0-4.471A9.176,9.176,0,0,1,6.2,13.444c.4-.3.834-.544,1.253-.814a.421.421,0,0,0-.049-.072q-.1-.092-.2-.179A6.985,6.985,0,0,1,9.216.456C9.758.26,10.331.15,10.889,0h1.556a1.348,1.348,0,0,0,.214.075,6.727,6.727,0,0,1,5.7,4.956,6.711,6.711,0,0,1-2.2,7.326l-.317.281.282.162a9.2,9.2,0,0,1,4.872,8.242c.026,1.4,0,2.8,0,4.2v.426c1.094,0,2.13,0,3.166,0a.4.4,0,0,0,.214-.063c.628-.442,1.253-.889,1.873-1.332a7.012,7.012,0,1,1,8.666-11.022,6.713,6.713,0,0,1,2.537,4.733,6.974,6.974,0,0,1-2.79,6.327l.244.138a9.211,9.211,0,0,1,4.909,8.338c.022,1.905,0,3.811,0,5.717a1.174,1.174,0,0,1-1.31,1.32q-8.031,0-16.061,0a1.167,1.167,0,0,1-1.292-1.3q0-2.7,0-5.406v-.451h-.5q-8.5,0-16.994,0A3.378,3.378,0,0,1,.691,31.214,8.892,8.892,0,0,1,0,29.634m37.449,7.84c0-1.817.117-3.612-.025-5.386a6.957,6.957,0,0,0-13.846-.25c-.145,1.842-.063,3.7-.082,5.555,0,.022.021.044.041.082Zm-18.8-11.823a1.589,1.589,0,0,0,.02-.17c0-1.5.016-3.005-.005-4.508a6.907,6.907,0,0,0-.932-3.444,6.161,6.161,0,0,0-1.488-1.78c-.68.682-1.332,1.348-2,2a3.46,3.46,0,0,1-4.363.608,5.153,5.153,0,0,1-.958-.782c-.622-.6-1.222-1.219-1.842-1.842a6.511,6.511,0,0,0-2.325,4.437c-.119,1.715-.067,3.442-.089,5.164,0,.1,0,.2,0,.316ZM16.333,7.008a4.666,4.666,0,1,0-4.693,4.659,4.7,4.7,0,0,0,4.693-4.659M35.156,18.677a4.666,4.666,0,1,0-4.7,4.657,4.7,4.7,0,0,0,4.7-4.657M21.39,30.336,22.333,28H3.653C3.576,28,3.5,28,3.42,28a1.165,1.165,0,0,0-.979,1.622,1.271,1.271,0,0,0,1.308.714q8.67-.008,17.341,0ZM14.185,14.481a6.953,6.953,0,0,0-5.01,0c.6.61,1.156,1.206,1.748,1.761a1.1,1.1,0,0,0,1.517-.021c.582-.548,1.134-1.127,1.745-1.737" fill="#6e0d88"/>
        <path id="Path_79106" data-name="Path 79106" d="M285.217,0a3.848,3.848,0,0,1,2.239,1.288,3.38,3.38,0,0,1,.784,2.066c.022.868.028,1.737,0,2.6a3.441,3.441,0,0,1-3.364,3.36c-4.756.03-9.513.014-14.269.01a1.146,1.146,0,0,1-1.134-.84,1.172,1.172,0,0,1,.544-1.338c1.086-.729,2.158-1.482,3.285-2.143a1.553,1.553,0,0,0,.9-1.576A3.407,3.407,0,0,1,276.948.075c.087-.019.172-.05.257-.076ZM274.58,6.958a1.114,1.114,0,0,0,.172.041c3.316,0,6.633.007,9.949,0a1.171,1.171,0,0,0,1.215-1.238q.019-1.088,0-2.176a1.181,1.181,0,0,0-1.247-1.247q-3.459-.014-6.918,0a1.185,1.185,0,0,0-1.245,1.249c-.01.427-.02.856,0,1.282a1.328,1.328,0,0,1-.7,1.287c-.4.247-.789.516-1.228.806" transform="translate(-248.427 0.001)" fill="#e1003e"/>
        <path id="Path_79107" data-name="Path 79107" d="M92.185,271.754c-.4,0-.8.009-1.2,0a1.162,1.162,0,0,1,0-2.323q1.2-.019,2.4,0a1.162,1.162,0,0,1,0,2.323c-.4.011-.8,0-1.2,0" transform="translate(-82.851 -248.422)" fill="#6e0d88"/>
      </g>
    </g>
  </g>
</svg>
