<svg xmlns="http://www.w3.org/2000/svg" xmlns:xlink="http://www.w3.org/1999/xlink" width="92" height="92" viewBox="0 0 92 92">
  <defs>
    <clipPath id="clip-path">
      <rect id="Rectangle_6025" data-name="Rectangle 6025" width="39.373" height="39.248" fill="#6e0d88"/>
    </clipPath>
  </defs>
  <g id="Group_15485" data-name="Group 15485" transform="translate(-496 -170)">
    <g id="Ellipse_1709" data-name="Ellipse 1709" transform="translate(496 170)" fill="#e9ecfd" stroke="#fff" stroke-width="2">
      <circle cx="46" cy="46" r="46" stroke="none"/>
      <circle cx="46" cy="46" r="45" fill="none"/>
    </g>
    <g id="Group_15489" data-name="Group 15489" transform="translate(1.976)">
      <g id="Group_15489-2" data-name="Group 15489" transform="translate(520.743 194.306)">
        <g id="Group_15489-3" data-name="Group 15489" clip-path="url(#clip-path)">
          <path id="Path_79109" data-name="Path 79109" d="M118.666,3.558A2.672,2.672,0,0,0,116.6,1.582a2.032,2.032,0,0,1-.229-.082H89.119a1.092,1.092,0,0,1-.186.078,2.593,2.593,0,0,0-2.147,2.459c-.054,1.465-.026,2.934-.017,4.4,0,.089.137.251.216.255.506.023,1.014.012,1.551.012,0-1.437,0-2.819,0-4.2,0-.863.318-1.187,1.166-1.187h26.084c.772,0,1.093.311,1.093,1.07q0,7.807,0,15.614a.888.888,0,0,1-1.01,1.021c-.914,0-1.828-.018-2.741.013a1.574,1.574,0,0,0-.792.252c-2.174,1.477-4.334,2.975-6.5,4.466-.12.083-.248.156-.437.275V21.044H97.431v1.781h6.148v6.616c.2-.126.346-.217.49-.315q4.429-3.005,8.862-6a1.616,1.616,0,0,1,.8-.247c.815-.034,1.634,0,2.45-.025a2.667,2.667,0,0,0,2.489-2.023c.033-.13.074-.259.112-.388V3.992C118.742,3.847,118.708,3.7,118.666,3.558Z" transform="translate(-79.532 -1.375)" fill="#6e0d88"/>
          <path id="Path_79110" data-name="Path 79110" d="M20.972,292.873a4.016,4.016,0,0,0-4.18-3.376c-3.681.039-7.362.008-11.044.014a5.131,5.131,0,0,0-1.031.078A3.96,3.96,0,0,0,1.5,293.608q-.01,4.94,0,9.879v1.036H21c.006-.115.014-.2.014-.279q0-5.438,0-10.876a3.463,3.463,0,0,0-.039-.5m-1.739,9.6a1.9,1.9,0,0,1-.036.256H3.306V302.3q0-4.317,0-8.635a2.206,2.206,0,0,1,2.381-2.38q5.585-.007,11.169,0a2.19,2.19,0,0,1,2.37,2.27c.021,2.975.007,5.95.005,8.925" transform="translate(-1.375 -265.4)" fill="#6e0d88"/>
          <path id="Path_79111" data-name="Path 79111" d="M20.972,292.873a4.016,4.016,0,0,0-4.18-3.376c-3.681.039-7.362.008-11.044.014a5.131,5.131,0,0,0-1.031.078A3.96,3.96,0,0,0,1.5,293.608q-.01,4.94,0,9.879v1.036H21c.006-.115.014-.2.014-.279q0-5.438,0-10.876A3.463,3.463,0,0,0,20.972,292.873Zm-1.739,9.6a1.9,1.9,0,0,1-.036.256H3.306V302.3q0-4.317,0-8.635a2.206,2.206,0,0,1,2.381-2.38q5.585-.007,11.169,0a2.19,2.19,0,0,1,2.37,2.27C19.249,296.527,19.235,299.5,19.233,302.477Z" transform="translate(-1.375 -265.4)" fill="#6e0d88"/>
          <path id="Path_79112" data-name="Path 79112" d="M50.553,130.864a6.249,6.249,0,1,0-6.233-6.355,6.246,6.246,0,0,0,6.233,6.355m.007-10.623a4.378,4.378,0,1,1-4.395,4.374,4.405,4.405,0,0,1,4.395-4.374" transform="translate(-40.631 -108.513)" fill="#6e0d88"/>
          <path id="Path_79113" data-name="Path 79113" d="M50.553,130.864a6.249,6.249,0,1,0-6.233-6.355A6.246,6.246,0,0,0,50.553,130.864Zm.007-10.623a4.378,4.378,0,1,1-4.395,4.374A4.405,4.405,0,0,1,50.56,120.241Z" transform="translate(-40.631 -108.513)" fill="#6e0d88"/>
        </g>
      </g>
      <path id="Path_79114" data-name="Path 79114" d="M118.666,3.558A2.672,2.672,0,0,0,116.6,1.582a2.032,2.032,0,0,1-.229-.082H89.119a1.092,1.092,0,0,1-.186.078,2.593,2.593,0,0,0-2.147,2.459c-.054,1.465-.026,2.934-.017,4.4,0,.089.137.251.216.255.506.023,1.014.012,1.551.012,0-1.437,0-2.819,0-4.2,0-.863.318-1.187,1.166-1.187h26.084c.772,0,1.093.311,1.093,1.07q0,7.807,0,15.614a.888.888,0,0,1-1.01,1.021c-.914,0-1.828-.018-2.741.013a1.574,1.574,0,0,0-.792.252c-2.174,1.477-4.334,2.975-6.5,4.466-.12.083-.248.156-.437.275V21.044H97.431v1.781h6.148v6.616c.2-.126.346-.217.49-.315q4.429-3.005,8.862-6a1.616,1.616,0,0,1,.8-.247c.815-.034,1.634,0,2.45-.025a2.667,2.667,0,0,0,2.489-2.023c.033-.13.074-.259.112-.388V3.992c-.038-.145-.072-.291-.114-.434" transform="translate(441.211 192.931)" fill="#e1003e" stroke="#e1003e" stroke-width="0.4"/>
    </g>
  </g>
</svg>
