<svg xmlns="http://www.w3.org/2000/svg" xmlns:xlink="http://www.w3.org/1999/xlink" width="92" height="92" viewBox="0 0 92 92">
  <defs>
    <clipPath id="clip-path">
      <rect id="Rectangle_6043" data-name="Rectangle 6043" width="45.828" height="48.196" fill="#6e0d88"/>
    </clipPath>
  </defs>
  <g id="Group_15492" data-name="Group 15492" transform="translate(-496 -170)">
    <g id="Ellipse_1709" data-name="Ellipse 1709" transform="translate(496 170)" fill="#e9ecfd" stroke="#fff" stroke-width="2">
      <circle cx="46" cy="46" r="46" stroke="none"/>
      <circle cx="46" cy="46" r="45" fill="none"/>
    </g>
    <g id="Group_15503" data-name="Group 15503" transform="translate(519 190.203)">
      <g id="Group_15503-2" data-name="Group 15503" clip-path="url(#clip-path)">
        <path id="Path_79126" data-name="Path 79126" d="M305.344,69.069c-.14.845-.23,1.7-.432,2.531-.283,1.161-.633,2.306-.992,3.446a.644.644,0,0,0,.15.786,3.932,3.932,0,0,1,.75,4.56,4.006,4.006,0,1,1-3.381-5.753c.232.013.463.038.824.068.308-1.129.7-2.26.921-3.423a20.77,20.77,0,0,0-11.5-22.938c-.08-.039-.162-.075-.241-.117a.881.881,0,0,1-.47-1.2.834.834,0,0,1,1.2-.358,34.144,34.144,0,0,1,3.976,2.322,22.683,22.683,0,0,1,8.954,14.95c.1.559.164,1.123.244,1.685Zm-4.085,7.3A2.263,2.263,0,0,0,299,78.618a2.253,2.253,0,1,0,2.264-2.247" transform="translate(-259.516 -41.528)" fill="#6e0d88"/>
        <path id="Path_79127" data-name="Path 79127" d="M30.189,0c.3.089.614.166.914.27a3.914,3.914,0,0,1,2.62,4.064,4.006,4.006,0,0,1-7.608,1.411c-.084-.177-.155-.361-.289-.674-1.182.34-2.41.589-3.559,1.041-7.629,3-12.167,8.557-13.486,16.659a34.331,34.331,0,0,0-.174,4.282,5.822,5.822,0,0,1-.036.64.765.765,0,0,1-.761.7.769.769,0,0,1-.875-.627,5.287,5.287,0,0,1-.088-1.011A22.56,22.56,0,0,1,23.66,3.826c.568-.154,1.155-.238,1.725-.388a.622.622,0,0,0,.407-.311A3.894,3.894,0,0,1,29.132.058c.032-.005.059-.038.089-.058Zm1.752,4.021a2.23,2.23,0,1,0-4.458-.032,2.23,2.23,0,1,0,4.458.032" transform="translate(-6.09)" fill="#6e0d88"/>
        <path id="Path_79128" data-name="Path 79128" d="M121.675,130.973c.9.633,1.824,1.188,2.637,1.874a11.587,11.587,0,0,1,3.938,6.9,2.373,2.373,0,0,1-2.356,2.811c-3.351.022-6.7.009-10.053.01q-4.032,0-8.064,0c-1.961,0-3-1.217-2.609-3.122a11.647,11.647,0,0,1,6.091-8.15c.138-.076.279-.147.47-.248a6.162,6.162,0,0,1-1.38-5.482,6.494,6.494,0,0,1,2.464-3.917,6.378,6.378,0,0,1,8.307.517,6.514,6.514,0,0,1,.555,8.806m-4.99,9.868h2.472q3.278,0,6.555,0c.634,0,.915-.287.8-.834a9.954,9.954,0,0,0-6.069-7.522.832.832,0,0,0-.63.031,6.462,6.462,0,0,1-6.318-.019.706.706,0,0,0-.534-.041,9.87,9.87,0,0,0-6.09,7.312c-.182.821.047,1.074.89,1.074h8.919m4.664-14.163a4.69,4.69,0,1,0-9.373.345,4.69,4.69,0,1,0,9.373-.345" transform="translate(-93.755 -107.376)" fill="#e1003e"/>
        <path id="Path_79129" data-name="Path 79129" d="M21.949,313.123a21.8,21.8,0,0,1-15.961-8.087.693.693,0,0,0-.884-.268,3.971,3.971,0,0,1-4.978-2.814,4,4,0,1,1,7.807-1.679,3.849,3.849,0,0,1-.672,2.96c-.171.234-.219.384,0,.639a20.467,20.467,0,0,0,13,7.291,20.444,20.444,0,0,0,14.453-3.194c.244-.157.593-.351.821-.283a1.333,1.333,0,0,1,.73.658.721.721,0,0,1-.413.94c-1.463.784-2.894,1.648-4.417,2.3-2.566,1.092-5.277,1.534-9.482,1.54M6.271,300.951a2.221,2.221,0,0,0-2.234-2.256,2.234,2.234,0,1,0-.046,4.467,2.223,2.223,0,0,0,2.281-2.211" transform="translate(0 -264.927)" fill="#6e0d88"/>
      </g>
    </g>
  </g>
</svg>
