<svg xmlns="http://www.w3.org/2000/svg" xmlns:xlink="http://www.w3.org/1999/xlink" width="87" height="87" viewBox="0 0 87 87">
  <defs>
    <clipPath id="clip-path">
      <rect id="Rectangle_5991" data-name="Rectangle 5991" width="44.879" height="37.226"/>
    </clipPath>
  </defs>
  <g id="Group_15471" data-name="Group 15471" transform="translate(-59 -22)">
    <circle id="Ellipse_1708" data-name="Ellipse 1708" cx="43.5" cy="43.5" r="43.5" transform="translate(59 22)" fill="#f3f6fd"/>
    <g id="Group_15470" data-name="Group 15470" transform="translate(-530 -395.995)" opacity="0.75">
      <g id="Group_15468" data-name="Group 15468" transform="translate(609.78 440.527)">
        <g id="Group_15429" data-name="Group 15429" clip-path="url(#clip-path)">
          <path id="Path_79069" data-name="Path 79069" d="M0,194.98a13.5,13.5,0,0,1,.653-2.02,6.365,6.365,0,0,1,5.866-3.747c1.764-.045,3.536-.035,5.295.09a1.239,1.239,0,0,0,1.365-.625,6.329,6.329,0,0,1,5.472-2.843c2.7-.008,5.4-.041,8.1.047a6.12,6.12,0,0,1,5.121,3.048c.243.379.436.516.89.4a5.519,5.519,0,0,1,1.347-.121c1.329-.014,2.658-.007,3.986,0a6.563,6.563,0,0,1,6.707,5.627.633.633,0,0,0,.074.153V203.4a2.124,2.124,0,0,0-.087.238,4,4,0,0,1-1.243,2.113,4.254,4.254,0,0,1-2.989,1.012q-14.177-.01-28.353,0c-2.659,0-5.317-.009-7.976,0a3.892,3.892,0,0,1-3.42-1.6A10.244,10.244,0,0,1,0,203.4V194.98m14.629,9.1H30.25v-.462q0-5.475,0-10.951a3.939,3.939,0,0,0-4.2-4.182q-3.591,0-7.183,0a3.946,3.946,0,0,0-4.237,4.234q0,5.432,0,10.864Zm-2.648.03v-.588c0-3.678-.011-7.357.015-11.035,0-.454-.138-.594-.549-.6-1.634-.01-3.267-.036-4.9-.038a3.348,3.348,0,0,0-.9.13,3.931,3.931,0,0,0-3.012,4c-.01,2.2,0,4.408,0,6.612a1.344,1.344,0,0,0,1.5,1.516q3.481,0,6.962,0h.887m20.939,0h7.725c1.118,0,1.6-.481,1.605-1.59,0-1.868.006-3.737,0-5.605,0-.582-.026-1.166-.079-1.746a3.834,3.834,0,0,0-3.344-3.253c-1.631-.069-3.266-.057-4.9-.072a6.867,6.867,0,0,0-.7.068c-.236.022-.345.109-.344.385.013,3.78.011,7.561.014,11.341,0,.142.012.285.021.471" transform="translate(0 -169.534)"/>
          <path id="Path_79070" data-name="Path 79070" d="M174.839,0a7.81,7.81,0,1,1-7.819,7.686A7.794,7.794,0,0,1,174.839,0m-.013,2.644a5.166,5.166,0,1,0,5.165,5.145,5.18,5.18,0,0,0-5.165-5.145" transform="translate(-152.38 0)"/>
          <path id="Path_79071" data-name="Path 79071" d="M39.482,82.754a5.849,5.849,0,1,1-6.117,5.514,5.83,5.83,0,0,1,6.117-5.514m-3.468,5.83A3.193,3.193,0,1,0,39.22,85.4a3.2,3.2,0,0,0-3.207,3.181" transform="translate(-30.43 -75.493)"/>
          <path id="Path_79072" data-name="Path 79072" d="M351,94.313a5.855,5.855,0,1,1,5.847-5.864A5.887,5.887,0,0,1,351,94.313m3.176-5.851a3.193,3.193,0,1,0-6.386.021,3.193,3.193,0,0,0,6.386-.021" transform="translate(-314.878 -75.363)"/>
        </g>
      </g>
      <text id="_" data-name="+" transform="translate(648 446.995)" fill="#e1003e" font-size="14" font-family="Avenir-Heavy, Avenir" font-weight="800"><tspan x="0" y="0">+</tspan></text>
    </g>
  </g>
</svg>
