<svg xmlns="http://www.w3.org/2000/svg" xmlns:xlink="http://www.w3.org/1999/xlink" width="92" height="92" viewBox="0 0 92 92">
  <defs>
    <clipPath id="clip-path">
      <rect id="Rectangle_6023" data-name="Rectangle 6023" width="44.574" height="44.573" fill="#6e0d88"/>
    </clipPath>
  </defs>
  <g id="Group_15486" data-name="Group 15486" transform="translate(-496 -170)">
    <g id="Ellipse_1709" data-name="Ellipse 1709" transform="translate(496 170)" fill="#e9ecfd" stroke="#fff" stroke-width="2">
      <circle cx="46" cy="46" r="46" stroke="none"/>
      <circle cx="46" cy="46" r="45" fill="none"/>
    </g>
    <g id="Group_15487" data-name="Group 15487" transform="translate(520 193)">
      <g id="Group_15487-2" data-name="Group 15487" clip-path="url(#clip-path)">
        <path id="Path_79099" data-name="Path 79099" d="M22.254,90.6q-9.615,0-19.229,0a2.8,2.8,0,0,1-2.9-2.072,3.806,3.806,0,0,1-.105-.977c-.005-8.5.012-17-.017-25.493A2.925,2.925,0,0,1,3.028,59.02c4.461.051,8.923.017,13.385.018a4.01,4.01,0,0,1,.424.012.915.915,0,0,1,.2,1.78,2.567,2.567,0,0,1-.7.077q-6.575.006-13.149,0c-1.053,0-1.3.246-1.3,1.3q0,12.605,0,25.211c0,1.035.276,1.309,1.315,1.309H41.38c1.041,0,1.317-.273,1.317-1.307q0-7.469,0-14.938a3.541,3.541,0,0,1,.042-.656.919.919,0,0,1,1.808.063,2.978,2.978,0,0,1,.023.423q0,7.634,0,15.268A2.754,2.754,0,0,1,42.6,90.454a4.217,4.217,0,0,1-1.16.145q-9.591.013-19.182.006" transform="translate(-0.001 -53.447)" fill="#6e0d88"/>
        <path id="Path_79100" data-name="Path 79100" d="M208.568,24.2a12.837,12.837,0,0,1-1.588-.126,1.733,1.733,0,0,1-1.37-1.34c-.1-.362-.155-.735-.235-1.1a.755.755,0,0,0-1.289-.515c-.273.184-.543.373-.824.545a1.876,1.876,0,0,1-2.382-.217q-.859-.805-1.666-1.665a1.9,1.9,0,0,1-.219-2.345c.181-.294.379-.577.57-.864.4-.6.172-1.127-.548-1.276-.291-.061-.583-.118-.876-.175a1.883,1.883,0,0,1-1.612-1.771,23.2,23.2,0,0,1,0-2.5,1.837,1.837,0,0,1,1.539-1.774c.3-.073.614-.122.921-.185.779-.161.991-.674.551-1.331-.183-.274-.373-.544-.546-.824a1.9,1.9,0,0,1,.224-2.344c.552-.58,1.119-1.148,1.7-1.7a1.881,1.881,0,0,1,2.267-.234c.31.184.6.394.905.593a.754.754,0,0,0,1.282-.512c.073-.337.131-.677.214-1.011a1.842,1.842,0,0,1,1.8-1.505c.8-.034,1.6-.035,2.4,0a1.885,1.885,0,0,1,1.831,1.6c.061.291.115.584.176.875.155.745.672.962,1.3.546.274-.183.544-.373.824-.547a1.886,1.886,0,0,1,2.347.2c.587.544,1.153,1.113,1.7,1.7a1.863,1.863,0,0,1,.211,2.343c-.172.281-.362.551-.544.825-.423.637-.214,1.157.53,1.316.322.069.647.123.966.2a1.9,1.9,0,0,1,1.54,1.883c.018.738.016,1.477,0,2.214a1.953,1.953,0,0,1-1.61,1.933q-.436.1-.874.181c-.774.154-.988.648-.558,1.293.2.3.412.594.593.906a1.859,1.859,0,0,1-.244,2.265c-.548.583-1.118,1.148-1.7,1.7a1.883,1.883,0,0,1-2.305.241c-.3-.177-.578-.378-.865-.569-.644-.427-1.15-.221-1.306.532-.06.291-.116.584-.177.875a1.956,1.956,0,0,1-1.966,1.626c-.361.005-.723,0-1.084,0,0,.012,0,.024,0,.036m8.038-18.481-1.7-1.592c-.493.317-1.037.659-1.573,1.013a1.09,1.09,0,0,1-1.156.064,11.414,11.414,0,0,0-1.254-.528,1.093,1.093,0,0,1-.8-.938c-.1-.6-.242-1.192-.376-1.84-.7,0-1.374-.014-2.047.014-.109,0-.273.176-.306.3-.147.544-.263,1.1-.375,1.649a1.018,1.018,0,0,1-.713.8,9.3,9.3,0,0,0-1.216.5,1.193,1.193,0,0,1-1.4-.1c-.476-.347-.98-.657-1.456-.973L200.617,5.75c.323.5.657,1.03,1.005,1.551a1.11,1.11,0,0,1,.077,1.2,11.635,11.635,0,0,0-.523,1.255,1.056,1.056,0,0,1-.854.774c-.626.117-1.248.256-1.9.391v2.305c.627.136,1.251.278,1.878.406a1.081,1.081,0,0,1,.867.766,9.052,9.052,0,0,0,.5,1.216,1.151,1.151,0,0,1-.086,1.317c-.352.493-.674,1.007-1.032,1.547l1.724,1.56c.473-.3,1.028-.653,1.575-1.014a1.041,1.041,0,0,1,1.109-.075c.437.209.888.391,1.341.562a1.041,1.041,0,0,1,.73.837c.115.629.258,1.253.395,1.909h2.3c.137-.634.281-1.272.413-1.913a1.064,1.064,0,0,1,.737-.836c.455-.166.909-.343,1.345-.553a1.023,1.023,0,0,1,1.107.071c.454.309.906.621,1.375.907a.426.426,0,0,0,.393,0c.481-.492.937-1.009,1.432-1.554-.286-.446-.612-.981-.965-1.5a1.1,1.1,0,0,1-.083-1.231,10.3,10.3,0,0,0,.52-1.256,1.087,1.087,0,0,1,.915-.772c.494-.081.988-.175,1.474-.3.135-.033.339-.178.343-.279.03-.7.016-1.406.016-2.133-.623-.131-1.246-.281-1.876-.388A1.057,1.057,0,0,1,216,9.773a13.814,13.814,0,0,0-.533-1.3,1.047,1.047,0,0,1,.071-1.149c.354-.516.7-1.041,1.07-1.605" transform="translate(-177.939 0)" fill="#6e0d88"/>
        <path id="Path_79101" data-name="Path 79101" d="M150.759,304.842q5.934,0,11.869,0a1.048,1.048,0,0,1,.954.392.916.916,0,0,1-.436,1.4,2.157,2.157,0,0,1-.693.083q-11.7.006-23.408,0a2.264,2.264,0,0,1-.693-.087.884.884,0,0,1-.586-.965.909.909,0,0,1,.842-.809c.156-.012.314-.007.471-.007h11.68" transform="translate(-124.749 -276.052)" fill="#e1003e"/>
        <path id="Path_79102" data-name="Path 79102" d="M150.272,416.515c0-.919,0-1.764,0-2.609,0-.667.349-1.082.9-1.1a.986.986,0,0,1,.968,1.1c.008.845,0,1.69,0,2.571h7.385c0-.773,0-1.552,0-2.331a2.633,2.633,0,0,1,.06-.651.917.917,0,0,1,1-.681.9.9,0,0,1,.807.9c.015.908,0,1.816,0,2.754a3.883,3.883,0,0,0,.392.046c.44.005.88-.007,1.319.006.663.019,1.082.382,1.093.926.011.559-.42.948-1.11.95-2.4.009-4.805,0-7.208,0q-3.51,0-7.019,0a4,4,0,0,1-.61-.032.914.914,0,0,1-.024-1.807,3.2,3.2,0,0,1,.562-.041c.47-.005.939,0,1.477,0" transform="translate(-133.545 -373.827)" fill="#6e0d88"/>
        <path id="Path_79103" data-name="Path 79103" d="M61.571,304.861c.454,0,.909-.008,1.363,0a.9.9,0,0,1,.949.842.88.88,0,0,1-.792.994c-1.016.046-2.037.047-3.052,0a.861.861,0,0,1-.78-1,.891.891,0,0,1,.948-.838c.454-.009.909,0,1.363,0" transform="translate(-53.661 -276.071)" fill="#e1003e"/>
        <path id="Path_79104" data-name="Path 79104" d="M271.277,68.692c.44.057.741.07,1.028.139a.9.9,0,0,1,.745,1.072.929.929,0,0,1-1.025.756,7.626,7.626,0,0,0-1.769.08,3.613,3.613,0,0,0-2.7,4.07,3.683,3.683,0,0,0,7.285.09,4.806,4.806,0,0,0,0-1.21c-.068-.682.211-1.169.768-1.248.595-.084.98.3,1.1,1a5.575,5.575,0,1,1-6.746-4.579,12.3,12.3,0,0,1,1.3-.171" transform="translate(-240.569 -62.205)" fill="#6e0d88"/>
      </g>
    </g>
  </g>
</svg>
