<svg xmlns="http://www.w3.org/2000/svg" xmlns:xlink="http://www.w3.org/1999/xlink" width="92" height="92" viewBox="0 0 92 92">
  <defs>
    <clipPath id="clip-path">
      <rect id="Rectangle_6049" data-name="Rectangle 6049" width="47.588" height="47.589" fill="#6e0d88"/>
    </clipPath>
  </defs>
  <g id="Group_15498" data-name="Group 15498" transform="translate(-496 -170)">
    <g id="Ellipse_1709" data-name="Ellipse 1709" transform="translate(496 170)" fill="#e9ecfd" stroke="#fff" stroke-width="2">
      <circle cx="46" cy="46" r="46" stroke="none"/>
      <circle cx="46" cy="46" r="45" fill="none"/>
    </g>
    <g id="Group_15505" data-name="Group 15505" transform="translate(519.206 193.206)">
      <g id="Group_15505-2" data-name="Group 15505" transform="translate(-1 -1)" clip-path="url(#clip-path)">
        <path id="Path_79135" data-name="Path 79135" d="M47.588,13.241V38.187c-.02.025-.049.046-.059.074a3.068,3.068,0,0,1-3.335,2.419H28.63l.381,1.539c.6,0,1.194-.009,1.783,0A2.27,2.27,0,0,1,33,44.432c.012.767.008,1.535,0,2.3a.754.754,0,0,1-.856.852q-8.345,0-16.691,0c-.6,0-.864-.279-.868-.888,0-.7,0-1.407,0-2.11a2.277,2.277,0,0,1,2.389-2.369c.538,0,1.077,0,1.608,0l.371-1.539H3.26A3.051,3.051,0,0,1,0,37.414q0-11.7,0-23.406a3.051,3.051,0,0,1,3.264-3.261h20.9A7.1,7.1,0,0,1,25.89,3.431,10.548,10.548,0,0,1,30.959.487C31.725.283,32.514.16,33.292,0h2.495a2.608,2.608,0,0,0,.366.093A11.8,11.8,0,0,1,40.39,1.359a8.679,8.679,0,0,1,4.633,5.225,6.717,6.717,0,0,1-.109,4.1,12.824,12.824,0,0,1,1.318.6,3.319,3.319,0,0,1,1.357,1.956M34.54,17.446c.263-.524.508-.936.68-1.377a1.407,1.407,0,0,1,1.268-.911,9.488,9.488,0,0,0,5-2.236,5.561,5.561,0,0,0,2.066-5.845,6.276,6.276,0,0,0-2.715-3.649,11.126,11.126,0,0,0-8.648-1.647,9.168,9.168,0,0,0-5.27,2.811,5.407,5.407,0,0,0-1.494,4.753,6.072,6.072,0,0,0,2.161,3.576,9.719,9.719,0,0,0,5,2.236,1.407,1.407,0,0,1,1.272.906c.173.441.419.854.683,1.382M1.554,36.864c-.187,1.532.508,2.306,2.115,2.3q20.286-.047,40.573-.018a1.673,1.673,0,0,0,1.735-2.284Zm44.49-13.856c0-3.133.018-6.23-.013-9.327a1.487,1.487,0,0,0-1.362-1.391.776.776,0,0,0-.815.331,10.687,10.687,0,0,1-6.874,4.074.779.779,0,0,0-.487.347c-.411.756-.788,1.532-1.165,2.307-.163.336-.361.6-.776.608-.44.007-.643-.278-.813-.627q-.555-1.14-1.134-2.268a4.589,4.589,0,0,0-.344-.479v6.428ZM15.329,24.6H1.571v10.69h2.09a12.687,12.687,0,0,1,.825-2.28,13.07,13.07,0,0,1,1.593-1.844c-1.019-1.637-.953-3.1.252-4.244a3.089,3.089,0,0,1,3.922-.247A2.972,2.972,0,0,1,11.4,28.33a3.188,3.188,0,0,1-.695,2.949,4.75,4.75,0,0,1,2.367,4.006h2.254ZM30.668,35.289V24.6H16.91V35.28h2.26a4.732,4.732,0,0,1,2.348-4.006,3.094,3.094,0,0,1,4.212-4.51c1.333,1.074,1.463,2.632.358,4.524a4.734,4.734,0,0,1,2.331,4Zm1.6-10.718V35.278h2.258a4.736,4.736,0,0,1,2.351-4.007,3.131,3.131,0,0,1,.174-4.369,3.1,3.1,0,0,1,4-.162,2.979,2.979,0,0,1,1.128,1.891,3.065,3.065,0,0,1-.678,2.526,12.7,12.7,0,0,1,1.584,1.825,13.165,13.165,0,0,1,.841,2.3h2.092V24.571ZM6.158,19.008c-1.108-1.779-1.03-3.263.206-4.4a3.088,3.088,0,0,1,3.924-.19,2.981,2.981,0,0,1,1.146,1.77,3.078,3.078,0,0,1-.632,2.691,12.769,12.769,0,0,1,1.59,1.841,12.829,12.829,0,0,1,.822,2.275h2.114V12.28h-.49q-5.753,0-11.506,0a1.591,1.591,0,0,0-1.8,1.8q0,4.219,0,8.438V23H3.816a4.719,4.719,0,0,1,2.343-4M16.917,12.28V22.992h2.256a4.732,4.732,0,0,1,2.351-4,3.131,3.131,0,0,1,.145-4.341,3.1,3.1,0,0,1,4-.211,2.981,2.981,0,0,1,1.139,1.83,3.083,3.083,0,0,1-.655,2.612,12.724,12.724,0,0,1,1.586,1.83,13.033,13.033,0,0,1,.833,2.288h2.116V16.344l-.418-.136A9.435,9.435,0,0,1,25.6,13.079a1.951,1.951,0,0,0-1.8-.817c-2.283.05-4.568.018-6.887.018m-.8,33.743H31.471c0-.416,0-.8,0-1.18,0-.838-.251-1.091-1.082-1.091H22.618q-2.758,0-5.516,0c-.7,0-.979.283-.985.994,0,.414,0,.828,0,1.277M11.495,23.006a3.082,3.082,0,0,0-3.143-3.047,3.042,3.042,0,0,0-2.945,3.047Zm15.348,0a3.048,3.048,0,0,0-6.1,0ZM11.492,35.285a3.048,3.048,0,0,0-6.1,0Zm15.355,0A3.084,3.084,0,0,0,23.7,32.241a3.038,3.038,0,0,0-2.939,3.048Zm15.344,0a3.064,3.064,0,0,0-3.21-3.04,3,3,0,0,0-2.849,3.04ZM27.033,40.713h-6.48L20.2,42.2h7.2l-.358-1.487M9.974,16.883A1.533,1.533,0,1,0,8.445,18.42a1.57,1.57,0,0,0,1.529-1.537M23.781,18.42a1.533,1.533,0,1,0-1.521-1.545,1.573,1.573,0,0,0,1.521,1.545M9.974,29.165A1.533,1.533,0,1,0,8.444,30.7a1.57,1.57,0,0,0,1.53-1.536m15.352-.006A1.533,1.533,0,1,0,23.8,30.7a1.571,1.571,0,0,0,1.525-1.542m13.83-1.525a1.533,1.533,0,1,0,1.521,1.544,1.572,1.572,0,0,0-1.521-1.544" transform="translate(0)" fill="#6e0d88"/>
        <rect id="Rectangle_6045" data-name="Rectangle 6045" width="1.462" height="1.487" transform="translate(38.419 7.713)" fill="#e1003e"/>
        <rect id="Rectangle_6046" data-name="Rectangle 6046" width="1.47" height="1.478" transform="translate(35.344 7.709)" fill="#e1003e"/>
        <rect id="Rectangle_6047" data-name="Rectangle 6047" width="1.474" height="1.472" transform="translate(32.263 7.715)" fill="#e1003e"/>
        <rect id="Rectangle_6048" data-name="Rectangle 6048" width="1.455" height="1.489" transform="translate(29.205 7.71)" fill="#e1003e"/>
      </g>
    </g>
  </g>
</svg>
