<svg xmlns="http://www.w3.org/2000/svg" xmlns:xlink="http://www.w3.org/1999/xlink" width="92" height="92" viewBox="0 0 92 92">
  <defs>
    <clipPath id="clip-path">
      <rect id="Rectangle_6050" data-name="Rectangle 6050" width="46" height="45.965" fill="#6e0d88"/>
    </clipPath>
  </defs>
  <g id="Group_15499" data-name="Group 15499" transform="translate(-496 -170)">
    <g id="Ellipse_1709" data-name="Ellipse 1709" transform="translate(496 170)" fill="#e9ecfd" stroke="#fff" stroke-width="2">
      <circle cx="46" cy="46" r="46" stroke="none"/>
      <circle cx="46" cy="46" r="45" fill="none"/>
    </g>
    <g id="Group_15506" data-name="Group 15506" transform="translate(519 193.003)">
      <g id="Group_15506-2" data-name="Group 15506" clip-path="url(#clip-path)">
        <path id="Path_79136" data-name="Path 79136" d="M494.772,248.919c-.058.41-.1.824-.18,1.229a.692.692,0,0,1-.823.573.658.658,0,0,1-.617-.7q.033-1.34.123-2.677a.721.721,0,0,1,.587-.7c.448-.106.688.169.911.481Z" transform="translate(-448.772 -224.425)" fill="#6e0d88"/>
        <path id="Path_79137" data-name="Path 79137" d="M207.473,492.662c-.63-.092-1.26-.182-1.889-.276a2.163,2.163,0,0,1-.391-.085.691.691,0,0,1-.494-.84.643.643,0,0,1,.723-.587c.905.078,1.814.156,2.707.313a.975.975,0,0,1,.573.589c.147.421-.191.673-.51.886Z" transform="translate(-186.264 -446.697)" fill="#6e0d88"/>
        <path id="Path_79138" data-name="Path 79138" d="M262.289,492.649a2.86,2.86,0,0,1-.5-.69.691.691,0,0,1,.6-.81c.887-.119,1.777-.218,2.669-.291a.687.687,0,0,1,.767.646c.042.45-.253.783-.786.855-.576.078-1.155.133-1.733.2a1.869,1.869,0,0,0-.293.084Z" transform="translate(-238.206 -446.684)" fill="#6e0d88"/>
        <path id="Path_79139" data-name="Path 79139" d="M135.149,184.992a1.3,1.3,0,0,0-.136-.042,1.078,1.078,0,0,0-1.265.635,4.878,4.878,0,0,1-4.424,2.506c-1.048.014-2.1,0-3.143,0h-.541c.159.559.287,1.057.446,1.546.107.328.192.643-.091.916a.778.778,0,0,1-.954.065,6.651,6.651,0,0,1-3.378-2.883,1.034,1.034,0,0,0-.39-.348,5.308,5.308,0,0,1-2.54-5.137,5.179,5.179,0,0,1,4.031-4.509c.319-.073.657-.062.975-.137a.527.527,0,0,0,.346-.289,6.282,6.282,0,0,1,6.332-4.931c2.29,0,4.58-.006,6.87,0a6.26,6.26,0,0,1,3.279,11.657,1.984,1.984,0,0,0-.793.8,8.069,8.069,0,0,1-3.868,3.143.9.9,0,0,1-.373.142c-.278-.018-.632,0-.8-.164a.872.872,0,0,1-.107-.759,6.385,6.385,0,0,0,.527-2.214m1.291,1.148a4.823,4.823,0,0,0,2.256-2.179,1.735,1.735,0,0,1,.93-.958,4.859,4.859,0,0,0-1.709-9.174c-2.613-.113-5.235-.1-7.851-.05a4.717,4.717,0,0,0-4.016,2.336,4.781,4.781,0,0,0-.421,4.3.678.678,0,1,1-1.271.423,8.959,8.959,0,0,1-.337-1.433c-.044-.34-.166-.408-.484-.392a3.8,3.8,0,0,0-3.376,3,3.874,3.874,0,0,0,1.852,4.213,2.013,2.013,0,0,1,.955,1.006,3.25,3.25,0,0,0,1.412,1.443c-.027-.273-.054-.465-.064-.657-.057-1.068.163-1.294,1.23-1.3,1.436-.008,2.874.022,4.307-.052a3.453,3.453,0,0,0,2.718-1.726c-.771,0-1.458.055-2.133-.014a19,19,0,0,1-2.455-.432.64.64,0,0,1-.488-.863.654.654,0,0,1,.9-.41,7.451,7.451,0,0,0,2.652.335c1.481-.011,2.963,0,4.444,0,.78,0,1,.175,1.033.958a15.733,15.733,0,0,1-.089,1.626" transform="translate(-108.004 -156.872)" fill="#e1003e"/>
        <path id="Path_79140" data-name="Path 79140" d="M377.877,342.953a4.112,4.112,0,0,0-1.359,2.78c-.037.537-.011,1.077-.012,1.616,0,.676,0,.677.66.677h7.769c.075,0,.15,0,.224,0,.325.021.467-.12.442-.452-.073-.966-.123-1.933-.209-2.9-.04-.451.113-.77.5-.867a.67.67,0,0,1,.81.528,9.883,9.883,0,0,1,.21,3.827,1.506,1.506,0,0,1-1.556,1.235c-2.874.015-5.748.02-8.622,0a1.513,1.513,0,0,1-1.572-1.519,19.232,19.232,0,0,1,.093-2.864,4.809,4.809,0,0,1,1.68-3.033.575.575,0,0,0,.2-.624,3.937,3.937,0,1,1,.9,1.851,1.847,1.847,0,0,1-.16-.256m3.128-4.95a2.592,2.592,0,1,0,2.607,2.587A2.611,2.611,0,0,0,381.005,338" transform="translate(-341.386 -306.332)" fill="#6e0d88"/>
        <path id="Path_79141" data-name="Path 79141" d="M7.307,343.059A4.052,4.052,0,0,0,6,345.837c-.035.567.015,1.139-.019,1.706-.025.422.136.546.54.544,2.41-.012,4.82-.006,7.23-.006.3,0,.6-.01.9,0,.33.013.46-.13.436-.457-.07-.951-.114-1.9-.2-2.852-.045-.492.1-.813.5-.91.376-.092.711.152.838.618a10.566,10.566,0,0,1,.19,3.654,1.569,1.569,0,0,1-1.71,1.325c-2.021.007-4.041,0-6.062,0-.763,0-1.527.008-2.29,0a1.58,1.58,0,0,1-1.713-1.622A9.133,9.133,0,0,1,5,344.074,6.019,6.019,0,0,1,6.4,342.017a.745.745,0,0,0,.2-.564,3.921,3.921,0,0,1,3.052-4.664,3.715,3.715,0,0,1,3.969,1.473,3.691,3.691,0,0,1,.41,4.1,3.92,3.92,0,0,1-6.55.865c-.048-.053-.105-.1-.18-.167m5.785-2.412a2.6,2.6,0,1,0-2.6,2.594,2.612,2.612,0,0,0,2.6-2.594" transform="translate(-4.188 -306.385)" fill="#6e0d88"/>
        <path id="Path_79142" data-name="Path 79142" d="M7.3,38.407a4,4,0,0,0-1.314,2.684c-.055.639,0,1.286-.021,1.929-.008.321.144.423.433.423q4.107,0,8.213,0c.312,0,.478-.1.453-.447-.071-.965-.117-1.932-.2-2.9-.044-.495.109-.807.521-.887a.7.7,0,0,1,.811.6,10.622,10.622,0,0,1,.194,3.7,1.5,1.5,0,0,1-1.5,1.29q-4.353.025-8.707,0A1.515,1.515,0,0,1,4.621,43.31,9.108,9.108,0,0,1,5,39.372a5.183,5.183,0,0,1,1.409-2,.537.537,0,0,0,.2-.58,3.784,3.784,0,0,1,1.652-4.063,3.7,3.7,0,0,1,4.266-.1,3.94,3.94,0,0,1-.656,7.053,3.816,3.816,0,0,1-4.278-.968c-.094-.092-.18-.192-.289-.309M10.483,33.4a2.6,2.6,0,1,0,2.588,2.611A2.631,2.631,0,0,0,10.483,33.4" transform="translate(-4.167 -29.125)" fill="#6e0d88"/>
        <path id="Path_79143" data-name="Path 79143" d="M377.515,38.822a4.1,4.1,0,0,0-1.315,2.809c-.028.582.007,1.167-.015,1.75-.013.344.108.49.459.49q4.084-.009,8.168,0c.337,0,.5-.117.473-.475-.075-.965-.124-1.932-.211-2.9-.042-.46.111-.766.507-.855a.665.665,0,0,1,.807.53,10.088,10.088,0,0,1,.2,3.826,1.479,1.479,0,0,1-1.471,1.22q-4.376.027-8.752,0a1.5,1.5,0,0,1-1.524-1.468c-.066-1.581-.2-3.19.709-4.617.309-.487.734-.9,1.08-1.364a.8.8,0,0,0,.179-.531,3.96,3.96,0,1,1,1.008,1.913c-.092-.1-.179-.2-.306-.334m3.194-5A2.6,2.6,0,1,0,383.3,36.44a2.626,2.626,0,0,0-2.587-2.614" transform="translate(-341.07 -29.55)" fill="#6e0d88"/>
        <path id="Path_79144" data-name="Path 79144" d="M348.67,21.59c.008.654-.516,1.067-.98.857-.839-.38-1.662-.8-2.473-1.238a.733.733,0,0,1,.645-1.31c.823.379,1.638.781,2.433,1.216.194.106.3.374.375.475" transform="translate(-313.823 -18.052)" fill="#6e0d88"/>
        <path id="Path_79145" data-name="Path 79145" d="M290.644,3.019c.9.228,1.8.436,2.683.694a.683.683,0,0,1,.474.857.7.7,0,0,1-.843.559c-.876-.178-1.747-.388-2.611-.615a.725.725,0,0,1-.533-.824.857.857,0,0,1,.831-.671" transform="translate(-263.722 -2.747)" fill="#6e0d88"/>
        <path id="Path_79146" data-name="Path 79146" d="M234.685,1.519c-.4,0-.806.009-1.208,0a.727.727,0,0,1-.791-.683.705.705,0,0,1,.717-.8c.863-.041,1.73-.048,2.594-.014a.719.719,0,0,1,.743.822c-.031.425-.325.662-.846.669-.4.006-.806,0-1.209,0v0" transform="translate(-211.745 0)" fill="#6e0d88"/>
        <path id="Path_79147" data-name="Path 79147" d="M150.412,474.172a2.41,2.41,0,0,1,.293.068c.786.283,1.574.558,2.353.859a.739.739,0,0,1,.477.976.747.747,0,0,1-.995.425q-1.186-.4-2.356-.853a.725.725,0,0,1-.493-.894.744.744,0,0,1,.721-.582" transform="translate(-136.2 -431.501)" fill="#6e0d88"/>
        <path id="Path_79148" data-name="Path 79148" d="M.018,248.81c0-.239-.017-.48,0-.717a.7.7,0,0,1,.655-.682.686.686,0,0,1,.784.521,1.4,1.4,0,0,1,.064.35c.04.73.074,1.461.111,2.191.031.61-.225.986-.689,1.013-.438.025-.751-.3-.812-.89s-.092-1.19-.136-1.786H.018" transform="translate(0 -225.141)" fill="#6e0d88"/>
        <path id="Path_79149" data-name="Path 79149" d="M1.421,193.526c.162-.864.3-1.732.493-2.591a.728.728,0,0,1,.865-.595.719.719,0,0,1,.583.869c-.121.855-.275,1.707-.442,2.554a.708.708,0,0,1-.813.6.812.812,0,0,1-.686-.838" transform="translate(-1.293 -173.199)" fill="#6e0d88"/>
        <path id="Path_79150" data-name="Path 79150" d="M6.12,305.143a.837.837,0,0,1,.644-.78.654.654,0,0,1,.835.428c.294.876.557,1.764.794,2.658a.654.654,0,0,1-.469.809.639.639,0,0,1-.88-.318c-.345-.918-.62-1.862-.923-2.8" transform="translate(-5.569 -276.949)" fill="#6e0d88"/>
        <path id="Path_79151" data-name="Path 79151" d="M490,192.669c-.023.513-.255.83-.678.878a.733.733,0,0,1-.841-.681c-.154-.79-.293-1.583-.413-2.379a.75.75,0,1,1,1.463-.278c.176.815.315,1.639.469,2.459" transform="translate(-444.133 -172.457)" fill="#6e0d88"/>
        <path id="Path_79152" data-name="Path 79152" d="M126.314,18.475a3.739,3.739,0,0,1,.688.667.582.582,0,0,1-.247.818c-.821.454-1.657.886-2.509,1.28a.659.659,0,0,1-.859-.294c-.185-.295-.217-.69.059-.861.905-.562,1.857-1.05,2.868-1.61" transform="translate(-112.153 -16.812)" fill="#6e0d88"/>
        <path id="Path_79153" data-name="Path 79153" d="M318.953,476.581c-.241-.241-.524-.414-.635-.663a.612.612,0,0,1,.316-.84c.9-.363,1.808-.7,2.731-.993a.634.634,0,0,1,.754.431.613.613,0,0,1-.192.84c-.944.435-1.92.8-2.974,1.225" transform="translate(-289.618 -431.399)" fill="#6e0d88"/>
        <path id="Path_79154" data-name="Path 79154" d="M482.018,304.919c-.3.934-.578,1.878-.916,2.8a.729.729,0,0,1-1.356-.473q.354-1.34.786-2.659a.663.663,0,0,1,.833-.438.834.834,0,0,1,.652.772" transform="translate(-436.551 -276.756)" fill="#6e0d88"/>
        <path id="Path_79155" data-name="Path 79155" d="M176.882,5.789a.732.732,0,0,1-.812-.584.631.631,0,0,1,.4-.806c.93-.265,1.874-.491,2.822-.678a.649.649,0,0,1,.744.572.647.647,0,0,1-.438.829c-.917.259-1.852.459-2.717.667" transform="translate(-160.205 -3.374)" fill="#6e0d88"/>
      </g>
    </g>
  </g>
</svg>
