<svg xmlns="http://www.w3.org/2000/svg" xmlns:xlink="http://www.w3.org/1999/xlink" width="11" height="15" viewBox="0 0 11 15">
  <defs>
    <clipPath id="clip-path">
      <rect id="Rectangle_5799" data-name="Rectangle 5799" width="11" height="15" transform="translate(0.358 -0.148)" fill="#e1003e"/>
    </clipPath>
  </defs>
  <g id="Group_15282" data-name="Group 15282" transform="translate(-0.076 0.648)">
    <g id="Group_15282-2" data-name="Group 15282" transform="translate(-0.281 -0.5)" clip-path="url(#clip-path)">
      <path id="Path_78897" data-name="Path 78897" d="M0,3.233V2.839c.008-.011.021-.021.023-.033A1.309,1.309,0,0,1,1.392,1.746c.486.008.973,0,1.459,0H3.01c0-.145,0-.27,0-.4A1.343,1.343,0,0,1,3.527.28,1.7,1.7,0,0,1,4.161,0H7.534a.242.242,0,0,0,.051.022,1.317,1.317,0,0,1,1.08,1.2c.009.171.017.343.026.527h.157c.5,0,.993,0,1.489,0a1.277,1.277,0,0,1,1.17.643,3.2,3.2,0,0,1,.187.476v.309a.492.492,0,0,0-.027.077,1.237,1.237,0,0,1-.79.978.188.188,0,0,0-.143.208q.005,4,0,8.006c0,.075,0,.15,0,.225A1.822,1.822,0,0,1,10,14.079a2.014,2.014,0,0,1-.755.315H2.418a3.657,3.657,0,0,1-.593-.23,1.75,1.75,0,0,1-.867-1.61q0-4.059,0-8.118c0-.109-.024-.164-.136-.2a1.185,1.185,0,0,1-.53-.377A1.656,1.656,0,0,1,0,3.233m1.63,1.1V4.5q0,3.914,0,7.828c0,.08,0,.159,0,.239A1.072,1.072,0,0,0,2.7,13.719q3.148.006,6.3,0a.992.992,0,0,0,.7-.268,1.245,1.245,0,0,0,.361-.968q0-4,0-8V4.328Zm4.218-.694H9.234c.4,0,.806,0,1.208-.005a.577.577,0,0,0,.552-.5.591.591,0,0,0-.429-.668,1.272,1.272,0,0,0-.307-.026q-4.412,0-8.824,0c-.07,0-.141,0-.21.01a.591.591,0,0,0-.54.566.6.6,0,0,0,.458.611,1.219,1.219,0,0,0,.265.016h4.44m-2.16-1.9H7.995c0-.148.007-.284,0-.419A.644.644,0,0,0,7.319.675c-.173,0-.347,0-.52,0-.805,0-1.611,0-2.416,0a.651.651,0,0,0-.694.641c-.01.135,0,.271,0,.419" transform="translate(0.012 0.021)" fill="#e1003e"/>
      <path id="Path_78898" data-name="Path 78898" d="M267.165,189q0,1.532,0,3.063a.951.951,0,0,1-.022.208.329.329,0,0,1-.648-.03,1.2,1.2,0,0,1-.013-.181q0-3.049,0-6.1a1.194,1.194,0,0,1,.017-.209.33.33,0,0,1,.642-.023.959.959,0,0,1,.025.222q0,1.525,0,3.049" transform="translate(-258.977 -180.253)" fill="#e1003e"/>
      <path id="Path_78899" data-name="Path 78899" d="M195.874,189.114q0-1.545,0-3.091a.388.388,0,0,1,.146-.359.329.329,0,0,1,.5.163.737.737,0,0,1,.026.221q0,3.077,0,6.154a.777.777,0,0,1-.023.208.321.321,0,0,1-.342.233.329.329,0,0,1-.3-.283,1.312,1.312,0,0,1-.007-.182q0-1.531,0-3.063" transform="translate(-190.354 -180.365)" fill="#e1003e"/>
      <path id="Path_78900" data-name="Path 78900" d="M125.732,189.22c0,1.03,0,2.061,0,3.091a.646.646,0,0,1-.056.268.289.289,0,0,1-.318.156.3.3,0,0,1-.274-.227.687.687,0,0,1-.025-.193q0-3.1,0-6.2c0-.248.1-.383.289-.413a.325.325,0,0,1,.381.282,1.31,1.31,0,0,1,.006.168q0,1.531,0,3.063" transform="translate(-121.528 -180.46)" fill="#e1003e"/>
    </g>
  </g>
</svg>
