<svg id="Group_15280" data-name="Group 15280" xmlns="http://www.w3.org/2000/svg" xmlns:xlink="http://www.w3.org/1999/xlink" width="14.376" height="14.352" viewBox="0 0 14.376 14.352">
  <defs>
    <clipPath id="clip-path">
      <rect id="Rectangle_5797" data-name="Rectangle 5797" width="14.376" height="14.352" fill="#6e0d88"/>
    </clipPath>
  </defs>
  <g id="Group_15279" data-name="Group 15279" clip-path="url(#clip-path)">
    <path id="Path_78895" data-name="Path 78895" d="M148.578,2.257c-.024.09-.046.18-.073.269a1.678,1.678,0,0,1-.433.7q-3.145,3.151-6.292,6.3a.681.681,0,0,1-.283.167q-1.46.415-2.924.814a.359.359,0,0,1-.468-.472c.266-.973.532-1.946.806-2.917a.712.712,0,0,1,.173-.3q3.135-3.152,6.277-6.3a1.608,1.608,0,0,1,2.372,0l.02.02a2.277,2.277,0,0,1,.824,1.265Zm-7.1,6.509,5.2-5.208L145.042,1.92l-5.2,5.208,1.635,1.638m4.068-7.437,1.7,1.7c.134-.141.289-.285.422-.446a.864.864,0,0,0,0-1.088,4.912,4.912,0,0,0-.574-.574.779.779,0,0,0-.928-.1,4.53,4.53,0,0,0-.616.5m-6.592,8.32,1.815-.5-1.313-1.316-.5,1.821" transform="translate(-134.202 0)" fill="#6e0d88"/>
    <path id="Path_78896" data-name="Path 78896" d="M1.774,62.561c-.105-.017-.211-.03-.315-.051A1.78,1.78,0,0,1,.007,60.744c0-3.089.01-6.178-.007-9.267A1.827,1.827,0,0,1,1.837,49.6c1.024,0,2.049,0,3.073,0a.394.394,0,0,1,.39.221.325.325,0,0,1-.052.367.382.382,0,0,1-.322.136q-1.522,0-3.045,0a1.056,1.056,0,0,0-1.044.619,1.27,1.27,0,0,0-.105.515c-.006,3.075,0,6.15-.008,9.224a1.107,1.107,0,0,0,1.165,1.143c1.693,0,3.386,0,5.079,0h4.757a1.187,1.187,0,0,0,.763-.228,1.127,1.127,0,0,0,.425-.949c0-1,0-2.006,0-3.009a.4.4,0,0,1,.17-.376.354.354,0,0,1,.537.225.825.825,0,0,1,.011.154c0,1.017,0,2.034,0,3.051a1.773,1.773,0,0,1-1.232,1.755,4.544,4.544,0,0,1-.545.111Z" transform="translate(0 -48.209)" fill="#6e0d88"/>
  </g>
</svg>
