<svg xmlns="http://www.w3.org/2000/svg" xmlns:xlink="http://www.w3.org/1999/xlink" width="92" height="92" viewBox="0 0 92 92">
  <defs>
    <clipPath id="clip-path">
      <rect id="Rectangle_6019" data-name="Rectangle 6019" width="48.268" height="45.59" fill="#6e0d88"/>
    </clipPath>
  </defs>
  <g id="Group_15483" data-name="Group 15483" transform="translate(-496 -170)">
    <g id="Ellipse_1709" data-name="Ellipse 1709" transform="translate(496 170)" fill="#e9ecfd" stroke="#fff" stroke-width="2">
      <circle cx="46" cy="46" r="46" stroke="none"/>
      <circle cx="46" cy="46" r="45" fill="none"/>
    </g>
    <g id="Group_15482" data-name="Group 15482" transform="translate(518 191.448)">
      <g id="Group_15481" data-name="Group 15481" transform="translate(0)" clip-path="url(#clip-path)">
        <path id="Path_79092" data-name="Path 79092" d="M0,164.386c.063-.224.129-.446.188-.671a5.359,5.359,0,0,1,5.58-3.907,5.29,5.29,0,0,1,4.878,5.089c.041,2.1.015,4.209.019,6.313,0,.168,0,.336,0,.555.241,0,.426,0,.61,0,1.585.022,3.172,0,4.754.08a3.59,3.59,0,0,1,3.192,3.248c.037.658.037,1.318.038,1.977q0,5.819,0,11.638c0,1.106-.462,1.563-1.575,1.564q-2.144,0-4.288,0c-1.21,0-1.654-.438-1.655-1.633q0-4.288,0-8.575v-.6H10.617q-2.662,0-5.325,0A5.139,5.139,0,0,1,.083,175.2.676.676,0,0,0,0,175.038V164.386m16.79,23.371v-.525c0-3.8-.023-7.6.016-11.4a1.425,1.425,0,0,0-1.565-1.588c-1.836.053-3.675.017-5.512.014a1.338,1.338,0,0,1-1.521-1.531c0-2.513.015-5.025-.006-7.538a2.866,2.866,0,0,0-3.9-2.718,2.916,2.916,0,0,0-1.853,2.892q-.008,4.264,0,8.527a2.816,2.816,0,0,0,3.115,3.122q3.557,0,7.115,0c1.076,0,1.54.466,1.54,1.546q0,4.311,0,8.622v.578Z" transform="translate(0 -144.685)" fill="#6e0d88"/>
        <path id="Path_79093" data-name="Path 79093" d="M162.977,0a9.79,9.79,0,0,1,1.7.476,3.814,3.814,0,0,1,2.238,3.635c.032,2.748.026,5.5,0,8.244a3.98,3.98,0,0,1-4.174,4.08c-.895.013-1.791-.019-2.685.016a1.249,1.249,0,0,0-.732.3c-.581.526-1.118,1.1-1.676,1.655a2.3,2.3,0,0,1-2.687.671,2.256,2.256,0,0,1-1.417-2.327c0-.077-.009-.155-.019-.31-.514,0-1.026.014-1.536,0a9.757,9.757,0,0,1-1.918-.126A3.888,3.888,0,0,1,147,12.286q-.043-4.051,0-8.1A3.927,3.927,0,0,1,150.045.172c.283-.077.577-.115.865-.172ZM156,16.425l.1.066c.67-.676,1.343-1.348,2.007-2.03a1.591,1.591,0,0,1,1.221-.5c1.162.011,2.324.007,3.486,0a1.458,1.458,0,0,0,1.632-1.542q.038-4.168,0-8.337a1.453,1.453,0,0,0-1.616-1.556q-5.865-.008-11.73,0a1.462,1.462,0,0,0-1.62,1.636q-.007,4.074,0,8.149a1.479,1.479,0,0,0,1.658,1.65c1.178,0,2.356-.007,3.533,0A1.259,1.259,0,0,1,156,15.3c0,.377,0,.753,0,1.13" transform="translate(-133.092)" fill="#6e0d88"/>
        <path id="Path_79094" data-name="Path 79094" d="M0,34.808a6.914,6.914,0,0,1,1.078-2.471,5.347,5.347,0,1,1-.989,4.188A1.033,1.033,0,0,0,0,36.316V34.808m5.321,3.609a2.862,2.862,0,1,0,.006-5.723,2.862,2.862,0,1,0-.006,5.723" transform="translate(0 -27.361)" fill="#6e0d88"/>
        <path id="Path_79095" data-name="Path 79095" d="M314.636,179.509v.606q0,4.287,0,8.574c0,1.172-.452,1.627-1.613,1.629q-2.191,0-4.382,0c-1.051,0-1.525-.471-1.525-1.518q0-6.5,0-13a3.66,3.66,0,0,1,2.814-3.84,5.128,5.128,0,0,1,1.255-.141c1.319-.017,2.638-.006,3.958-.006h.562c0-.22,0-.388,0-.556,0-2.12-.02-4.24.02-6.36a5.31,5.31,0,0,1,5.068-5.055,5.377,5.377,0,0,1,5.473,4.3,6.621,6.621,0,0,1,.1,1.121q.012,4.475,0,8.951a5.165,5.165,0,0,1-5.29,5.3c-1.963.005-3.926,0-5.889,0h-.554m-2.485,8.3v-.614q0-4.311,0-8.622c0-1.041.477-1.512,1.527-1.513,2.434,0,4.869.008,7.3,0a2.742,2.742,0,0,0,2.932-2.823q.038-4.5,0-9a2.875,2.875,0,1,0-5.747.079c-.01,2.481,0,4.963,0,7.444,0,1.061-.483,1.543-1.554,1.544-1.853,0-3.707,0-5.56,0a1.285,1.285,0,0,0-1.47,1.461q0,5.8,0,11.59v.454Z" transform="translate(-278.102 -144.73)" fill="#6e0d88"/>
        <path id="Path_79096" data-name="Path 79096" d="M148.226,232.409h-.616q-3.746,0-7.492,0a1.27,1.27,0,0,1-1.422-1.283,1.22,1.22,0,0,1,.938-1.148,2.722,2.722,0,0,1,.561-.053q9.259,0,18.518,0a1.521,1.521,0,0,1,1.17.389,1.218,1.218,0,0,1-.554,2.028,2.438,2.438,0,0,1-.651.07q-3.7.007-7.4,0h-.6v.614q0,9.611,0,19.223a1.472,1.472,0,0,1-.374,1.169,1.146,1.146,0,0,1-1.26.286,1.238,1.238,0,0,1-.821-1.06,4.521,4.521,0,0,1-.008-.518q0-9.541,0-19.081v-.632" transform="translate(-125.595 -208.201)" fill="#6e0d88"/>
        <path id="Path_79097" data-name="Path 79097" d="M398.056,35.457a5.333,5.333,0,1,1,5.3,5.358,5.355,5.355,0,0,1-5.3-5.358m5.332,2.864a2.861,2.861,0,1,0-2.871-2.87,2.883,2.883,0,0,0,2.871,2.87" transform="translate(-360.456 -27.265)" fill="#6e0d88"/>
        <path id="Path_79098" data-name="Path 79098" d="M213.93,58.509c1.046-1.056,2.028-2.045,3.007-3.037a1.264,1.264,0,0,1,1.186-.421,1.127,1.127,0,0,1,.943.815,1.2,1.2,0,0,1-.3,1.259q-1.428,1.435-2.866,2.86c-.345.344-.684.693-1.036,1.029a1.222,1.222,0,0,1-1.838.011c-.464-.445-.918-.9-1.363-1.367a1.23,1.23,0,1,1,1.731-1.746c.17.161.316.349.538.6" transform="translate(-191.317 -49.83)" fill="#e1003e"/>
      </g>
    </g>
  </g>
</svg>
