<svg xmlns="http://www.w3.org/2000/svg" xmlns:xlink="http://www.w3.org/1999/xlink" width="43.632" height="49.618" viewBox="0 0 43.632 49.618">
  <defs>
    <clipPath id="clip-path">
      <rect id="Rectangle_363" data-name="Rectangle 363" width="43.632" height="49.618" fill="none"/>
    </clipPath>
  </defs>
  <g id="Group_15817" data-name="Group 15817" transform="translate(0 0)">
    <path id="Path_963" data-name="Path 963" d="M58.426,0,56.6,10.643,59.715.3Z" transform="translate(-27.362 0)" fill="#060706"/>
    <path id="Path_964" data-name="Path 964" d="M69.951,5.405l-7.016,8.561,5.943-9.337Z" transform="translate(-32.99 -1.471)" fill="#060706"/>
    <path id="Path_965" data-name="Path 965" d="M65.2,20.405l12.145-9.053L76.5,10.326Z" transform="translate(-33.709 -3.282)" fill="#060706"/>
    <g id="Group_513" data-name="Group 513" transform="translate(0 0)">
      <g id="Group_512" data-name="Group 512" clip-path="url(#clip-path)">
        <path id="Path_966" data-name="Path 966" d="M54.1,43.543v2A.454.454,0,0,0,54.55,46h2.006a.454.454,0,0,0,.453-.453v-2a.455.455,0,0,0-.453-.453H54.55a.454.454,0,0,0-.453.453" transform="translate(-25.659 -20.438)" fill="#1a1818" fill-rule="evenodd"/>
        <path id="Path_967" data-name="Path 967" d="M49.656,45.548v-2a.455.455,0,0,0-.453-.453h-2a.454.454,0,0,0-.453.453v2A.454.454,0,0,0,47.2,46h2a.454.454,0,0,0,.453-.453" transform="translate(-22.172 -20.438)" fill="#1a1818" fill-rule="evenodd"/>
        <path id="Path_968" data-name="Path 968" d="M42.212,45.548v-2a.455.455,0,0,0-.453-.453h-2a.455.455,0,0,0-.453.453v2a.454.454,0,0,0,.453.453h2a.455.455,0,0,0,.453-.453" transform="translate(-18.641 -20.438)" fill="#1a1818" fill-rule="evenodd"/>
        <path id="Path_969" data-name="Path 969" d="M41.759,51.827H39.754a.454.454,0,0,0-.453.453v2a.454.454,0,0,0,.453.453h2.006a.455.455,0,0,0,.453-.453v-2a.455.455,0,0,0-.453-.453" transform="translate(-18.641 -24.582)" fill="#1a1818" fill-rule="evenodd"/>
        <path id="Path_970" data-name="Path 970" d="M34.737,54.285v-2a.455.455,0,0,0-.453-.453h-2a.454.454,0,0,0-.453.453v2a.455.455,0,0,0,.453.453h2a.455.455,0,0,0,.453-.453" transform="translate(-15.095 -24.582)" fill="#1a1818" fill-rule="evenodd"/>
        <path id="Path_971" data-name="Path 971" d="M46.745,52.28v2a.455.455,0,0,0,.453.453h2a.454.454,0,0,0,.453-.453v-2a.454.454,0,0,0-.453-.453h-2a.454.454,0,0,0-.453.453" transform="translate(-22.172 -24.582)" fill="#1a1818" fill-rule="evenodd"/>
        <path id="Path_972" data-name="Path 972" d="M54.1,52.28v2a.454.454,0,0,0,.453.453h2.006a.455.455,0,0,0,.453-.453v-2a.454.454,0,0,0-.453-.453H54.55a.454.454,0,0,0-.453.453" transform="translate(-25.659 -24.582)" fill="#1a1818" fill-rule="evenodd"/>
        <path id="Path_973" data-name="Path 973" d="M56.555,60.47H54.55a.454.454,0,0,0-.453.453v2.006a.454.454,0,0,0,.453.452h2.006a.454.454,0,0,0,.453-.452V60.923a.454.454,0,0,0-.453-.453" transform="translate(-25.659 -28.681)" fill="#1a1818" fill-rule="evenodd"/>
        <path id="Path_974" data-name="Path 974" d="M49.656,62.928V60.923a.454.454,0,0,0-.453-.453h-2a.454.454,0,0,0-.453.453v2.006a.454.454,0,0,0,.453.453h2a.454.454,0,0,0,.453-.453" transform="translate(-22.172 -28.681)" fill="#1a1818" fill-rule="evenodd"/>
        <path id="Path_975" data-name="Path 975" d="M42.212,62.928V60.923a.454.454,0,0,0-.453-.453h-2a.454.454,0,0,0-.453.453v2.006a.454.454,0,0,0,.453.453h2a.454.454,0,0,0,.453-.453" transform="translate(-18.641 -28.681)" fill="#1a1818" fill-rule="evenodd"/>
        <path id="Path_976" data-name="Path 976" d="M34.737,62.928V60.923a.454.454,0,0,0-.453-.453h-2a.454.454,0,0,0-.453.453v2.006a.454.454,0,0,0,.453.453h2a.454.454,0,0,0,.453-.453" transform="translate(-15.095 -28.681)" fill="#1a1818" fill-rule="evenodd"/>
        <rect id="Rectangle_356" data-name="Rectangle 356" width="3.525" height="1.164" transform="translate(4.74 19.678)" fill="#e40044"/>
        <rect id="Rectangle_357" data-name="Rectangle 357" width="3.525" height="1.164" transform="translate(8.605 19.678)" fill="#e40044"/>
        <rect id="Rectangle_358" data-name="Rectangle 358" width="3.525" height="1.164" transform="translate(12.583 19.678)" fill="#e40044"/>
        <rect id="Rectangle_359" data-name="Rectangle 359" width="3.525" height="1.164" transform="translate(16.448 19.678)" fill="#e40044"/>
        <rect id="Rectangle_360" data-name="Rectangle 360" width="3.525" height="1.164" transform="translate(20.313 19.678)" fill="#e40044"/>
        <rect id="Rectangle_361" data-name="Rectangle 361" width="3.525" height="1.164" transform="translate(24.291 19.678)" fill="#e40044"/>
        <rect id="Rectangle_362" data-name="Rectangle 362" width="3.525" height="1.164" transform="translate(28.188 19.678)" fill="#e40044"/>
        <path id="Path_977" data-name="Path 977" d="M4.8,40.18C2.228,36.831,2.231,35.5,2.24,31.834l0-.746h0c0-.228-.013-.691-.025-1.163-.048-1.791-.1-3.784.9-5,.6-.722,1.71-.685,2.789-.648.328.011.651.023.816.023V22.1c-.348,0-.548-.007-.748-.014-1.612-.055-3.271-.111-4.555,1.441C-.1,25.369-.036,27.8.023,29.978c.008.308.016.607.016,1.111h0l0,.746c-.01,4.21-.014,5.745,3.022,9.69A18.4,18.4,0,0,0,14.446,48.4a22.384,22.384,0,0,0,13.169-1.735,5.677,5.677,0,0,1,.493,3.981A21.126,21.126,0,0,1,25.6,56.8a28.688,28.688,0,0,1-4.687-.1,26.7,26.7,0,0,1-15.261-6.96c5.85,8.432,15.829,10.52,25.282,8.535a45.051,45.051,0,0,0,9.178-3.042l1.11-.5-.61-1.052c-.743-1.28-1.376-2.316-1.914-3.2-2.46-4.026-2.8-4.576-2.8-11.684V31.657c0-.5.008-.81.017-1.144.048-1.781.106-3.923-.585-5.391a4.709,4.709,0,0,0-2.687-2.61A9.1,9.1,0,0,0,29.4,22.1H27.422v-1.1a1.115,1.115,0,1,0-2.206-.026v4.42a1.113,1.113,0,1,0,2.206.1V24.3H29.4a7.514,7.514,0,0,1,2.485.267,2.643,2.643,0,0,1,1.464,1.49,11.7,11.7,0,0,1,.378,4.4c-.014.5-.026.976-.026,1.2v7.135c0,7.717.376,8.332,3.124,12.831.372.609.792,1.3,1.263,2.09a39.763,39.763,0,0,1-9.841,2.818,20.588,20.588,0,0,0,2.028-5.489,7.387,7.387,0,0,0-1.459-6.477l-.555-.649-.768.377a20.354,20.354,0,0,1-12.647,1.943A16.22,16.22,0,0,1,4.8,40.18" transform="translate(0 -9.347)" fill="#501c68" fill-rule="evenodd"/>
        <path id="Path_978" data-name="Path 978" d="M18.852,24.3h4.015V22.1H18.852v-1.1a1.115,1.115,0,1,0-2.206-.026v4.42a1.113,1.113,0,1,0,2.206.1Z" transform="translate(-7.895 -9.347)" fill="#1a1818" fill-rule="evenodd"/>
        <path id="Path_979" data-name="Path 979" d="M32.382,20.969V25.39a1.113,1.113,0,1,0,2.206.1V24.3h4.739V22.1H34.588v-1.1a1.115,1.115,0,1,0-2.206-.026" transform="translate(-15.359 -9.347)" fill="#1a1818" fill-rule="evenodd"/>
      </g>
    </g>
  </g>
</svg>
