<svg xmlns="http://www.w3.org/2000/svg" width="51.614" height="23.619" viewBox="0 0 51.614 23.619">
  <g id="Layer_2" data-name="Layer 2" transform="translate(30.145 -16.818) rotate(45)">
    <g id="Layer_1" data-name="Layer 1" transform="translate(0 0)">
      <path id="Path_78885" data-name="Path 78885" d="M13.488,11.06a7.211,7.211,0,0,0-2.417-9.93A7.268,7.268,0,0,0,1.044,3.336a7.206,7.206,0,0,0,2.509,9.909,7.153,7.153,0,0,0,9.938-2.185" transform="translate(0 28.248)" fill="#fdec07"/>
      <path id="Path_78886" data-name="Path 78886" d="M8.713,7.148A4.685,4.685,0,0,0,7.123.738,4.65,4.65,0,0,0,.669,2.154,4.7,4.7,0,0,0,2.264,8.567,4.732,4.732,0,0,0,8.713,7.149" transform="translate(15.586 14.232)" fill="#fdec07"/>
      <path id="Path_78887" data-name="Path 78887" d="M6.107,4.982A3.255,3.255,0,0,0,5,.526a3.275,3.275,0,0,0-4.538.952A3.274,3.274,0,0,0,1.626,5.966,3.256,3.256,0,0,0,6.11,4.981" transform="translate(23.784 0)" fill="#fdec07"/>
    </g>
  </g>
</svg>
