<svg xmlns="http://www.w3.org/2000/svg" width="51.613" height="23.619" viewBox="0 0 51.613 23.619">
  <g id="Layer_2" data-name="Layer 2" transform="translate(51.613 13.327) rotate(135)">
    <g id="Layer_1" data-name="Layer 1" transform="translate(0 0)">
      <path id="Path_78885" data-name="Path 78885" d="M13.488,3.322a7.211,7.211,0,0,1-2.417,9.93A7.268,7.268,0,0,1,1.044,11.047,7.206,7.206,0,0,1,3.554,1.138a7.153,7.153,0,0,1,9.938,2.185" fill="#fdec07"/>
      <path id="Path_78886" data-name="Path 78886" d="M8.713,2.127a4.685,4.685,0,0,1-1.59,6.41A4.65,4.65,0,0,1,.669,7.121,4.7,4.7,0,0,1,2.264.707,4.732,4.732,0,0,1,8.713,2.126" transform="translate(15.585 19.124)" fill="#fdec07"/>
      <path id="Path_78887" data-name="Path 78887" d="M6.107,1.486A3.255,3.255,0,0,1,5,5.942,3.275,3.275,0,0,1,.465,4.99,3.274,3.274,0,0,1,1.627.5a3.256,3.256,0,0,1,4.483.984" transform="translate(23.784 36.163)" fill="#fdec07"/>
    </g>
  </g>
</svg>
