<svg xmlns="http://www.w3.org/2000/svg" width="16.436" height="16.436" viewBox="0 0 16.436 16.436">
  <path id="Icon_ionic-ios-arrow-dropdown-circle" data-name="Icon ionic-ios-arrow-dropdown-circle" d="M3.375,11.593a8.218,8.218,0,1,0,8.218-8.218A8.217,8.217,0,0,0,3.375,11.593ZM14.8,9.878a.765.765,0,0,1,1.079,0,.753.753,0,0,1,.221.537.766.766,0,0,1-.225.541l-3.726,3.714a.762.762,0,0,1-1.051-.024L7.314,10.878A.763.763,0,0,1,8.393,9.8l3.2,3.236Z" transform="translate(-3.375 -3.375)" fill="#e1003e"/>
</svg>
