<svg xmlns="http://www.w3.org/2000/svg" xmlns:xlink="http://www.w3.org/1999/xlink" width="22" height="18.275" viewBox="0 0 22 18.275">
  <defs>
    <clipPath id="clip-path">
      <rect id="Rectangle_5961" data-name="Rectangle 5961" width="22" height="18.275"/>
    </clipPath>
  </defs>
  <g id="Group_15404" data-name="Group 15404" opacity="0.4">
    <g id="Group_15383" data-name="Group 15383" clip-path="url(#clip-path)">
      <path id="Path_78994" data-name="Path 78994" d="M22,194.471a5.037,5.037,0,0,1-.4.865,1.906,1.906,0,0,1-1.676.786c-1.281-.006-2.563,0-3.844,0q-6.979,0-13.958,0a2.081,2.081,0,0,1-1.432-.468,1.831,1.831,0,0,1-.679-1.406C0,193-.011,191.752.016,190.5a3.167,3.167,0,0,1,2.669-2.944,13.847,13.847,0,0,1,3.381.028.216.216,0,0,0,.254-.125,3.192,3.192,0,0,1,2.309-1.581,2.941,2.941,0,0,1,.513-.033c1.324,0,2.649-.019,3.972.024a3,3,0,0,1,2.511,1.495c.118.184.212.255.435.2a2.721,2.721,0,0,1,.66-.06c.651-.007,1.3,0,1.954,0a3.218,3.218,0,0,1,3.288,2.763.309.309,0,0,0,.036.075Zm-14.824.335h7.655v-.224q0-2.688,0-5.376a1.932,1.932,0,0,0-2.055-2.057q-1.771,0-3.541,0a1.934,1.934,0,0,0-2.059,2.075q0,2.667,0,5.333Zm-1.308-5.932a1.075,1.075,0,0,0-.216-.046c-.815-.012-1.629-.022-2.444-.025a1.589,1.589,0,0,0-.422.058A1.931,1.931,0,0,0,1.3,190.816c-.007,1.089,0,2.178,0,3.268a.66.66,0,0,0,.744.737H5.867Zm10.261,5.935c.08,0,.13.011.179.011q1.856,0,3.712,0a.645.645,0,0,0,.691-.681c.006-.243,0-.487,0-.731-.011-.988,0-1.977-.045-2.964a1.84,1.84,0,0,0-1.642-1.611c-.671-.033-1.343-.03-2.015-.035-.235,0-.471.021-.706.033-.125.007-.181.053-.181.2.007,1.834.006,3.669.006,5.5,0,.085,0,.17,0,.275" transform="translate(0 -177.847)"/>
      <path id="Path_78995" data-name="Path 78995" d="M174.493,3.828A3.822,3.822,0,1,1,170.675,0a3.836,3.836,0,0,1,3.819,3.83m-1.287.013A2.535,2.535,0,1,0,170.67,6.37a2.542,2.542,0,0,0,2.536-2.528" transform="translate(-159.668 0.001)"/>
      <path id="Path_78996" data-name="Path 78996" d="M36.182,88.336a2.874,2.874,0,1,1,2.874-2.868,2.89,2.89,0,0,1-2.874,2.868m-1.558-2.88A1.564,1.564,0,1,0,36.2,83.9a1.57,1.57,0,0,0-1.575,1.558" transform="translate(-31.882 -79.033)"/>
      <path id="Path_78997" data-name="Path 78997" d="M347.566,82.737a2.87,2.87,0,1,1-3,2.664,2.865,2.865,0,0,1,3-2.664m1.426,2.877a1.565,1.565,0,1,0-3.129-.012,1.565,1.565,0,1,0,3.129.012" transform="translate(-329.727 -79.172)"/>
    </g>
  </g>
</svg>
