<svg xmlns="http://www.w3.org/2000/svg" xmlns:xlink="http://www.w3.org/1999/xlink" width="19.095" height="16.417" viewBox="0 0 19.095 16.417">
  <defs>
    <clipPath id="clip-path">
      <rect id="Rectangle_23" data-name="Rectangle 23" width="19.095" height="16.417" fill="none"/>
    </clipPath>
  </defs>
  <g id="Group_30" data-name="Group 30" clip-path="url(#clip-path)">
    <path id="Path_26" data-name="Path 26" d="M0,16.151v-10a1.3,1.3,0,0,1,.58-.406c.344-.124.681-.266,1.021-.4L14.852.072c.364-.145.518-.079.663.284q1.714,4.3,3.428,8.6c.045.113.1.22.153.33v.261a2.055,2.055,0,0,1-.392.287c-.651.274-1.307.537-1.968.784a.317.317,0,0,0-.247.356c.009,1.653.006,3.306,0,4.959,0,.362-.119.478-.481.478q-7.764,0-15.527,0A.469.469,0,0,1,0,16.151m.758-.5H15.728V6.684H.759ZM16.494,9.909l1.735-.695L14.9.865,2.327,5.873c.716.041,1.422.042,2.129.039a.211.211,0,0,0,.1-.043,2.214,2.214,0,0,1,.323-.2Q7.3,4.692,9.728,3.728c.916-.364,1.833-.724,2.749-1.086a.378.378,0,0,1,.469.112,2.222,2.222,0,0,0,1.922.831.39.39,0,0,1,.42.269q.383.958.772,1.914c.024.058.066.139.115.151.269.065.322.251.322.492,0,1.088,0,2.175,0,3.263v.236m-1.194-4c-.192-.482-.378-.934-.551-1.391a.233.233,0,0,0-.235-.182,2.98,2.98,0,0,1-1.9-.832.236.236,0,0,0-.205-.031Q9.44,4.65,6.48,5.835c-.039.016-.075.04-.146.077Z" transform="translate(-0.001 0)" fill="#1a1818"/>
    <path id="Path_27" data-name="Path 27" d="M46.834,199.022q2.284,0,4.568,0a.377.377,0,0,1,.424.312,2.217,2.217,0,0,0,1.446,1.443.383.383,0,0,1,.309.428q0,1.557,0,3.114a.383.383,0,0,1-.306.43,2.219,2.219,0,0,0-1.461,1.476.358.358,0,0,1-.4.288H42.389c-.378,0-.425-.041-.565-.405a2.211,2.211,0,0,0-1.379-1.346c-.281-.1-.354-.189-.355-.491q0-1.51,0-3.021c0-.3.073-.383.359-.488a2.215,2.215,0,0,0,1.393-1.4c.095-.269.177-.339.461-.339q2.266,0,4.531,0h0m.019.744q-2.1,0-4.194,0a.206.206,0,0,0-.227.136A2.889,2.889,0,0,1,41,201.35a.222.222,0,0,0-.156.233c.007.789.006,1.578,0,2.368a.209.209,0,0,0,.143.222,2.905,2.905,0,0,1,1.444,1.443.221.221,0,0,0,.236.151q4.175-.005,8.351,0a.22.22,0,0,0,.234-.153,2.9,2.9,0,0,1,1.446-1.441.207.207,0,0,0,.144-.221q-.008-1.193,0-2.386a.192.192,0,0,0-.134-.206,2.885,2.885,0,0,1-1.45-1.437.241.241,0,0,0-.264-.161c-1.379,0-2.759,0-4.138,0" transform="translate(-38.592 -191.598)" fill="#1a1818"/>
    <path id="Path_28" data-name="Path 28" d="M160.85,241.306a2.251,2.251,0,0,1,4.5.024,2.251,2.251,0,1,1-4.5-.024m2.255,1.5a1.494,1.494,0,0,0-.006-2.988,1.494,1.494,0,1,0,.006,2.988" transform="translate(-154.851 -230.151)" fill="#1a1818"/>
    <path id="Path_29" data-name="Path 29" d="M95.85,285.3a.567.567,0,1,1,.594-.545.581.581,0,0,1-.594.545m-.009-.36.08,0c.044-.068.128-.141.12-.2a.253.253,0,0,0-.163-.17.142.142,0,0,0-.172.178c.015.072.088.132.135.2" transform="translate(-91.753 -273.563)" fill="#1a1818"/>
    <path id="Path_30" data-name="Path 30" d="M317.64,284.749a.567.567,0,1,1-.57-.57.58.58,0,0,1,.57.57m-.526-.207h-.081c-.046.067-.12.129-.132.2a.141.141,0,0,0,.178.173.257.257,0,0,0,.161-.174c.007-.061-.08-.133-.126-.2" transform="translate(-304.703 -273.581)" fill="#1a1818"/>
  </g>
</svg>
