<svg xmlns="http://www.w3.org/2000/svg" xmlns:xlink="http://www.w3.org/1999/xlink" width="14.081" height="14.071" viewBox="0 0 14.081 14.071">
  <defs>
    <clipPath id="clip-path">
      <rect id="Rectangle_5985" data-name="Rectangle 5985" width="14.081" height="14.071" fill="#6e0d88"/>
    </clipPath>
  </defs>
  <g id="Group_15416" data-name="Group 15416" transform="translate(0 0)">
    <g id="Group_15415" data-name="Group 15415" transform="translate(0 0)" clip-path="url(#clip-path)">
      <path id="Path_79052" data-name="Path 79052" d="M0,2.976c.027-.138.051-.276.082-.414A3.247,3.247,0,0,1,2.9.033,2.073,2.073,0,0,1,3.12.012c.934,0,1.869,0,2.8,0a.659.659,0,0,1,.635.511.647.647,0,0,1-.348.735.9.9,0,0,1-.358.069c-.843.006-1.685,0-2.528,0a1.933,1.933,0,0,0-1.582.74,1.864,1.864,0,0,0-.417,1.194c0,2.519-.008,5.038,0,7.557a1.929,1.929,0,0,0,1.986,1.934c1.09.005,2.18,0,3.27,0h4.149a1.952,1.952,0,0,0,2.017-1.989c0-.856,0-1.713,0-2.569a.659.659,0,0,1,1.317-.07c.01.957.031,1.915-.005,2.871a3.238,3.238,0,0,1-2.868,3.053.52.52,0,0,0-.09.026H2.968a.4.4,0,0,0-.076-.025A3.25,3.25,0,0,1,.124,11.7C.07,11.5.041,11.306,0,11.111V2.976" transform="translate(0 -0.008)" fill="#6e0d88"/>
      <path id="Path_79053" data-name="Path 79053" d="M52.843,1.318H52.7c-.779,0-1.557,0-2.336,0A.673.673,0,0,1,49.7.729.667.667,0,0,1,50.228.01.794.794,0,0,1,50.392,0h4.04a.669.669,0,0,1,.708.7q0,2.02,0,4.04a.66.66,0,1,1-1.318-.006q0-1.147,0-2.295V2.267c-.058.053-.1.088-.134.124L48.625,7.452a.674.674,0,0,1-.9.129.658.658,0,0,1-.142-.945,1.728,1.728,0,0,1,.14-.151q2.516-2.517,5.032-5.034a.938.938,0,0,1,.122-.089l-.03-.045" transform="translate(-41.069 0)" fill="#6e0d88"/>
    </g>
  </g>
</svg>
