<svg id="Icon_awesome-phone-alt" data-name="Icon awesome-phone-alt" xmlns="http://www.w3.org/2000/svg" width="35.879" height="35.879" viewBox="0 0 35.879 35.879">
  <path id="Icon_awesome-phone-alt-2" data-name="Icon awesome-phone-alt" d="M34.856,25.354,27.007,21.99a1.682,1.682,0,0,0-1.962.484L21.569,26.72A25.975,25.975,0,0,1,9.152,14.3L13.4,10.828a1.678,1.678,0,0,0,.484-1.962L10.519,1.017A1.693,1.693,0,0,0,8.591.043L1.3,1.725A1.682,1.682,0,0,0,0,3.364,32.512,32.512,0,0,0,32.516,35.879a1.682,1.682,0,0,0,1.64-1.3l1.682-7.288a1.7,1.7,0,0,0-.982-1.934Z" transform="translate(0 0)" fill="#6e0d88"/>
</svg>
