<svg id="Component_161_1" data-name="Component 161 – 1" xmlns="http://www.w3.org/2000/svg" xmlns:xlink="http://www.w3.org/1999/xlink" width="19" height="17" viewBox="0 0 19 17">
  <defs>
    <clipPath id="clip-path">
      <rect id="Rectangle_6139" data-name="Rectangle 6139" width="19" height="17" transform="translate(0 0)" fill="none"/>
    </clipPath>
  </defs>
  <g id="Group_15688" data-name="Group 15688" transform="translate(0 0)" clip-path="url(#clip-path)">
    <path id="Path_79218" data-name="Path 79218" d="M19.013,8.393v1.04a.349.349,0,0,0-.031.085,6.335,6.335,0,0,1-1.075,2.959.333.333,0,0,0-.025.251c.324,1.041.657,2.079.987,3.119.143.451.071.634-.338.866h-.3c-1.078-.549-2.157-1.1-3.233-1.65a.376.376,0,0,0-.347-.018,7.6,7.6,0,0,1-3.578.522,7.382,7.382,0,0,1-4.651-2.138A.482.482,0,0,0,6.17,13.3a7.385,7.385,0,0,1-1.819-.487.355.355,0,0,0-.33.016Q2.5,13.606.982,14.373a.9.9,0,0,1-.275.1.551.551,0,0,1-.6-.742q.505-1.616,1.026-3.228a.3.3,0,0,0-.041-.289A6.118,6.118,0,0,1,.167,8.13C.1,7.825.055,7.513,0,7.2V6.164c.012-.047.025-.094.036-.142A10.5,10.5,0,0,1,.363,4.6,6.931,6.931,0,0,1,5.521.192C5.89.1,6.272.063,6.647,0H7.836c.1.015.2.032.307.046A7.509,7.509,0,0,1,12.6,2.184a.416.416,0,0,0,.222.112,7.252,7.252,0,0,1,2.576.829,6.685,6.685,0,0,1,3.4,4.2c.1.349.14.713.208,1.07m-1.586,6.646c-.019-.073-.026-.107-.037-.141-.224-.705-.441-1.413-.677-2.114a.755.755,0,0,1,.128-.758A5.03,5.03,0,0,0,17.855,8.3a5.2,5.2,0,0,0-1.843-3.389,6.3,6.3,0,0,0-4.736-1.535A6.132,6.132,0,0,0,7.255,5.165,5.072,5.072,0,0,0,5.689,9.522a5.158,5.158,0,0,0,2.258,3.723,6.435,6.435,0,0,0,6.473.676.932.932,0,0,1,.875.029c.69.372,1.395.714,2.132,1.088M5.312,11.986c-.017-.057-.019-.069-.024-.08-.022-.044-.045-.088-.067-.132a6.033,6.033,0,0,1-.364-4.835,6.841,6.841,0,0,1,4.9-4.446c.376-.109.767-.164,1.171-.248-.07-.049-.126-.1-.189-.131a6.439,6.439,0,0,0-7.127.107A5.17,5.17,0,0,0,1.127,6.417,4.972,4.972,0,0,0,2.17,9.8a.754.754,0,0,1,.129.758c-.227.672-.436,1.35-.652,2.026-.021.065-.037.132-.064.233.783-.4,1.527-.773,2.268-1.155a.658.658,0,0,1,.6-.021c.27.118.546.222.858.347" transform="translate(-0.013 0)" fill="#1a1818"/>
    <path id="Path_79219" data-name="Path 79219" d="M242.132,225.578a.556.556,0,1,1-.545-.558.553.553,0,0,1,.545.558" transform="translate(-232.083 -216.664)" fill="#1a1818"/>
    <path id="Path_79220" data-name="Path 79220" d="M301.575,226.134a.556.556,0,1,1,.556-.548.55.55,0,0,1-.556.548" transform="translate(-289.854 -216.666)" fill="#1a1818"/>
    <path id="Path_79221" data-name="Path 79221" d="M361.563,226.133a.556.556,0,1,1,.566-.557.551.551,0,0,1-.566.557" transform="translate(-347.624 -216.665)" fill="#1a1818"/>
  </g>
</svg>
