<svg xmlns="http://www.w3.org/2000/svg" xmlns:xlink="http://www.w3.org/1999/xlink" width="31" height="31" viewBox="0 0 31 31">
  <defs>
    <clipPath id="clip-path">
      <rect id="Rectangle_6113" data-name="Rectangle 6113" width="31" height="31" transform="translate(0 0.018)" fill="#6e0d88"/>
    </clipPath>
  </defs>
  <g id="Group_15612" data-name="Group 15612" transform="translate(0 -0.018)">
    <g id="Group_15607" data-name="Group 15607" clip-path="url(#clip-path)">
      <path id="Path_79182" data-name="Path 79182" d="M30.539,14.255a1.092,1.092,0,0,0-.07.12,1.214,1.214,0,0,1-1.339.762,1.2,1.2,0,0,1-.975-1.246c0-2.187,0-4.374,0-6.561a2.358,2.358,0,0,0-1.354-2.3,2.742,2.742,0,0,0-.97-.246c-.522-.04-1.05-.011-1.614-.011,0,.386,0,.76,0,1.134A1.193,1.193,0,1,1,21.832,5.9c0-.366,0-.731,0-1.114H16.4c0,.393.006.8,0,1.2a1.191,1.191,0,0,1-1.853.97,1.116,1.116,0,0,1-.526-.95c-.008-.4,0-.794,0-1.212H8.648c0,.371,0,.745,0,1.119A1.193,1.193,0,1,1,6.264,5.9c0-.366,0-.731,0-1.166A14.04,14.04,0,0,0,4.2,4.872,2.327,2.327,0,0,0,2.386,7.311q-.006,3,0,5.994,0,6.143,0,12.286A2.324,2.324,0,0,0,3.74,27.885a3.067,3.067,0,0,0,1.235.257c2.962.021,5.924.01,8.887.012a1.192,1.192,0,0,1,1.216.975,1.214,1.214,0,0,1-.761,1.339,1.091,1.091,0,0,0-.12.07H4.175a.563.563,0,0,0-.129-.058A4.636,4.636,0,0,1,.5,27.871,10.551,10.551,0,0,1,0,26.364V6.561a.361.361,0,0,0,.054-.1A4.754,4.754,0,0,1,4.876,2.387H6.264c0-.129,0-.226,0-.323,0-.3,0-.6,0-.894A1.278,1.278,0,0,1,7.158,0h.6a1.376,1.376,0,0,1,.9,1.558c-.025.271,0,.547,0,.813h5.37c0-.112,0-.209,0-.306,0-.3,0-.6,0-.894A1.278,1.278,0,0,1,14.912,0h.6a1.376,1.376,0,0,1,.9,1.558c-.025.271,0,.547,0,.813h5.43c0-.112,0-.209,0-.306,0-.3,0-.6,0-.894A1.278,1.278,0,0,1,22.725,0h.6a1.376,1.376,0,0,1,.9,1.558c-.025.271,0,.546,0,.83.574,0,1.1-.017,1.626,0a4.64,4.64,0,0,1,4.2,2.663,9.8,9.8,0,0,1,.5,1.507Z" fill="#6e0d88"/>
      <path id="Path_79183" data-name="Path 79183" d="M276.4,284.289c-.366-.079-.739-.137-1.1-.241a6.987,6.987,0,0,1-5.252-5.555,7.211,7.211,0,0,1,13.516-4.655,7.372,7.372,0,0,1,.707,2.321,1.18,1.18,0,0,0,.059.2v1.431c-.048.251-.085.505-.147.753a7.157,7.157,0,0,1-5.344,5.533c-.331.092-.673.144-1.01.215Zm5.546-7.211A4.831,4.831,0,1,0,277.1,281.9a4.862,4.862,0,0,0,4.851-4.825" transform="translate(-253.794 -253.751)" fill="#6e0d88"/>
      <path id="Path_79184" data-name="Path 79184" d="M107.41,191.212a1.191,1.191,0,1,1-1.191-1.184,1.182,1.182,0,0,1,1.191,1.184" transform="translate(-98.763 -178.694)" fill="#e1003e"/>
      <path id="Path_79185" data-name="Path 79185" d="M194.41,191.215a1.191,1.191,0,1,1-1.188-1.187,1.182,1.182,0,0,1,1.188,1.187" transform="translate(-180.574 -178.694)" fill="#e1003e"/>
      <path id="Path_79186" data-name="Path 79186" d="M281.409,191.229a1.191,1.191,0,1,1-1.173-1.2,1.182,1.182,0,0,1,1.173,1.2" transform="translate(-262.383 -178.693)" fill="#e1003e"/>
      <path id="Path_79187" data-name="Path 79187" d="M367.206,192.409a1.191,1.191,0,1,1,1.2-1.171,1.182,1.182,0,0,1-1.2,1.171" transform="translate(-344.196 -178.692)" fill="#e1003e"/>
      <path id="Path_79188" data-name="Path 79188" d="M107.41,278.219a1.191,1.191,0,1,1-1.184-1.191,1.182,1.182,0,0,1,1.184,1.191" transform="translate(-98.763 -260.504)" fill="#e1003e"/>
      <path id="Path_79189" data-name="Path 79189" d="M193.215,279.409a1.191,1.191,0,1,1,1.2-1.18,1.182,1.182,0,0,1-1.2,1.18" transform="translate(-180.574 -260.503)" fill="#e1003e"/>
      <path id="Path_79190" data-name="Path 79190" d="M107.409,365.235a1.191,1.191,0,1,1-1.166-1.209,1.182,1.182,0,0,1,1.166,1.209" transform="translate(-98.762 -342.313)" fill="#e1003e"/>
      <path id="Path_79191" data-name="Path 79191" d="M194.41,365.218a1.191,1.191,0,1,1-1.185-1.19,1.182,1.182,0,0,1,1.185,1.19" transform="translate(-180.574 -342.315)" fill="#e1003e"/>
      <path id="Path_79192" data-name="Path 79192" d="M373.337,332.473c.219,0,.4,0,.574,0a1.19,1.19,0,0,1-.007,2.38q-.894.014-1.789,0a1.165,1.165,0,0,1-1.157-1.16q-.014-1.252,0-2.5a1.19,1.19,0,0,1,2.378,0c.009.416,0,.832,0,1.288" transform="translate(-348.824 -310.342)" fill="#e1003e"/>
    </g>
  </g>
</svg>
