<svg id="Group_15353" data-name="Group 15353" xmlns="http://www.w3.org/2000/svg" xmlns:xlink="http://www.w3.org/1999/xlink" width="39.582" height="39.6" viewBox="0 0 39.582 39.6">
  <defs>
    <clipPath id="clip-path">
      <rect id="Rectangle_5835" data-name="Rectangle 5835" width="39.582" height="39.6" fill="#e1003e"/>
    </clipPath>
  </defs>
  <g id="Group_15331" data-name="Group 15331" clip-path="url(#clip-path)">
    <path id="Path_78934" data-name="Path 78934" d="M0,34.337c.324-1.122.59-2.264.984-3.36A19.194,19.194,0,0,1,4.767,24.69a19.923,19.923,0,0,1,8.451-5.657c.081-.028.157-.071.241-.109-.429-.4-.861-.771-1.249-1.181a10.4,10.4,0,0,1-.519-13.9A10.109,10.109,0,0,1,21.408.13a10.493,10.493,0,0,1,.412,20.679,31.9,31.9,0,0,1-3.424.284,16.347,16.347,0,0,0-6.067,1.678,17.016,17.016,0,0,0-6.89,6.157,16.726,16.726,0,0,0-2.3,5.655,1.568,1.568,0,0,0,1.291,1.882,3.628,3.628,0,0,0,.616.037q6.79,0,13.58,0a1.555,1.555,0,0,1,1.651,1.906A1.709,1.709,0,0,1,19.116,39.6H4.1a.861.861,0,0,0-.172-.071A4.509,4.509,0,0,1,.56,37.084,11.436,11.436,0,0,1,0,35.5V34.337M12.384,10.516A7.429,7.429,0,1,0,19.81,3.077a7.445,7.445,0,0,0-7.426,7.439" transform="translate(0 0.001)" fill="#e1003e"/>
    <path id="Path_78935" data-name="Path 78935" d="M278.13,287.707a25.5,25.5,0,0,1-2.646-.67,9.3,9.3,0,0,1-5.815-10.129,9.355,9.355,0,0,1,15.995-5.011,8.435,8.435,0,0,1,2.475,5.043A9.2,9.2,0,0,1,284,286.179a8.917,8.917,0,0,1-4.067,1.464,1.955,1.955,0,0,0-.259.065Zm7.042-9.364a6.268,6.268,0,1,0-6.276,6.268,6.287,6.287,0,0,0,6.276-6.268" transform="translate(-248.643 -248.107)" fill="#e1003e"/>
    <path id="Path_78936" data-name="Path 78936" d="M373.379,332.371c.275,0,.5-.009.733,0a1.542,1.542,0,0,1,0,3.084c-.772.021-1.546.022-2.318,0a1.51,1.51,0,0,1-1.5-1.514c-.02-1.081-.022-2.163,0-3.244a1.54,1.54,0,0,1,3.079-.009c.022.539,0,1.08,0,1.682" transform="translate(-341.575 -303.678)" fill="#e1003e"/>
  </g>
</svg>
