<svg id="Group_15722" data-name="Group 15722" xmlns="http://www.w3.org/2000/svg" xmlns:xlink="http://www.w3.org/1999/xlink" width="18.309" height="15.186" viewBox="0 0 18.309 15.186">
  <defs>
    <clipPath id="clip-path">
      <rect id="Rectangle_6155" data-name="Rectangle 6155" width="18.309" height="15.186" fill="none"/>
    </clipPath>
  </defs>
  <g id="Group_15722-2" data-name="Group 15722" clip-path="url(#clip-path)">
    <path id="Path_79223" data-name="Path 79223" d="M0,189.558a5.509,5.509,0,0,1,.266-.824,2.6,2.6,0,0,1,2.393-1.529c.72-.018,1.443-.014,2.16.037a.506.506,0,0,0,.557-.255,2.582,2.582,0,0,1,2.232-1.16c1.1,0,2.2-.017,3.306.019A2.5,2.5,0,0,1,13,187.09c.1.154.178.211.363.161a2.254,2.254,0,0,1,.55-.049c.542-.006,1.084,0,1.626,0a2.677,2.677,0,0,1,2.736,2.3.258.258,0,0,0,.03.063v3.433a.868.868,0,0,0-.036.1,1.633,1.633,0,0,1-.507.862,1.736,1.736,0,0,1-1.219.413q-5.783,0-11.567,0c-1.085,0-2.169,0-3.254,0a1.588,1.588,0,0,1-1.4-.653A4.18,4.18,0,0,1,0,192.991v-3.433m5.968,3.711h6.373v-.188q0-2.234,0-4.468a1.607,1.607,0,0,0-1.714-1.706H7.7a1.61,1.61,0,0,0-1.728,1.727q0,2.216,0,4.432Zm-1.08.012v-.24c0-1.5,0-3,.006-4.5,0-.185-.056-.242-.224-.243-.666,0-1.333-.015-2-.016a1.368,1.368,0,0,0-.369.053,1.6,1.6,0,0,0-1.229,1.631c0,.9,0,1.8,0,2.7a.548.548,0,0,0,.613.618h3.2m8.542,0h3.152c.456,0,.655-.2.655-.648,0-.762,0-1.524,0-2.287,0-.238-.011-.476-.032-.712a1.564,1.564,0,0,0-1.364-1.327c-.665-.028-1.332-.023-2-.029a2.808,2.808,0,0,0-.284.028c-.1.009-.141.045-.14.157.005,1.542,0,3.085.006,4.627,0,.058,0,.116.008.192" transform="translate(0 -179.177)" fill="#1a1818"/>
    <path id="Path_79224" data-name="Path 79224" d="M170.21,0a3.186,3.186,0,1,1-3.19,3.135A3.18,3.18,0,0,1,170.21,0M170.2,1.079a2.108,2.108,0,1,0,2.107,2.1,2.113,2.113,0,0,0-2.107-2.1" transform="translate(-161.047 0)" fill="#1a1818"/>
    <path id="Path_79225" data-name="Path 79225" d="M35.854,82.749A2.386,2.386,0,1,1,33.358,85a2.379,2.379,0,0,1,2.5-2.249m-1.415,2.378a1.3,1.3,0,1,0,1.308-1.3,1.305,1.305,0,0,0-1.308,1.3" transform="translate(-32.161 -79.787)" fill="#1a1818"/>
    <path id="Path_79226" data-name="Path 79226" d="M347.525,87.381a2.388,2.388,0,1,1,2.385-2.392,2.4,2.4,0,0,1-2.385,2.392m1.3-2.387a1.3,1.3,0,1,0-2.605.008,1.3,1.3,0,0,0,2.605-.008" transform="translate(-332.789 -79.65)" fill="#1a1818"/>
  </g>
</svg>
