<svg xmlns="http://www.w3.org/2000/svg" width="30.5" height="30.5" viewBox="0 0 30.5 30.5">
  <path id="Icon_awesome-check-circle" data-name="Icon awesome-check-circle" d="M31.063,15.813A15.25,15.25,0,1,1,15.813.563,15.25,15.25,0,0,1,31.063,15.813ZM14.049,23.887,25.363,12.573a.984.984,0,0,0,0-1.391L23.972,9.79a.984.984,0,0,0-1.391,0l-9.227,9.227L9.045,14.709a.984.984,0,0,0-1.391,0L6.262,16.1a.984.984,0,0,0,0,1.391l6.4,6.4a.984.984,0,0,0,1.391,0Z" transform="translate(-0.563 -0.563)" fill="#25a044"/>
</svg>
