<svg id="Group_15684" data-name="Group 15684" xmlns="http://www.w3.org/2000/svg" xmlns:xlink="http://www.w3.org/1999/xlink" width="12.309" height="13.391" viewBox="0 0 12.309 13.391">
  <defs>
    <clipPath id="clip-path">
      <rect id="Rectangle_6137" data-name="Rectangle 6137" width="12.309" height="13.391" fill="none"/>
    </clipPath>
  </defs>
  <g id="Group_15683" data-name="Group 15683" clip-path="url(#clip-path)">
    <path id="Path_79213" data-name="Path 79213" d="M46.658,0a4.014,4.014,0,1,1-4.019,4.032A4,4,0,0,1,46.658,0m0,1.6a2.408,2.408,0,1,0,2.4,2.449,2.43,2.43,0,0,0-2.4-2.449" transform="translate(-40.5 0.001)" fill="#1a1818"/>
    <path id="Path_79214" data-name="Path 79214" d="M6.177,170.607c.978,0,1.958-.044,2.932.011a2.746,2.746,0,0,1,2.5,1.8c.268.636.458,1.305.665,1.965a.8.8,0,0,1-1.518.506c-.206-.563-.385-1.136-.579-1.7a1.313,1.313,0,0,0-1.353-.972q-2.67,0-5.341,0a1.31,1.31,0,0,0-1.351.975c-.187.553-.366,1.108-.557,1.66a.829.829,0,0,1-.823.574.8.8,0,0,1-.74-.672.985.985,0,0,1,.042-.44c.174-.557.36-1.11.55-1.661a2.939,2.939,0,0,1,2.893-2.055c.894-.008,1.789,0,2.683,0v.014" transform="translate(0 -162.032)" fill="#1a1818"/>
  </g>
</svg>
