<svg id="Group_15352" data-name="Group 15352" xmlns="http://www.w3.org/2000/svg" xmlns:xlink="http://www.w3.org/1999/xlink" width="41.281" height="41.273" viewBox="0 0 41.281 41.273">
  <defs>
    <clipPath id="clip-path">
      <rect id="Rectangle_5833" data-name="Rectangle 5833" width="41.281" height="41.273" fill="#e1003e"/>
    </clipPath>
  </defs>
  <g id="Group_15328" data-name="Group 15328" clip-path="url(#clip-path)">
    <path id="Path_78924" data-name="Path 78924" d="M28.894,0h2.717V2.8c.94,0,1.811,0,2.681,0A6.791,6.791,0,0,1,41.253,9.67q.055,12.358,0,24.717a6.765,6.765,0,0,1-6.83,6.865q-13.762.047-27.524,0A6.8,6.8,0,0,1,.229,35.976C.121,35.525.075,35.059,0,34.6V9.42c.027-.146.065-.29.078-.437A6.7,6.7,0,0,1,5.262,3.019a25.621,25.621,0,0,1,3.82-.226c.187-.009.374,0,.609,0V0h2.717V2.767H28.894ZM2.791,15.168v.5q0,9.237,0,18.474a5.288,5.288,0,0,0,.066.991,4.1,4.1,0,0,0,4.293,3.375q13.493,0,26.987,0a5.3,5.3,0,0,0,.991-.066A4.1,4.1,0,0,0,38.51,34.2q.006-9.282,0-18.565c0-.147-.012-.294-.02-.465Zm.091-2.789H38.5c0-.963.015-1.9,0-2.83a4.042,4.042,0,0,0-3.019-3.843,6.592,6.592,0,0,0-1.431-.163c-.792-.026-1.585-.007-2.431-.007V8.26h-2.73v-2.7H12.4V8.249H9.666V5.53c-.994,0-1.942-.02-2.888,0A3.958,3.958,0,0,0,2.914,8.8a24.539,24.539,0,0,0-.032,3.584" fill="#e1003e"/>
    <path id="Path_78925" data-name="Path 78925" d="M305.981,213.8a1.368,1.368,0,1,1-1.376-1.37,1.349,1.349,0,0,1,1.376,1.37" transform="translate(-275.719 -193.146)" fill="#e1003e"/>
    <path id="Path_78926" data-name="Path 78926" d="M122.972,212.429a1.368,1.368,0,1,1-1.358,1.388,1.351,1.351,0,0,1,1.358-1.388" transform="translate(-110.574 -193.146)" fill="#e1003e"/>
    <path id="Path_78927" data-name="Path 78927" d="M213.8,215.163a1.368,1.368,0,1,1,1.362-1.385,1.351,1.351,0,0,1-1.362,1.385" transform="translate(-193.147 -193.145)" fill="#e1003e"/>
    <path id="Path_78928" data-name="Path 78928" d="M124.347,274.362a1.368,1.368,0,1,1-1.4-1.352,1.356,1.356,0,0,1,1.4,1.352" transform="translate(-110.572 -248.227)" fill="#e1003e"/>
    <path id="Path_78929" data-name="Path 78929" d="M215.158,274.375a1.368,1.368,0,1,1-1.385-1.364,1.369,1.369,0,0,1,1.385,1.364" transform="translate(-193.14 -248.229)" fill="#e1003e"/>
    <path id="Path_78930" data-name="Path 78930" d="M303.243,274.375a1.368,1.368,0,1,1,1.375,1.382,1.364,1.364,0,0,1-1.375-1.382" transform="translate(-275.716 -248.227)" fill="#e1003e"/>
    <path id="Path_78931" data-name="Path 78931" d="M121.61,334.838a1.368,1.368,0,1,1,1.362,1.4,1.383,1.383,0,0,1-1.362-1.4" transform="translate(-110.571 -303.203)" fill="#e1003e"/>
    <path id="Path_78932" data-name="Path 78932" d="M212.423,334.858a1.368,1.368,0,1,1,1.383,1.376,1.384,1.384,0,0,1-1.383-1.376" transform="translate(-193.14 -303.202)" fill="#e1003e"/>
    <path id="Path_78933" data-name="Path 78933" d="M305.979,334.858a1.368,1.368,0,1,1-1.374-1.384,1.373,1.373,0,0,1,1.374,1.384" transform="translate(-275.717 -303.203)" fill="#e1003e"/>
  </g>
</svg>
