<svg xmlns="http://www.w3.org/2000/svg" xmlns:xlink="http://www.w3.org/1999/xlink" width="49" height="49" viewBox="0 0 49 49">
  <defs>
    <clipPath id="clip-path">
      <rect id="Rectangle_6138" data-name="Rectangle 6138" width="24.951" height="27.215" fill="#6e0d88"/>
    </clipPath>
  </defs>
  <g id="Group_15687" data-name="Group 15687" transform="translate(-1263 -268.203)">
    <circle id="Ellipse_1741" data-name="Ellipse 1741" cx="24.5" cy="24.5" r="24.5" transform="translate(1263 268.203)" fill="#dfe3fa"/>
    <g id="Group_15686" data-name="Group 15686" transform="translate(1275.587 279.443)">
      <g id="Group_15685" data-name="Group 15685" clip-path="url(#clip-path)">
        <path id="Path_79215" data-name="Path 79215" d="M31.961,27.215a10.662,10.662,0,0,1-1.4-.465,4.08,4.08,0,0,1-2.2-2.713c-.051-.187-.124-.23-.3-.229-1.621.007-3.241,0-4.862,0a1.978,1.978,0,0,1-1.919-1.247,1.928,1.928,0,0,1,.551-2.24,7.509,7.509,0,0,0,2.493-4.1,10.029,10.029,0,0,0,.2-1.813c.032-1,.006-2,.009-3a7.946,7.946,0,0,1,5.93-7.748c.365-.1.742-.158,1.147-.243,0-.07.014-.163.015-.256,0-.682.022-1.365-.006-2.046A1.058,1.058,0,0,1,32.227,0h.478a1.045,1.045,0,0,1,.637,1.107c-.024.769-.006,1.539-.006,2.288a16.221,16.221,0,0,1,1.653.419,7.828,7.828,0,0,1,5.347,6.426,9.566,9.566,0,0,1,.073,1.483c.011.833.008,1.665,0,2.5a7.675,7.675,0,0,0,2.649,6.045,1.973,1.973,0,0,1,.288,2.839,1.9,1.9,0,0,1-1.512.706H36.662c-.024.075-.048.147-.069.219a4.2,4.2,0,0,1-3.452,3.133.569.569,0,0,0-.116.051Zm.509-5.1q4.543,0,9.086,0c.2,0,.433.059.528-.192s-.139-.355-.28-.485a9.172,9.172,0,0,1-3.085-6.725c-.03-1.088.007-2.179-.012-3.267a6.936,6.936,0,0,0-.132-1.344,6.219,6.219,0,0,0-12.3.821c-.048,1.14-.028,2.284-.027,3.426a9.246,9.246,0,0,1-2.188,6.138c-.328.392-.724.727-1.071,1.1a.424.424,0,0,0-.1.344c.024.081.18.133.287.176a.6.6,0,0,0,.211,0h9.086m-2.358,1.713a2.5,2.5,0,0,0,2.421,1.686,2.464,2.464,0,0,0,2.3-1.686Z" transform="translate(-20.002)" fill="#6e0d88"/>
        <path id="Path_79216" data-name="Path 79216" d="M0,32.877c.071-.5.127-1,.216-1.493a13.67,13.67,0,0,1,3.813-7.32.856.856,0,1,1,1.209,1.207,12.171,12.171,0,0,0-3.03,5.106A12.676,12.676,0,0,0,1.7,33.752a.878.878,0,0,1-.636.926A.867.867,0,0,1,.04,34.13c-.007-.013-.026-.02-.04-.03V32.877" transform="translate(0 -22.512)" fill="#e1003e"/>
        <path id="Path_79217" data-name="Path 79217" d="M370.966,33.386c0,.146,0,.305,0,.464a.849.849,0,0,1-.838.879.883.883,0,0,1-.878-.877c-.057-.748-.089-1.5-.216-2.239a11.639,11.639,0,0,0-2.626-5.565c-.221-.264-.465-.51-.7-.766a.857.857,0,1,1,1.239-1.18,13.663,13.663,0,0,1,3.837,7.555c.046.288.08.578.11.867s.046.564.069.86" transform="translate(-346.017 -22.538)" fill="#e1003e"/>
      </g>
    </g>
  </g>
</svg>
