<svg id="Group_15334" data-name="Group 15334" xmlns="http://www.w3.org/2000/svg" xmlns:xlink="http://www.w3.org/1999/xlink" width="44.584" height="44.593" viewBox="0 0 44.584 44.593">
  <defs>
    <clipPath id="clip-path">
      <rect id="Rectangle_5838" data-name="Rectangle 5838" width="44.584" height="44.593" fill="#e1003e"/>
    </clipPath>
  </defs>
  <g id="Group_15334-2" data-name="Group 15334" clip-path="url(#clip-path)">
    <path id="Path_78937" data-name="Path 78937" d="M29.033,0H29.7c.1.032.2.072.309.1a2.748,2.748,0,0,1,1.96,1.436.846.846,0,0,0,.945.541c.646-.034,1.3-.011,1.944-.008A3.425,3.425,0,0,1,38.5,5.726Q38.5,15.212,38.49,24.7a.631.631,0,0,0,.408.682A10.112,10.112,0,1,1,25.386,38.907a.633.633,0,0,0-.677-.418q-6.759.017-13.518.008c-2.53,0-5.059.008-7.589,0a3.448,3.448,0,0,1-3.47-2.607c-.042-.166-.088-.331-.132-.5V5.123a1.181,1.181,0,0,0,.085-.212,3.381,3.381,0,0,1,3.35-2.843c.647-.015,1.3-.039,1.942.006.582.04,1.045-.022,1.246-.669A1.326,1.326,0,0,1,6.934.993,3.557,3.557,0,0,1,8.824,0h.664c.1.034.2.075.3.1a2.871,2.871,0,0,1,2,1.538.67.67,0,0,0,.717.434q6.613-.02,13.226,0c.507,0,.854-.05,1.106-.593A2.551,2.551,0,0,1,28.5.169c.177-.054.354-.113.53-.169M24.5,36.458A10.2,10.2,0,0,1,36.425,24.489V12.195H2.063v.533q0,11,0,22.008c0,1.237.483,1.722,1.718,1.722H24.5Zm9.952,6.07a8.087,8.087,0,1,0-8.1-8.067,8.067,8.067,0,0,0,8.1,8.067M32.422,4.092c0,.36.012.687,0,1.014a3.033,3.033,0,1,1-6.065-.07c-.005-.31,0-.62,0-.93H12.2A11.87,11.87,0,0,1,12.1,5.725a3.008,3.008,0,0,1-3.143,2.4,3.043,3.043,0,0,1-2.852-3c-.015-.339,0-.679,0-1.042-.916,0-1.752-.008-2.588,0A1.37,1.37,0,0,0,2.068,5.506c-.014,1.454,0,2.908,0,4.362a1.6,1.6,0,0,0,.043.261H36.437c0-1.645.025-3.269-.013-4.89A1.241,1.241,0,0,0,35.261,4.1c-.926-.046-1.856-.012-2.84-.012M10.149,4.073c0-.347.017-.7,0-1.042A.985.985,0,0,0,9.122,2.07a.953.953,0,0,0-.974.951c-.023.694-.022,1.389,0,2.083a.959.959,0,0,0,.99.986.989.989,0,0,0,1.011-.975c.019-.346,0-.694,0-1.042m20.23.034c0-.363.017-.727,0-1.089a1,1,0,0,0-1.992-.032c-.031.725-.03,1.453,0,2.178a1,1,0,0,0,1.993-.015c.021-.346,0-.694,0-1.041" fill="#e1003e"/>
    <path id="Path_78938" data-name="Path 78938" d="M70.122,280.176c0,.648.011,1.3,0,1.943a.979.979,0,0,1-1.023,1.064q-1.99.037-3.981,0a1,1,0,0,1-1.056-1.093q-.025-1.943,0-3.887a1,1,0,0,1,1.107-1.079q1.943-.015,3.887,0a.969.969,0,0,1,1.067,1.058c.014.663,0,1.327,0,1.991m-4,.954h1.952v-1.976H66.122Z" transform="translate(-57.956 -250.77)" fill="#e1003e"/>
    <path id="Path_78939" data-name="Path 78939" d="M70.128,173.69c0,.616.007,1.233,0,1.849a1.014,1.014,0,0,1-1.136,1.145q-1.9.01-3.793,0a1.021,1.021,0,0,1-1.135-1.107q-.024-1.92,0-3.84a1.031,1.031,0,0,1,1.17-1.121q1.873-.008,3.745,0a1.011,1.011,0,0,1,1.149,1.131c.009.648,0,1.3,0,1.944m-4,.953h1.955v-1.979H66.124Z" transform="translate(-57.96 -154.39)" fill="#e1003e"/>
    <path id="Path_78940" data-name="Path 78940" d="M277.143,173.611c0-.648-.011-1.3,0-1.944a.988.988,0,0,1,1.07-1.064q1.944-.016,3.887,0a1.008,1.008,0,0,1,1.1,1.09q.027,1.943,0,3.887a1.009,1.009,0,0,1-1.1,1.089q-1.92.014-3.84,0a1,1,0,0,1-1.117-1.115c-.01-.648,0-1.3,0-1.944m3.993-.962H279.18v1.98h1.956Z" transform="translate(-250.788 -154.375)" fill="#e1003e"/>
    <path id="Path_78941" data-name="Path 78941" d="M173.675,277.142c.632,0,1.264-.008,1.9,0a1,1,0,0,1,1.1,1.081q.015,1.944,0,3.887a1,1,0,0,1-1.053,1.091q-1.967.033-3.935,0a1.01,1.01,0,0,1-1.079-1.114q-.012-1.92,0-3.84a1,1,0,0,1,1.124-1.107c.648-.009,1.3,0,1.944,0m-1.034,4h1.991v-1.958h-1.991Z" transform="translate(-154.381 -250.788)" fill="#e1003e"/>
    <path id="Path_78942" data-name="Path 78942" d="M173.617,176.671c-.632,0-1.264.007-1.9,0a1.019,1.019,0,0,1-1.113-1.127q-.011-1.92,0-3.84a1,1,0,0,1,1.089-1.1q1.944-.015,3.888,0a1.006,1.006,0,0,1,1.089,1.1q.014,1.92,0,3.84a1.021,1.021,0,0,1-1.114,1.125c-.648.009-1.3,0-1.944,0m1.025-4.024h-1.976v1.967h1.976Z" transform="translate(-154.381 -154.375)" fill="#e1003e"/>
    <path id="Path_78943" data-name="Path 78943" d="M351.376,312.174c0-.616-.007-1.232,0-1.848.011-.726.4-1.166,1.025-1.162s1,.442,1.01,1.177c.008.979.015,1.958,0,2.937a1.033,1.033,0,0,0,.35.871c.456.413.884.858,1.31,1.3a1.015,1.015,0,1,1-1.433,1.426c-.635-.616-1.277-1.226-1.864-1.886a1.705,1.705,0,0,1-.377-.924c-.058-.626-.017-1.262-.017-1.893" transform="translate(-317.954 -279.769)" fill="#e1003e"/>
  </g>
</svg>
