<svg xmlns="http://www.w3.org/2000/svg" xmlns:xlink="http://www.w3.org/1999/xlink" width="16.855" height="11.819" viewBox="0 0 16.855 11.819">
  <defs>
    <clipPath id="clip-path">
      <rect id="Rectangle_6140" data-name="Rectangle 6140" width="16.855" height="11.819" fill="none"/>
    </clipPath>
  </defs>
  <g id="Group_15690" data-name="Group 15690" clip-path="url(#clip-path)">
    <path id="Path_79222" data-name="Path 79222" d="M16.855,1.288v9.2l-.009-.014c-.012.067-.021.139-.037.209a1.476,1.476,0,0,1-1.445,1.132q-6.923,0-13.846,0a1.513,1.513,0,0,1-.307-.028,1.46,1.46,0,0,1-.97-.655,1.1,1.1,0,0,1-.209-.624.208.208,0,0,0-.007-.035l-.025.1V1.264L.01,1.3l.01.041a1.36,1.36,0,0,1,.415-.9A1.409,1.409,0,0,1,1.33.017L1.284,0H15.6l-.05.015a1.4,1.4,0,0,1,.881.434,1.378,1.378,0,0,1,.411.885l.017-.045m-1.71-.3H1.709c.016.018.027.031.04.044Q3.041,2.324,4.333,3.618,5.514,4.8,6.7,5.977c.435.434.871.868,1.3,1.306a.579.579,0,0,0,.82.032c.21-.213.424-.421.635-.631l1.4-1.4,3.107-3.111,1.16-1.158c.007-.007.012-.014.022-.028m0,9.844L10.926,6.6l-.03.028c-.46.46-.916.924-1.382,1.378a1.515,1.515,0,0,1-1.393.412A1.464,1.464,0,0,1,7.337,8L5.958,6.629,5.929,6.6,1.708,10.831ZM.992,1.655v8.51L5.24,5.908.992,1.655M11.616,5.91l4.248,4.253V1.654L11.616,5.91" fill="#1a1818"/>
  </g>
</svg>
