<svg id="Group_15336" data-name="Group 15336" xmlns="http://www.w3.org/2000/svg" xmlns:xlink="http://www.w3.org/1999/xlink" width="43.399" height="37.942" viewBox="0 0 43.399 37.942">
  <defs>
    <clipPath id="clip-path">
      <rect id="Rectangle_5839" data-name="Rectangle 5839" width="43.399" height="37.942" fill="#e1003e" stroke="#e1003e" stroke-width="0.5"/>
    </clipPath>
  </defs>
  <g id="Group_15335" data-name="Group 15335" clip-path="url(#clip-path)">
    <path id="Path_78944" data-name="Path 78944" d="M0,7.79c.082-.347.149-.7.247-1.039A5.628,5.628,0,0,1,5.621,2.667c1.394-.009,2.789,0,4.183,0h.527c0-.508,0-.985,0-1.463a4.994,4.994,0,0,1,.018-.579A.669.669,0,0,1,11.088,0a.653.653,0,0,1,.669.649c.022.565.016,1.132.01,1.7,0,.223.069.32.309.32q7.269-.01,14.537-.01a1.026,1.026,0,0,0,.156-.041c0-.591-.005-1.205,0-1.819a.706.706,0,0,1,.7-.8.72.72,0,0,1,.749.8c.011.6,0,1.207,0,1.863h.488c1.394,0,2.789-.007,4.183,0a5.615,5.615,0,0,1,5.614,5.606c.015,3.147,0,6.294,0,9.441,0,.551-.267.883-.7.894s-.744-.342-.747-.905c-.006-1.2,0-2.4,0-3.6v-.471H1.5c-.008.166-.02.312-.02.458q0,8.634,0,17.267a4.2,4.2,0,0,0,4.357,4.358q9.133.009,18.265,0a2.814,2.814,0,0,1,.414.007.686.686,0,0,1,.632.661.653.653,0,0,1-.493.723,1.708,1.708,0,0,1-.489.06q-9.133,0-18.265,0A5.645,5.645,0,0,1,.076,32.247.98.98,0,0,0,0,32.058V7.79M26.768,4.115H12.707c-.938,0-.923,0-.945.927a.652.652,0,0,0,.461.734,2.783,2.783,0,1,1-2.774,4.8A2.667,2.667,0,0,1,8.3,7.906,2.7,2.7,0,0,1,9.941,5.727c.144-.069.355-.192.367-.308a12.051,12.051,0,0,0,.018-1.272c-.141-.015-.222-.031-.3-.031-1.477,0-2.955-.024-4.431.01a4.159,4.159,0,0,0-4.112,4.21c-.008,1.063,0,2.126,0,3.188v.654H36.441c.1,0,.194-.008.29,0,.248.024.34-.076.338-.33-.013-1.256.018-2.513-.022-3.768a4.116,4.116,0,0,0-3.974-3.951c-1.518-.037-3.037-.013-4.556-.013a1.808,1.808,0,0,0-.287.048c0,.341.02.659-.005.974a.517.517,0,0,0,.385.607,2.737,2.737,0,0,1,1.656,2.868,2.792,2.792,0,1,1-3.831-2.909c.13-.057.308-.188.319-.3.038-.408.015-.821.015-1.294m-.6,4.147a1.338,1.338,0,0,0,1.329,1.352A1.365,1.365,0,0,0,28.826,8.3a1.331,1.331,0,0,0-2.663-.034m-13.8.021A1.317,1.317,0,0,0,11.03,6.949a1.332,1.332,0,0,0-.008,2.664,1.33,1.33,0,0,0,1.345-1.331" transform="translate(0 -0.001)" fill="#e1003e" stroke="#e1003e" stroke-width="0.5"/>
    <path id="Path_78945" data-name="Path 78945" d="M301.766,258.552a8.987,8.987,0,1,1,9.064-8.951,9.026,9.026,0,0,1-9.064,8.951m0-16.529a7.551,7.551,0,1,0,7.6,7.513,7.578,7.578,0,0,0-7.6-7.513" transform="translate(-268.431 -220.61)" fill="#e1003e" stroke="#e1003e" stroke-width="0.5"/>
    <path id="Path_78946" data-name="Path 78946" d="M368.735,314.877l1.6,1.587a3.8,3.8,0,0,1,.315.328.691.691,0,0,1-.056.939.652.652,0,0,1-.9-.019c-.54-.513-1.079-1.03-1.585-1.576-.289-.312-.476-.294-.754.012-.436.479-.917.917-1.379,1.372-.433.427-.845.491-1.145.179s-.226-.7.187-1.114c.458-.459.921-.914,1.379-1.373.115-.115.217-.243.368-.414l-1.612-1.581c-.108-.106-.221-.21-.319-.325a.694.694,0,0,1,0-.94.642.642,0,0,1,.93-.007c.544.509,1.08,1.029,1.589,1.573.278.3.467.329.757.01.463-.51.968-.984,1.461-1.466.375-.367.767-.4,1.053-.114a.728.728,0,0,1-.107,1.061c-.561.571-1.129,1.135-1.692,1.7a.83.83,0,0,0-.084.164" transform="translate(-334.378 -285.872)" fill="#e1003e" stroke="#e1003e" stroke-width="0.5"/>
  </g>
</svg>
