<svg xmlns="http://www.w3.org/2000/svg" xmlns:xlink="http://www.w3.org/1999/xlink" width="32" height="32" viewBox="0 0 32 32">
  <defs>
    <clipPath id="clip-path">
      <rect id="Rectangle_6116" data-name="Rectangle 6116" width="32" height="32" fill="#6e0d88"/>
    </clipPath>
  </defs>
  <g id="Group_15715" data-name="Group 15715" transform="translate(0.081 -0.25)">
    <g id="Group_15614" data-name="Group 15614" transform="translate(-0.081 0.25)" clip-path="url(#clip-path)">
      <path id="Path_79193" data-name="Path 79193" d="M16.764,0c.441.062.882.12,1.322.187a14.936,14.936,0,0,1,3.46.957.616.616,0,1,1-.459,1.137A15.45,15.45,0,0,0,17.8,1.389a13.786,13.786,0,0,0-8.241,1.2A14.031,14.031,0,0,0,1.467,13.281,14.043,14.043,0,0,0,3.08,22.723a.421.421,0,0,0,.173.176c0-.2,0-.409,0-.614.009-.428.238-.692.6-.7.383-.01.632.247.637.7q.014,1.269,0,2.538c-.005.492-.227.708-.717.712q-1.269.009-2.538,0c-.449,0-.7-.243-.695-.63a.621.621,0,0,1,.7-.6c.427,0,.855,0,1.329,0-.065-.114-.11-.2-.161-.281A15.8,15.8,0,0,1,.072,17.239C.052,17.059.024,16.881,0,16.7v-2.08c.067-.5.118-1.008.2-1.507a15.514,15.514,0,0,1,4.2-8.34A15.309,15.309,0,0,1,12.936.245C13.495.146,14.06.081,14.622,0Z" transform="translate(0.675 -0.031)" fill="#e1003e"/>
      <path id="Path_79194" data-name="Path 79194" d="M159.193,121.449a17.425,17.425,0,0,1-1.743-.259c-1.024-.254-2.036-.558-3.044-.869a.583.583,0,0,1-.369-.79.6.6,0,0,1,.827-.344,15.482,15.482,0,0,0,3.293.876A14.4,14.4,0,0,0,174.331,108.7a14.121,14.121,0,0,0-1.513-9.982c-.015-.027-.035-.05-.105-.15,0,.264,0,.457,0,.65a.636.636,0,0,1-.6.676.627.627,0,0,1-.621-.683q0-1.269,0-2.538a.6.6,0,0,1,.674-.68q1.269,0,2.538,0a.615.615,0,1,1-.015,1.22c-.425,0-.85,0-1.316,0,.067.122.111.209.162.292a15.782,15.782,0,0,1,2.289,6.7c.022.2.048.4.073.6v2.019c-.068.5-.121,1.007-.206,1.507a15.691,15.691,0,0,1-12.7,12.869c-.547.1-1.1.165-1.652.246Z" transform="translate(-143.895 -90.155)" fill="#e1003e"/>
      <path id="Path_79195" data-name="Path 79195" d="M85.263,74.02a11.132,11.132,0,1,1-9.8,5.466.67.67,0,0,1,.678-.422.626.626,0,0,1,.445.956,18.636,18.636,0,0,0-.961,2.137,9.892,9.892,0,1,0,11.612-6.669,9.756,9.756,0,0,0-7.188,1.11,1.124,1.124,0,0,1-.6.151.517.517,0,0,1-.458-.467.571.571,0,0,1,.317-.665c.684-.336,1.359-.7,2.07-.967a10.487,10.487,0,0,1,3.884-.628" transform="translate(-68.719 -69.522)" fill="#6e0d88"/>
      <path id="Path_79196" data-name="Path 79196" d="M193.88,164.521a2.071,2.071,0,0,1-1.938-2.8.369.369,0,0,0-.1-.468c-.585-.568-1.157-1.148-1.732-1.727a.626.626,0,1,1,.868-.878c.586.581,1.174,1.161,1.748,1.754a.343.343,0,0,0,.446.089,1.9,1.9,0,0,1,1.487.014.3.3,0,0,0,.39-.093c1.265-1.271,2.53-2.542,3.808-3.8a.88.88,0,0,1,.543-.269.675.675,0,0,1,.512.286,1.049,1.049,0,0,1,0,.626c-.02.1-.147.189-.233.275q-1.868,1.871-3.742,3.737a.349.349,0,0,0-.1.443,2.072,2.072,0,0,1-1.955,2.808m.864-2.086a.855.855,0,1,0-.857.861.875.875,0,0,0,.857-.861" transform="translate(-177.552 -146.811)" fill="#6e0d88"/>
      <path id="Path_79197" data-name="Path 79197" d="M247.247,112.922c0,.507-.18.766-.554.8a.608.608,0,0,1-.674-.618c-.033-.621.181-.965.6-.974.4-.009.623.282.623.8" transform="translate(-230.289 -105.296)" fill="#6e0d88"/>
      <path id="Path_79198" data-name="Path 79198" d="M113,245.693c.092.005.217-.024.29.024.168.11.388.232.445.4a.751.751,0,0,1-.108.586.948.948,0,0,1-1.309-.022.6.6,0,0,1,.4-.972c.09-.012.182-.01.283-.015" transform="translate(-104.647 -230.689)" fill="#6e0d88"/>
      <path id="Path_79199" data-name="Path 79199" d="M374.556,247.247c-.565,0-.856-.252-.8-.7.049-.392.336-.553.942-.529a.636.636,0,0,1,.648.6c.016.392-.283.631-.79.632" transform="translate(-350.207 -230.998)" fill="#6e0d88"/>
      <path id="Path_79200" data-name="Path 79200" d="M245.865,374.5c0-.524.214-.8.615-.8.385,0,.61.276.613.745,0,.541-.212.844-.606.853s-.622-.289-.622-.8" transform="translate(-230.147 -350.868)" fill="#6e0d88"/>
      <path id="Path_79201" data-name="Path 79201" d="M376.132,36.887a.614.614,0,0,1-.625.612.652.652,0,0,1-.619-.661.617.617,0,0,1,.608-.6.658.658,0,0,1,.635.648" transform="translate(-351.277 -34.053)" fill="#e1003e"/>
      <path id="Path_79202" data-name="Path 79202" d="M118.67,457.285a.626.626,0,0,1-.634-.61.608.608,0,0,1,.611-.625.634.634,0,0,1,.636.612.605.605,0,0,1-.613.624" transform="translate(-110.139 -428.179)" fill="#e1003e"/>
      <path id="Path_79203" data-name="Path 79203" d="M125.3,125.3a.619.619,0,0,1-.618.616.636.636,0,0,1-.6-.638.61.61,0,0,1,.61-.592.6.6,0,0,1,.612.613" transform="translate(-115.812 -117.086)" fill="#6e0d88"/>
    </g>
  </g>
</svg>
