<svg xmlns="http://www.w3.org/2000/svg" xmlns:xlink="http://www.w3.org/1999/xlink" width="16" height="16" viewBox="0 0 16 16">
  <defs>
    <clipPath id="clip-path">
      <rect id="Rectangle_5979" data-name="Rectangle 5979" width="16" height="16" transform="translate(0 0)" fill="#e1003e"/>
    </clipPath>
  </defs>
  <g id="Group_15409" data-name="Group 15409" transform="translate(0 0.258)">
    <g id="Group_15408" data-name="Group 15408" transform="translate(0 -0.258)" clip-path="url(#clip-path)">
      <path id="Path_79036" data-name="Path 79036" d="M16,7.483a.572.572,0,0,0-.037.063.636.636,0,0,1-.7.4.629.629,0,0,1-.511-.654c0-1.148,0-2.3,0-3.444a1.238,1.238,0,0,0-.709-1.206,1.434,1.434,0,0,0-.508-.129c-.274-.021-.55-.006-.845-.006,0,.2,0,.4,0,.6a.625.625,0,1,1-1.248,0c0-.192,0-.384,0-.585H8.593c0,.206,0,.418,0,.629a.624.624,0,0,1-.971.509.586.586,0,0,1-.276-.5c0-.208,0-.417,0-.636H4.531c0,.195,0,.391,0,.587A.625.625,0,1,1,3.282,3.1c0-.192,0-.384,0-.612a7.343,7.343,0,0,0-1.08.072A1.221,1.221,0,0,0,1.25,3.838q0,1.573,0,3.147,0,3.225,0,6.45a1.22,1.22,0,0,0,.709,1.2,1.6,1.6,0,0,0,.647.135c1.552.011,3.1.005,4.656.007a.625.625,0,0,1,.637.512.638.638,0,0,1-.4.7.574.574,0,0,0-.063.037H2.187A.189.189,0,0,0,2.135,16,2.491,2.491,0,0,1,0,13.486Q0,8.642,0,3.8a2.573,2.573,0,0,1,.049-.543,2.493,2.493,0,0,1,2.487-2h.743c0-.067,0-.118,0-.169,0-.157,0-.313,0-.47A.671.671,0,0,1,3.75,0h.313a.722.722,0,0,1,.47.818c-.013.142,0,.287,0,.427H7.344c0-.059,0-.11,0-.161,0-.156,0-.313,0-.469A.671.671,0,0,1,7.813,0h.312A.722.722,0,0,1,8.6.818c-.013.142,0,.287,0,.427h2.845c0-.059,0-.11,0-.161,0-.156,0-.313,0-.469A.671.671,0,0,1,11.906,0h.313a.722.722,0,0,1,.47.818c-.013.142,0,.287,0,.436.3,0,.577-.009.852,0a2.431,2.431,0,0,1,2.2,1.4A5.151,5.151,0,0,1,16,3.444Z" transform="translate(0 0.011)" fill="#e1003e"/>
      <path id="Path_79037" data-name="Path 79037" d="M272.768,277.429c-.192-.042-.387-.072-.575-.126a3.665,3.665,0,0,1-2.752-2.916,3.778,3.778,0,0,1,7.082-2.444,3.875,3.875,0,0,1,.371,1.218.624.624,0,0,0,.031.1v.751c-.025.132-.045.265-.077.4a3.754,3.754,0,0,1-2.8,2.9c-.174.048-.353.076-.529.113Zm.383-1.253a2.536,2.536,0,1,0-2.539-2.536,2.55,2.55,0,0,0,2.539,2.536" transform="translate(-260.924 -261.386)" fill="#e1003e"/>
      <path id="Path_79038" data-name="Path 79038" d="M106.063,190.651a.624.624,0,1,1-.622-.623.62.62,0,0,1,.622.623" transform="translate(-101.533 -184.067)" fill="#e1003e"/>
      <path id="Path_79039" data-name="Path 79039" d="M192.273,191.278a.625.625,0,1,1,.621-.625.62.62,0,0,1-.621.625" transform="translate(-185.645 -184.067)" fill="#e1003e"/>
      <path id="Path_79040" data-name="Path 79040" d="M279.724,190.659a.624.624,0,1,1-.613-.633.62.62,0,0,1,.613.633" transform="translate(-269.756 -184.066)" fill="#e1003e"/>
      <path id="Path_79041" data-name="Path 79041" d="M365.927,190.028a.625.625,0,1,1-.62.625.62.62,0,0,1,.62-.625" transform="translate(-353.869 -184.067)" fill="#e1003e"/>
      <path id="Path_79042" data-name="Path 79042" d="M105.436,278.277a.625.625,0,1,1,.628-.617.62.62,0,0,1-.628.617" transform="translate(-101.534 -268.342)" fill="#e1003e"/>
      <path id="Path_79043" data-name="Path 79043" d="M192.269,277.028a.625.625,0,1,1-.622.623.62.62,0,0,1,.622-.623" transform="translate(-185.646 -268.343)" fill="#e1003e"/>
      <path id="Path_79044" data-name="Path 79044" d="M106.063,364.649a.624.624,0,1,1-.625-.621.62.62,0,0,1,.625.621" transform="translate(-101.533 -352.619)" fill="#e1003e"/>
      <path id="Path_79045" data-name="Path 79045" d="M192.894,364.645a.624.624,0,1,1-.628-.618.62.62,0,0,1,.628.618" transform="translate(-185.645 -352.619)" fill="#e1003e"/>
      <path id="Path_79046" data-name="Path 79046" d="M311.936,315.079a2.536,2.536,0,1,1,2.523-2.536,2.551,2.551,0,0,1-2.523,2.536m.616-3.161c0-.24,0-.459,0-.677a.623.623,0,0,0-1.246,0q-.007.657,0,1.315a.611.611,0,0,0,.608.607q.469.007.937,0a.625.625,0,0,0,0-1.249c-.093,0-.186,0-.3,0" transform="translate(-299.709 -300.29)" fill="#e1003e"/>
    </g>
  </g>
</svg>
