<svg id="Group_15412" data-name="Group 15412" xmlns="http://www.w3.org/2000/svg" xmlns:xlink="http://www.w3.org/1999/xlink" width="19.661" height="19.66" viewBox="0 0 19.661 19.66">
  <defs>
    <clipPath id="clip-path">
      <rect id="Rectangle_5981" data-name="Rectangle 5981" width="19.661" height="19.66" fill="none"/>
    </clipPath>
  </defs>
  <g id="Group_15412-2" data-name="Group 15412" clip-path="url(#clip-path)">
    <path id="Path_79049" data-name="Path 79049" d="M19.662,174.57a.706.706,0,0,1-.733.427q-9.105-.011-18.211,0a.652.652,0,0,1-.717-.71c.016-1.842.009-3.684.006-5.527a2.855,2.855,0,0,1,1.577-2.672c.016-.009.031-.022.063-.045A2.669,2.669,0,0,1,1.1,163.4a2.588,2.588,0,0,1,1.289-1.53,2.693,2.693,0,0,1,2.543,4.749,2.656,2.656,0,0,1,.7,1.207c.1.452.121.918.181,1.409H7.457a1.727,1.727,0,0,1,1.709,2.17c-.009.036-.016.073-.027.122h1.394a1.85,1.85,0,0,1-.023-1.029,1.721,1.721,0,0,1,1.661-1.263c.569,0,1.137,0,1.744,0a3.092,3.092,0,0,1,.83-2.611,2.7,2.7,0,0,1-1.408-2.151,2.568,2.568,0,0,1,.608-1.941,2.693,2.693,0,1,1,4.081,3.513c.043.027.083.055.126.08a2.859,2.859,0,0,1,1.473,2.063,1.133,1.133,0,0,0,.038.126Zm-15.815-.738c0-.347-.007-.684,0-1.021a.227.227,0,0,0-.173-.261,2,2,0,0,1-1.325-1.6,7.462,7.462,0,0,1-.039-1.109.575.575,0,1,1,1.148-.006c0,.249,0,.5,0,.748a.95.95,0,0,0,.934.954c1.03.014,2.06.008,3.09,0a.553.553,0,0,0,.537-.366.573.573,0,0,0-.569-.782c-.729-.005-1.458,0-2.188,0a.583.583,0,0,1-.653-.646,12.394,12.394,0,0,0-.044-1.4,1.691,1.691,0,0,0-1.92-1.386,1.719,1.719,0,0,0-1.49,1.763c0,1.644,0,3.288,0,4.932v.181Zm14.664,0v-.146q0-2.485,0-4.97a2.416,2.416,0,0,0-.034-.362,1.729,1.729,0,0,0-1.686-1.423,1.7,1.7,0,0,0-1.692,1.431,12.157,12.157,0,0,0-.04,1.321c-.006.5-.2.7-.694.7-.71,0-1.42,0-2.13,0a.578.578,0,1,0-.009,1.151c1,0,2,0,2.994,0a.966.966,0,0,0,.99-1c0-.243,0-.486,0-.729a.574.574,0,0,1,1.148-.009c0,.23,0,.461,0,.691a2.11,2.11,0,0,1-1.419,2.086c-.047.019-.11.079-.111.121-.009.375-.005.751-.005,1.135ZM14.663,172.7H5.012v1.13h9.651ZM3.649,165.779a1.535,1.535,0,1,0-1.53-1.545,1.552,1.552,0,0,0,1.53,1.545m13.9-1.536a1.535,1.535,0,1,0-1.539,1.536,1.551,1.551,0,0,0,1.539-1.536" transform="translate(-0.001 -155.338)" fill="#d50030"/>
    <path id="Path_79050" data-name="Path 79050" d="M148.644,0c0,.006.005.014.01.016a1.38,1.38,0,0,1,1.064,1.559c0,.915-.022,1.83.006,2.744A1.368,1.368,0,0,1,148.3,5.758a1.14,1.14,0,0,0-.121.006c0,.294-.007.586,0,.877a.579.579,0,0,1-.331.6.6.6,0,0,1-.674-.12c-.516-.42-1.037-.832-1.557-1.248a.474.474,0,0,0-.637,0c-.52.415-1.04.828-1.557,1.247a.6.6,0,0,1-.674.12.58.58,0,0,1-.331-.6c.009-.287,0-.573,0-.866a4.352,4.352,0,0,1-.482-.052,1.321,1.321,0,0,1-1.053-1.308q0-1.507,0-3.013A1.335,1.335,0,0,1,141.9.038.27.27,0,0,0,141.964,0Zm-1.612,5.513c0-.13,0-.212,0-.295a.571.571,0,0,1,.61-.61c.217,0,.435,0,.653,0,.2,0,.271-.068.272-.261,0-.979,0-1.958,0-2.936a.225.225,0,0,0-.256-.259H142.3c-.194,0-.263.071-.263.269q0,1.459,0,2.917c0,.2.069.266.263.269.23,0,.461,0,.691,0a.567.567,0,0,1,.58.583c0,.1,0,.193,0,.324.179-.143.318-.256.459-.366.852-.664.485-.523,1.571-.544a.743.743,0,0,1,.511.177c.29.238.587.469.916.731" transform="translate(-135.471)" fill="#d50030"/>
    <path id="Path_79051" data-name="Path 79051" d="M202.9,59.893c.5,0,1,0,1.495,0a.576.576,0,1,1,0,1.149q-1.495,0-2.989,0a.576.576,0,1,1,0-1.149c.5,0,1,0,1.495,0" transform="translate(-193.069 -57.589)" fill="#d50030"/>
  </g>
</svg>
