<svg id="Group_15383" data-name="Group 15383" xmlns="http://www.w3.org/2000/svg" xmlns:xlink="http://www.w3.org/1999/xlink" width="16" height="13.291" viewBox="0 0 16 13.291">
  <defs>
    <clipPath id="clip-path">
      <rect id="Rectangle_5961" data-name="Rectangle 5961" width="16" height="13.291" fill="#e1003e"/>
    </clipPath>
  </defs>
  <g id="Group_15383-2" data-name="Group 15383" clip-path="url(#clip-path)">
    <path id="Path_78994" data-name="Path 78994" d="M16,192.119a3.663,3.663,0,0,1-.289.629,1.386,1.386,0,0,1-1.219.571c-.932,0-1.864,0-2.8,0q-5.076,0-10.151,0a1.513,1.513,0,0,1-1.042-.34,1.332,1.332,0,0,1-.494-1.023c-.009-.907-.017-1.815,0-2.723a2.3,2.3,0,0,1,1.941-2.141,10.071,10.071,0,0,1,2.459.02.157.157,0,0,0,.185-.091,2.321,2.321,0,0,1,1.679-1.15,2.138,2.138,0,0,1,.373-.024c.963,0,1.927-.014,2.889.017a2.183,2.183,0,0,1,1.826,1.087c.086.134.154.186.316.143a1.98,1.98,0,0,1,.48-.044c.474-.005.947,0,1.421,0a2.34,2.34,0,0,1,2.391,2.009.225.225,0,0,0,.026.055Zm-10.781.244h5.568V192.2q0-1.955,0-3.91a1.405,1.405,0,0,0-1.494-1.5H6.716a1.406,1.406,0,0,0-1.5,1.509q0,1.939,0,3.879Zm-.951-4.314a.781.781,0,0,0-.157-.034c-.593-.009-1.185-.016-1.778-.018a1.155,1.155,0,0,0-.307.042A1.4,1.4,0,0,0,.942,189.46c0,.792,0,1.584,0,2.376a.48.48,0,0,0,.541.536H4.267Zm7.463,4.316c.058,0,.094.008.13.008q1.35,0,2.7,0a.469.469,0,0,0,.5-.5c0-.177,0-.354,0-.532-.008-.719,0-1.438-.033-2.155a1.338,1.338,0,0,0-1.194-1.171c-.488-.024-.977-.022-1.465-.025-.171,0-.342.015-.514.024-.091,0-.132.038-.131.145,0,1.334,0,2.668,0,4,0,.062,0,.123,0,.2" transform="translate(0 -180.029)" fill="#e1003e"/>
    <path id="Path_78995" data-name="Path 78995" d="M172.409,2.784A2.78,2.78,0,1,1,169.631,0a2.79,2.79,0,0,1,2.777,2.785m-.936.01a1.844,1.844,0,1,0-1.844,1.839,1.848,1.848,0,0,0,1.844-1.839" transform="translate(-161.626 0.001)" fill="#e1003e"/>
    <path id="Path_78996" data-name="Path 78996" d="M35.4,86.768a2.09,2.09,0,1,1,2.09-2.086,2.1,2.1,0,0,1-2.09,2.086m-1.133-2.095a1.138,1.138,0,1,0,1.146-1.133,1.142,1.142,0,0,0-1.146,1.133" transform="translate(-32.273 -80.002)" fill="#e1003e"/>
    <path id="Path_78997" data-name="Path 78997" d="M346.745,82.736a2.087,2.087,0,1,1-2.181,1.937,2.083,2.083,0,0,1,2.181-1.937m1.037,2.092a1.138,1.138,0,1,0-2.276-.009,1.138,1.138,0,1,0,2.276.009" transform="translate(-333.771 -80.143)" fill="#e1003e"/>
  </g>
</svg>
