<svg id="Group_15355" data-name="Group 15355" xmlns="http://www.w3.org/2000/svg" xmlns:xlink="http://www.w3.org/1999/xlink" width="13.352" height="13.352" viewBox="0 0 13.352 13.352">
  <defs>
    <clipPath id="clip-path">
      <rect id="Rectangle_5875" data-name="Rectangle 5875" width="13.352" height="13.352" fill="#e1003e"/>
    </clipPath>
  </defs>
  <g id="Group_15354" data-name="Group 15354" clip-path="url(#clip-path)">
    <path id="Path_78978" data-name="Path 78978" d="M0,7.093V6.259c.008-.04.017-.08.024-.121a10.067,10.067,0,0,1,.2-1.159A6.563,6.563,0,0,1,5.492.111C5.744.057,6,.036,6.259,0h.835c.229.03.461.048.687.092a6.6,6.6,0,0,1,5.183,4.351,6.184,6.184,0,0,1,.388,2.219.444.444,0,0,1-.879.1,1.233,1.233,0,0,1-.011-.208,5.835,5.835,0,0,0-.6-2.449.157.157,0,0,0-.168-.1c-.269.006-.538,0-.806,0H9.754c.008.056.014.1.021.145.057.38.118.759.168,1.14a.442.442,0,0,1-.876.121c-.011-.064-.015-.129-.025-.193q-.093-.6-.188-1.2H4.518a11.405,11.405,0,0,0-.281,2.218H4.4c.742,0,1.483,0,2.225,0a.641.641,0,0,1,.29.071.423.423,0,0,1,.194.479.442.442,0,0,1-.441.335c-.756,0-1.511,0-2.267,0H4.236a11.448,11.448,0,0,0,.285,2.226h.8a.435.435,0,0,1,.372.181.416.416,0,0,1,.042.459.425.425,0,0,1-.389.249c-.186,0-.373,0-.565,0A4.607,4.607,0,0,0,5.768,12a1.329,1.329,0,0,0,.918.464.435.435,0,0,1,.435.458.422.422,0,0,1-.447.428,11.094,11.094,0,0,1-1.351-.142A6.644,6.644,0,0,1,.136,8c-.059-.3-.091-.6-.136-.9M8.582,3.109c-.055-.145-.1-.279-.156-.41a3.982,3.982,0,0,0-.91-1.429,1.093,1.093,0,0,0-1.653,0A4.342,4.342,0,0,0,4.79,3.088c0,.005.007.015.011.021ZM3.312,6.225l.26-2.22c-.648,0-1.3,0-1.962,0-.039,0-.092.051-.113.092A5.405,5.405,0,0,0,1,5.554C.96,5.773.934,6,.9,6.225Zm-2.394.9a.5.5,0,0,0,0,.057,5.6,5.6,0,0,0,.6,2.094.188.188,0,0,0,.144.065c.616,0,1.232,0,1.848,0a.456.456,0,0,0,.067-.007L3.313,7.127Zm3.8-5.9a5.846,5.846,0,0,0-2.6,1.88H3.838a7.106,7.106,0,0,1,.881-1.88m3.949.028a7.491,7.491,0,0,1,.846,1.847H11.23A5.678,5.678,0,0,0,8.668,1.259M4.687,12.108c0-.024,0-.034,0-.039a6.783,6.783,0,0,1-.818-1.756c-.025-.08-.076-.077-.138-.077h-1.5a.742.742,0,0,0-.1.015,5.818,5.818,0,0,0,2.56,1.856" fill="#e1003e"/>
    <path id="Path_78979" data-name="Path 78979" d="M166.558,162.995A3.561,3.561,0,1,1,163,166.546a3.563,3.563,0,0,1,3.562-3.551m0,.89a2.67,2.67,0,1,0,2.673,2.654,2.673,2.673,0,0,0-2.673-2.654" transform="translate(-156.765 -156.764)" fill="#e1003e"/>
    <path id="Path_78980" data-name="Path 78980" d="M228.6,199.261c0,.283,0,.566,0,.848a.5.5,0,0,1-.156.387c-.208.2-.412.414-.62.619a.445.445,0,1,1-.63-.626c.126-.129.251-.261.385-.382a.371.371,0,0,0,.133-.312c-.009-.454,0-.909,0-1.363a.448.448,0,1,1,.89,0c0,.278,0,.556,0,.834" transform="translate(-218.359 -190.365)" fill="#e1003e"/>
  </g>
</svg>
